%TF.GenerationSoftware,KiCad,Pcbnew,8.0.5*%
%TF.CreationDate,2024-10-30T11:17:57-05:00*%
%TF.ProjectId,DataAcq-EnvBreakoutPCB,44617461-4163-4712-9d45-6e7642726561,rev?*%
%TF.SameCoordinates,Original*%
%TF.FileFunction,Copper,L1,Top*%
%TF.FilePolarity,Positive*%
%FSLAX46Y46*%
G04 Gerber Fmt 4.6, Leading zero omitted, Abs format (unit mm)*
G04 Created by KiCad (PCBNEW 8.0.5) date 2024-10-30 11:17:57*
%MOMM*%
%LPD*%
G01*
G04 APERTURE LIST*
G04 Aperture macros list*
%AMRoundRect*
0 Rectangle with rounded corners*
0 $1 Rounding radius*
0 $2 $3 $4 $5 $6 $7 $8 $9 X,Y pos of 4 corners*
0 Add a 4 corners polygon primitive as box body*
4,1,4,$2,$3,$4,$5,$6,$7,$8,$9,$2,$3,0*
0 Add four circle primitives for the rounded corners*
1,1,$1+$1,$2,$3*
1,1,$1+$1,$4,$5*
1,1,$1+$1,$6,$7*
1,1,$1+$1,$8,$9*
0 Add four rect primitives between the rounded corners*
20,1,$1+$1,$2,$3,$4,$5,0*
20,1,$1+$1,$4,$5,$6,$7,0*
20,1,$1+$1,$6,$7,$8,$9,0*
20,1,$1+$1,$8,$9,$2,$3,0*%
%AMFreePoly0*
4,1,22,0.945671,0.830970,1.026777,0.776777,1.080970,0.695671,1.100000,0.600000,1.100000,-0.600000,1.080970,-0.695671,1.026777,-0.776777,0.945671,-0.830970,0.850000,-0.850000,-0.850000,-0.850000,-0.945671,-0.830970,-1.026777,-0.776777,-1.080970,-0.695671,-1.100000,-0.600000,-1.100000,0.200000,-1.080970,0.295671,-1.026777,0.376777,-0.626777,0.776777,-0.545671,0.830970,-0.450000,0.850000,
0.850000,0.850000,0.945671,0.830970,0.945671,0.830970,$1*%
G04 Aperture macros list end*
%TA.AperFunction,SMDPad,CuDef*%
%ADD10RoundRect,0.100000X-0.225000X-0.100000X0.225000X-0.100000X0.225000X0.100000X-0.225000X0.100000X0*%
%TD*%
%TA.AperFunction,SMDPad,CuDef*%
%ADD11RoundRect,0.250000X0.250000X0.475000X-0.250000X0.475000X-0.250000X-0.475000X0.250000X-0.475000X0*%
%TD*%
%TA.AperFunction,SMDPad,CuDef*%
%ADD12RoundRect,0.250000X0.450000X-0.262500X0.450000X0.262500X-0.450000X0.262500X-0.450000X-0.262500X0*%
%TD*%
%TA.AperFunction,SMDPad,CuDef*%
%ADD13R,0.500000X0.300000*%
%TD*%
%TA.AperFunction,SMDPad,CuDef*%
%ADD14RoundRect,0.250000X-0.475000X0.250000X-0.475000X-0.250000X0.475000X-0.250000X0.475000X0.250000X0*%
%TD*%
%TA.AperFunction,SMDPad,CuDef*%
%ADD15R,1.800000X0.800000*%
%TD*%
%TA.AperFunction,SMDPad,CuDef*%
%ADD16R,2.100000X0.800000*%
%TD*%
%TA.AperFunction,SMDPad,CuDef*%
%ADD17R,2.000000X1.550000*%
%TD*%
%TA.AperFunction,ComponentPad*%
%ADD18RoundRect,0.250000X0.850000X0.600000X-0.850000X0.600000X-0.850000X-0.600000X0.850000X-0.600000X0*%
%TD*%
%TA.AperFunction,ComponentPad*%
%ADD19O,2.200000X1.700000*%
%TD*%
%TA.AperFunction,ComponentPad*%
%ADD20FreePoly0,180.000000*%
%TD*%
%TA.AperFunction,ViaPad*%
%ADD21C,0.600000*%
%TD*%
%TA.AperFunction,Conductor*%
%ADD22C,0.200000*%
%TD*%
G04 APERTURE END LIST*
D10*
%TO.P,U2,1,V_{DD}*%
%TO.N,VDDA*%
X119000000Y-52750000D03*
%TO.P,U2,2,GND*%
%TO.N,GNDA*%
X119000000Y-53400000D03*
%TO.P,U2,3,OUT*%
%TO.N,/TEMP_OUT*%
X119000000Y-54050000D03*
%TO.P,U2,4,V_{DD}*%
%TO.N,VDDA*%
X120900000Y-54050000D03*
%TO.P,U2,5,V_{DD}*%
X120900000Y-52750000D03*
%TD*%
D11*
%TO.P,C5,1*%
%TO.N,VDDA*%
X120950000Y-50750000D03*
%TO.P,C5,2*%
%TO.N,GNDA*%
X119050000Y-50750000D03*
%TD*%
D12*
%TO.P,R1,1*%
%TO.N,/TEMP_OUT*%
X114750000Y-54162500D03*
%TO.P,R1,2*%
%TO.N,/PA1(ADC)*%
X114750000Y-52337500D03*
%TD*%
D13*
%TO.P,U3,1,SDA*%
%TO.N,/I2C1_SDA*%
X119700000Y-46900000D03*
%TO.P,U3,2,SCL*%
%TO.N,/I2C1_SCL*%
X119700000Y-46100000D03*
%TO.P,U3,3,VDD*%
%TO.N,+3.3V*%
X118300000Y-46100000D03*
%TO.P,U3,4,VSS*%
%TO.N,GND*%
X118300000Y-46900000D03*
%TD*%
D14*
%TO.P,C6,1*%
%TO.N,/PA1(ADC)*%
X117000000Y-52300000D03*
%TO.P,C6,2*%
%TO.N,GNDA*%
X117000000Y-54200000D03*
%TD*%
D15*
%TO.P,U1,1,VREG*%
%TO.N,/AFLW_VREG*%
X121950000Y-38040000D03*
%TO.P,U1,2,VIN*%
%TO.N,+3.3V*%
X121950000Y-36770000D03*
D16*
%TO.P,U1,3,GND*%
%TO.N,GND*%
X121800000Y-35500000D03*
D15*
%TO.P,U1,4,NC_1*%
%TO.N,unconnected-(U1-NC_1-Pad4)*%
X121950000Y-34230000D03*
%TO.P,U1,5,NC_2*%
%TO.N,unconnected-(U1-NC_2-Pad5)*%
X121950000Y-32960000D03*
%TO.P,U1,6,SDA*%
%TO.N,/I2C2_SDA*%
X115550000Y-32960000D03*
%TO.P,U1,7,SCL*%
%TO.N,/I2C2_SCL*%
X115550000Y-34230000D03*
%TO.P,U1,8,TP1*%
%TO.N,/AFLW_TP1*%
X115550000Y-35500000D03*
%TO.P,U1,9,TP2*%
%TO.N,/AFLW_TP2*%
X115550000Y-36770000D03*
%TO.P,U1,10,VCM*%
%TO.N,/AFLW_VCM*%
X115550000Y-38040000D03*
D17*
%TO.P,U1,MP1,MP1*%
%TO.N,unconnected-(U1-PadMP1)*%
X118750000Y-38725000D03*
%TO.P,U1,MP2,MP2*%
%TO.N,unconnected-(U1-PadMP2)*%
X118750000Y-32275000D03*
%TD*%
D18*
%TO.P,J1,1,Pin_1*%
%TO.N,+3.3V*%
X127750000Y-27500000D03*
D19*
%TO.P,J1,2,Pin_2*%
%TO.N,/I2C2_SCL*%
X127750000Y-30000000D03*
%TO.P,J1,3,Pin_3*%
%TO.N,/I2C2_SDA*%
X127750000Y-32500000D03*
%TO.P,J1,4,Pin_4*%
%TO.N,GND*%
X127750000Y-35000000D03*
%TD*%
D18*
%TO.P,J3,1,Pin_1*%
%TO.N,+3.3V*%
X127750000Y-41500000D03*
D19*
%TO.P,J3,2,Pin_2*%
%TO.N,/I2C1_SDA*%
X127750000Y-44000000D03*
%TO.P,J3,3,Pin_3*%
%TO.N,/I2C1_SCL*%
X127750000Y-46500000D03*
%TO.P,J3,4,Pin_4*%
%TO.N,GND*%
X127750000Y-49000000D03*
%TD*%
D20*
%TO.P,J2,1,Pin_1*%
%TO.N,VDDA*%
X127750000Y-55750000D03*
D19*
%TO.P,J2,2,Pin_2*%
%TO.N,/PA1(ADC)*%
X127750000Y-58250000D03*
%TO.P,J2,3,Pin_3*%
%TO.N,GNDA*%
X127750000Y-60750000D03*
%TD*%
D21*
%TO.N,+3.3V*%
X121950000Y-36770000D03*
%TO.N,GND*%
X119700000Y-42707500D03*
X123950000Y-34590000D03*
X124200000Y-40240000D03*
X113450000Y-39990000D03*
X116500000Y-47200000D03*
%TO.N,/AFLW_VREG*%
X124200000Y-38340000D03*
%TO.N,/AFLW_VCM*%
X113450000Y-38090000D03*
%TO.N,/AFLW_TP1*%
X113450000Y-34390000D03*
%TO.N,/AFLW_TP2*%
X113450000Y-36290000D03*
%TO.N,VDDA*%
X120750000Y-55087500D03*
%TO.N,GNDA*%
X123000000Y-55062500D03*
%TO.N,/PA1(ADC)*%
X117000000Y-52300000D03*
%TO.N,/I2C2_SDA*%
X115550000Y-32960000D03*
%TO.N,/I2C1_SCL*%
X121000000Y-46250000D03*
%TD*%
D22*
%TO.N,/AFLW_VREG*%
X121950000Y-38040000D02*
X123900000Y-38040000D01*
X123900000Y-38040000D02*
X124200000Y-38340000D01*
%TO.N,/AFLW_VCM*%
X115550000Y-38040000D02*
X113500000Y-38040000D01*
X113500000Y-38040000D02*
X113450000Y-38090000D01*
%TO.N,/AFLW_TP1*%
X114560000Y-35500000D02*
X113450000Y-34390000D01*
X115550000Y-35500000D02*
X114560000Y-35500000D01*
%TO.N,/AFLW_TP2*%
X115550000Y-36770000D02*
X113930000Y-36770000D01*
X113930000Y-36770000D02*
X113450000Y-36290000D01*
%TO.N,VDDA*%
X120900000Y-51500000D02*
X120900000Y-52750000D01*
X120900000Y-54050000D02*
X120900000Y-54937500D01*
X124286029Y-55500000D02*
X122836029Y-54050000D01*
X120900000Y-52750000D02*
X120900000Y-54050000D01*
X127750000Y-55750000D02*
X127500000Y-55500000D01*
X120900000Y-52750000D02*
X119000000Y-52750000D01*
X122836029Y-54050000D02*
X120900000Y-54050000D01*
X120900000Y-54937500D02*
X120750000Y-55087500D01*
X120950000Y-51450000D02*
X120900000Y-51500000D01*
X120950000Y-50750000D02*
X120950000Y-51450000D01*
X127500000Y-55500000D02*
X124286029Y-55500000D01*
%TO.N,GNDA*%
X118375000Y-51425000D02*
X118375000Y-53099999D01*
X119000000Y-53400000D02*
X118600000Y-53400000D01*
X119625000Y-53700001D02*
X119324999Y-53400000D01*
X123187500Y-55687500D02*
X122250000Y-55687500D01*
X122375000Y-55687500D02*
X122250000Y-55687500D01*
X127750000Y-60250000D02*
X123187500Y-55687500D01*
X119324999Y-53400000D02*
X119000000Y-53400000D01*
X127750000Y-60750000D02*
X127750000Y-60250000D01*
X119050000Y-50750000D02*
X118375000Y-51425000D01*
X118600000Y-53400000D02*
X117800000Y-54200000D01*
X119625000Y-54875000D02*
X119625000Y-53700001D01*
X123000000Y-55062500D02*
X122375000Y-55687500D01*
X122250000Y-55687500D02*
X120437500Y-55687500D01*
X118675001Y-53400000D02*
X119000000Y-53400000D01*
X120437500Y-55687500D02*
X119625000Y-54875000D01*
X118375000Y-53099999D02*
X118675001Y-53400000D01*
X117800000Y-54200000D02*
X117000000Y-54200000D01*
%TO.N,/PA1(ADC)*%
X117000000Y-52300000D02*
X116550000Y-52300000D01*
X116550000Y-52300000D02*
X116512500Y-52337500D01*
X116512500Y-52337500D02*
X114750000Y-52337500D01*
%TO.N,/I2C2_SCL*%
X120050000Y-33450000D02*
X120050000Y-32950000D01*
X115550000Y-34230000D02*
X119270000Y-34230000D01*
X120050000Y-32950000D02*
X123000000Y-30000000D01*
X123000000Y-30000000D02*
X127750000Y-30000000D01*
X119270000Y-34230000D02*
X120050000Y-33450000D01*
%TO.N,/TEMP_OUT*%
X115587500Y-55000000D02*
X118050000Y-55000000D01*
X118050000Y-55000000D02*
X119000000Y-54050000D01*
X114750000Y-54162500D02*
X115587500Y-55000000D01*
%TO.N,/I2C1_SCL*%
X120850000Y-46100000D02*
X119700000Y-46100000D01*
X121000000Y-46250000D02*
X120850000Y-46100000D01*
%TO.N,/I2C1_SDA*%
X124850000Y-46900000D02*
X119700000Y-46900000D01*
X127750000Y-44000000D02*
X124850000Y-46900000D01*
%TD*%
%TA.AperFunction,Conductor*%
%TO.N,GND*%
G36*
X128437967Y-23300498D02*
G01*
X128437973Y-23300500D01*
X128452405Y-23300500D01*
X128496249Y-23300500D01*
X128503736Y-23300726D01*
X128757638Y-23316084D01*
X128772495Y-23317888D01*
X129019000Y-23363061D01*
X129033536Y-23366644D01*
X129272791Y-23441200D01*
X129286788Y-23446508D01*
X129515319Y-23549361D01*
X129528578Y-23556320D01*
X129635808Y-23621143D01*
X129743045Y-23685970D01*
X129755356Y-23694468D01*
X129952239Y-23848716D01*
X129952636Y-23849027D01*
X129963844Y-23858957D01*
X130141042Y-24036155D01*
X130150972Y-24047363D01*
X130305351Y-24244413D01*
X130305527Y-24244637D01*
X130314033Y-24256960D01*
X130443679Y-24471421D01*
X130450638Y-24484680D01*
X130553491Y-24713211D01*
X130558800Y-24727211D01*
X130633354Y-24966461D01*
X130636938Y-24981001D01*
X130682110Y-25227500D01*
X130683915Y-25242364D01*
X130699274Y-25496263D01*
X130699500Y-25503750D01*
X130699500Y-61746249D01*
X130699274Y-61753736D01*
X130683915Y-62007635D01*
X130682110Y-62022499D01*
X130636938Y-62268998D01*
X130633354Y-62283538D01*
X130558800Y-62522788D01*
X130553491Y-62536788D01*
X130450638Y-62765319D01*
X130443679Y-62778578D01*
X130314033Y-62993039D01*
X130305527Y-63005362D01*
X130150972Y-63202636D01*
X130141042Y-63213844D01*
X129963844Y-63391042D01*
X129952636Y-63400972D01*
X129755362Y-63555527D01*
X129743039Y-63564033D01*
X129528578Y-63693679D01*
X129515319Y-63700638D01*
X129286788Y-63803491D01*
X129272788Y-63808800D01*
X129033538Y-63883354D01*
X129018998Y-63886938D01*
X128772499Y-63932110D01*
X128757635Y-63933915D01*
X128503736Y-63949274D01*
X128496249Y-63949500D01*
X128452405Y-63949500D01*
X128452403Y-63949500D01*
X128452342Y-63949500D01*
X114521503Y-63949560D01*
X114514048Y-63949336D01*
X114259149Y-63933985D01*
X114244350Y-63932196D01*
X113996814Y-63887040D01*
X113982338Y-63883488D01*
X113742005Y-63808953D01*
X113728060Y-63803690D01*
X113498408Y-63700853D01*
X113485195Y-63693955D01*
X113269546Y-63564308D01*
X113257256Y-63555874D01*
X113255864Y-63554790D01*
X113058712Y-63401279D01*
X113047534Y-63391440D01*
X112868980Y-63214142D01*
X112859055Y-63203025D01*
X112703064Y-63005578D01*
X112694544Y-62993347D01*
X112563377Y-62778617D01*
X112556385Y-62765452D01*
X112510529Y-62664954D01*
X112451931Y-62536530D01*
X112446576Y-62522640D01*
X112370344Y-62282829D01*
X112366690Y-62268378D01*
X112328530Y-62067246D01*
X112319786Y-62021158D01*
X112317894Y-62006377D01*
X112317569Y-62001555D01*
X112300780Y-61752138D01*
X112300500Y-61743810D01*
X112300500Y-60885010D01*
X119745500Y-60885010D01*
X119745500Y-61114989D01*
X119745501Y-61115005D01*
X119775518Y-61343009D01*
X119775519Y-61343014D01*
X119775520Y-61343020D01*
X119835046Y-61565175D01*
X119835049Y-61565185D01*
X119923057Y-61777654D01*
X119923061Y-61777664D01*
X120038055Y-61976839D01*
X120178064Y-62159303D01*
X120178070Y-62159310D01*
X120340689Y-62321929D01*
X120340696Y-62321935D01*
X120523160Y-62461944D01*
X120722335Y-62576938D01*
X120722336Y-62576938D01*
X120722339Y-62576940D01*
X120934824Y-62664954D01*
X121156980Y-62724480D01*
X121385004Y-62754500D01*
X121385011Y-62754500D01*
X121614989Y-62754500D01*
X121614996Y-62754500D01*
X121843020Y-62724480D01*
X122065176Y-62664954D01*
X122277661Y-62576940D01*
X122476840Y-62461944D01*
X122659305Y-62321934D01*
X122821934Y-62159305D01*
X122961944Y-61976840D01*
X123076940Y-61777661D01*
X123164954Y-61565176D01*
X123224480Y-61343020D01*
X123254500Y-61114996D01*
X123254500Y-60885004D01*
X123224480Y-60656980D01*
X123164954Y-60434824D01*
X123076940Y-60222339D01*
X122961944Y-60023160D01*
X122821935Y-59840696D01*
X122821929Y-59840689D01*
X122659310Y-59678070D01*
X122659303Y-59678064D01*
X122476839Y-59538055D01*
X122277664Y-59423061D01*
X122277654Y-59423057D01*
X122065185Y-59335049D01*
X122065178Y-59335047D01*
X122065176Y-59335046D01*
X121843020Y-59275520D01*
X121843014Y-59275519D01*
X121843009Y-59275518D01*
X121615005Y-59245501D01*
X121615002Y-59245500D01*
X121614996Y-59245500D01*
X121385004Y-59245500D01*
X121384998Y-59245500D01*
X121384994Y-59245501D01*
X121156990Y-59275518D01*
X121156983Y-59275519D01*
X121156980Y-59275520D01*
X120934824Y-59335046D01*
X120934814Y-59335049D01*
X120722345Y-59423057D01*
X120722335Y-59423061D01*
X120523160Y-59538055D01*
X120340696Y-59678064D01*
X120340689Y-59678070D01*
X120178070Y-59840689D01*
X120178064Y-59840696D01*
X120038055Y-60023160D01*
X119923061Y-60222335D01*
X119923057Y-60222345D01*
X119835049Y-60434814D01*
X119835046Y-60434824D01*
X119775521Y-60656977D01*
X119775518Y-60656990D01*
X119745501Y-60884994D01*
X119745500Y-60885010D01*
X112300500Y-60885010D01*
X112300500Y-52024983D01*
X113549500Y-52024983D01*
X113549500Y-52650001D01*
X113549501Y-52650019D01*
X113560000Y-52752796D01*
X113560001Y-52752799D01*
X113605254Y-52889361D01*
X113615186Y-52919334D01*
X113669110Y-53006760D01*
X113707289Y-53068657D01*
X113800951Y-53162319D01*
X113834436Y-53223642D01*
X113829452Y-53293334D01*
X113800951Y-53337681D01*
X113707289Y-53431342D01*
X113615187Y-53580663D01*
X113615186Y-53580666D01*
X113560001Y-53747203D01*
X113560001Y-53747204D01*
X113560000Y-53747204D01*
X113549500Y-53849983D01*
X113549500Y-54475001D01*
X113549501Y-54475019D01*
X113560000Y-54577796D01*
X113560001Y-54577799D01*
X113602967Y-54707461D01*
X113615186Y-54744334D01*
X113707288Y-54893656D01*
X113831344Y-55017712D01*
X113980666Y-55109814D01*
X114147203Y-55164999D01*
X114249991Y-55175500D01*
X114862402Y-55175499D01*
X114929441Y-55195183D01*
X114950083Y-55211818D01*
X115102639Y-55364374D01*
X115102649Y-55364385D01*
X115106979Y-55368715D01*
X115106980Y-55368716D01*
X115218784Y-55480520D01*
X115290682Y-55522030D01*
X115355715Y-55559577D01*
X115508443Y-55600501D01*
X115508446Y-55600501D01*
X115674153Y-55600501D01*
X115674169Y-55600500D01*
X117963331Y-55600500D01*
X117963347Y-55600501D01*
X117970943Y-55600501D01*
X118129054Y-55600501D01*
X118129057Y-55600501D01*
X118281785Y-55559577D01*
X118346818Y-55522030D01*
X118418716Y-55480520D01*
X118530520Y-55368716D01*
X118530520Y-55368714D01*
X118540724Y-55358511D01*
X118540727Y-55358506D01*
X118855871Y-55043363D01*
X118917191Y-55009880D01*
X118986883Y-55014864D01*
X119042816Y-55056736D01*
X119063323Y-55098949D01*
X119065422Y-55106784D01*
X119094358Y-55156900D01*
X119094359Y-55156904D01*
X119094360Y-55156904D01*
X119144479Y-55243714D01*
X119144481Y-55243717D01*
X119263349Y-55362585D01*
X119263354Y-55362589D01*
X120068784Y-56168020D01*
X120068786Y-56168021D01*
X120068790Y-56168024D01*
X120166611Y-56224500D01*
X120205716Y-56247077D01*
X120358443Y-56288001D01*
X120358445Y-56288001D01*
X120524154Y-56288001D01*
X120524170Y-56288000D01*
X122170943Y-56288000D01*
X122288331Y-56288000D01*
X122288347Y-56288001D01*
X122295943Y-56288001D01*
X122461653Y-56288001D01*
X122461669Y-56288000D01*
X122887403Y-56288000D01*
X122954442Y-56307685D01*
X122975084Y-56324319D01*
X126416502Y-59765737D01*
X126449987Y-59827060D01*
X126445003Y-59896752D01*
X126429140Y-59926302D01*
X126344950Y-60042181D01*
X126248444Y-60231585D01*
X126182753Y-60433760D01*
X126149500Y-60643713D01*
X126149500Y-60856286D01*
X126182753Y-61066239D01*
X126248444Y-61268414D01*
X126344951Y-61457820D01*
X126469890Y-61629786D01*
X126620213Y-61780109D01*
X126792179Y-61905048D01*
X126792181Y-61905049D01*
X126792184Y-61905051D01*
X126981588Y-62001557D01*
X127183757Y-62067246D01*
X127393713Y-62100500D01*
X127393714Y-62100500D01*
X128106286Y-62100500D01*
X128106287Y-62100500D01*
X128316243Y-62067246D01*
X128518412Y-62001557D01*
X128707816Y-61905051D01*
X128729789Y-61889086D01*
X128879786Y-61780109D01*
X128879788Y-61780106D01*
X128879792Y-61780104D01*
X129030104Y-61629792D01*
X129030106Y-61629788D01*
X129030109Y-61629786D01*
X129155048Y-61457820D01*
X129155047Y-61457820D01*
X129155051Y-61457816D01*
X129251557Y-61268412D01*
X129317246Y-61066243D01*
X129350500Y-60856287D01*
X129350500Y-60643713D01*
X129317246Y-60433757D01*
X129251557Y-60231588D01*
X129155051Y-60042184D01*
X129155049Y-60042181D01*
X129155048Y-60042179D01*
X129030109Y-59870213D01*
X128879792Y-59719896D01*
X128822223Y-59678070D01*
X128715204Y-59600316D01*
X128672540Y-59544989D01*
X128666561Y-59475376D01*
X128699166Y-59413580D01*
X128715199Y-59399686D01*
X128879792Y-59280104D01*
X129030104Y-59129792D01*
X129030106Y-59129788D01*
X129030109Y-59129786D01*
X129155048Y-58957820D01*
X129155047Y-58957820D01*
X129155051Y-58957816D01*
X129251557Y-58768412D01*
X129317246Y-58566243D01*
X129350500Y-58356287D01*
X129350500Y-58143713D01*
X129325275Y-57984451D01*
X129334229Y-57915160D01*
X129379225Y-57861708D01*
X129400292Y-57850495D01*
X129518441Y-57801557D01*
X129666585Y-57702571D01*
X129792571Y-57576585D01*
X129891557Y-57428441D01*
X129959740Y-57263833D01*
X129994500Y-57089085D01*
X129994500Y-56910915D01*
X129994500Y-56910912D01*
X129959741Y-56736172D01*
X129959740Y-56736171D01*
X129959740Y-56736167D01*
X129891557Y-56571559D01*
X129792571Y-56423415D01*
X129792569Y-56423412D01*
X129666587Y-56297430D01*
X129518440Y-56198442D01*
X129428144Y-56161040D01*
X129373741Y-56117198D01*
X129351677Y-56050904D01*
X129352195Y-56034326D01*
X129360500Y-55949997D01*
X129360500Y-55150002D01*
X129356244Y-55106785D01*
X129350787Y-55051380D01*
X129331376Y-54953796D01*
X129317994Y-54901366D01*
X129255897Y-54771576D01*
X129200620Y-54688848D01*
X129168191Y-54645527D01*
X129061152Y-54549380D01*
X128978424Y-54494103D01*
X128978423Y-54494102D01*
X128931887Y-54466491D01*
X128931886Y-54466490D01*
X128796210Y-54418625D01*
X128796204Y-54418624D01*
X128748065Y-54409048D01*
X128698616Y-54399212D01*
X128624188Y-54391882D01*
X128600000Y-54389500D01*
X126900000Y-54389500D01*
X126878453Y-54391622D01*
X126801383Y-54399212D01*
X126703793Y-54418624D01*
X126703771Y-54418629D01*
X126651371Y-54432004D01*
X126651367Y-54432005D01*
X126521572Y-54494105D01*
X126438854Y-54549375D01*
X126438840Y-54549385D01*
X126395527Y-54581809D01*
X126299377Y-54688851D01*
X126299377Y-54688852D01*
X126244102Y-54771576D01*
X126216489Y-54818115D01*
X126213910Y-54823633D01*
X126212490Y-54822969D01*
X126176097Y-54873430D01*
X126111077Y-54899007D01*
X126100034Y-54899500D01*
X124586127Y-54899500D01*
X124519088Y-54879815D01*
X124498446Y-54863181D01*
X123323619Y-53688355D01*
X123323617Y-53688352D01*
X123204746Y-53569481D01*
X123204745Y-53569480D01*
X123117933Y-53519360D01*
X123117933Y-53519359D01*
X123117929Y-53519358D01*
X123067814Y-53490423D01*
X122915086Y-53449499D01*
X122756972Y-53449499D01*
X122749376Y-53449499D01*
X122749360Y-53449500D01*
X121673349Y-53449500D01*
X121606310Y-53429815D01*
X121560555Y-53377011D01*
X121550611Y-53307853D01*
X121574973Y-53250014D01*
X121649535Y-53152842D01*
X121649534Y-53152842D01*
X121649536Y-53152841D01*
X121710044Y-53006762D01*
X121725500Y-52889361D01*
X121725499Y-52610640D01*
X121725499Y-52610636D01*
X121710046Y-52493246D01*
X121710044Y-52493241D01*
X121710044Y-52493238D01*
X121649536Y-52347159D01*
X121553282Y-52221718D01*
X121552774Y-52221328D01*
X121549012Y-52218441D01*
X121507810Y-52162013D01*
X121500500Y-52120067D01*
X121500500Y-51990638D01*
X121520185Y-51923599D01*
X121559401Y-51885100D01*
X121668656Y-51817712D01*
X121792712Y-51693656D01*
X121884814Y-51544334D01*
X121939999Y-51377797D01*
X121950500Y-51275009D01*
X121950499Y-50224992D01*
X121943310Y-50154620D01*
X121939999Y-50122203D01*
X121939998Y-50122200D01*
X121909354Y-50029723D01*
X121884814Y-49955666D01*
X121792712Y-49806344D01*
X121668656Y-49682288D01*
X121519334Y-49590186D01*
X121352797Y-49535001D01*
X121352795Y-49535000D01*
X121250010Y-49524500D01*
X120649998Y-49524500D01*
X120649980Y-49524501D01*
X120547203Y-49535000D01*
X120547200Y-49535001D01*
X120380668Y-49590185D01*
X120380663Y-49590187D01*
X120231342Y-49682289D01*
X120107285Y-49806346D01*
X120105537Y-49809182D01*
X120103829Y-49810717D01*
X120102807Y-49812011D01*
X120102585Y-49811836D01*
X120053589Y-49855905D01*
X119984626Y-49867126D01*
X119920544Y-49839282D01*
X119894463Y-49809182D01*
X119892714Y-49806346D01*
X119768657Y-49682289D01*
X119768656Y-49682288D01*
X119619334Y-49590186D01*
X119452797Y-49535001D01*
X119452795Y-49535000D01*
X119350010Y-49524500D01*
X118749998Y-49524500D01*
X118749980Y-49524501D01*
X118647203Y-49535000D01*
X118647200Y-49535001D01*
X118480668Y-49590185D01*
X118480663Y-49590187D01*
X118331342Y-49682289D01*
X118207289Y-49806342D01*
X118115187Y-49955663D01*
X118115186Y-49955666D01*
X118060001Y-50122203D01*
X118060001Y-50122204D01*
X118060000Y-50122204D01*
X118049500Y-50224983D01*
X118049500Y-50849902D01*
X118029815Y-50916941D01*
X118013181Y-50937583D01*
X117894481Y-51056282D01*
X117894480Y-51056284D01*
X117858435Y-51118716D01*
X117844097Y-51143549D01*
X117815423Y-51193213D01*
X117805399Y-51230626D01*
X117769033Y-51290287D01*
X117706186Y-51320815D01*
X117646620Y-51316238D01*
X117627798Y-51310001D01*
X117525010Y-51299500D01*
X116474998Y-51299500D01*
X116474980Y-51299501D01*
X116372203Y-51310000D01*
X116372200Y-51310001D01*
X116205668Y-51365185D01*
X116205663Y-51365187D01*
X116056342Y-51457289D01*
X115937681Y-51575951D01*
X115876358Y-51609436D01*
X115806666Y-51604452D01*
X115762319Y-51575951D01*
X115668657Y-51482289D01*
X115668656Y-51482288D01*
X115519334Y-51390186D01*
X115352797Y-51335001D01*
X115352795Y-51335000D01*
X115250010Y-51324500D01*
X114249998Y-51324500D01*
X114249980Y-51324501D01*
X114147203Y-51335000D01*
X114147200Y-51335001D01*
X113980668Y-51390185D01*
X113980663Y-51390187D01*
X113831342Y-51482289D01*
X113707289Y-51606342D01*
X113615187Y-51755663D01*
X113615186Y-51755666D01*
X113560001Y-51922203D01*
X113560001Y-51922204D01*
X113560000Y-51922204D01*
X113549500Y-52024983D01*
X112300500Y-52024983D01*
X112300500Y-45902127D01*
X117549500Y-45902127D01*
X117549500Y-45902134D01*
X117549500Y-45902135D01*
X117549500Y-46297870D01*
X117549501Y-46297876D01*
X117555908Y-46357483D01*
X117593168Y-46457381D01*
X117598152Y-46527073D01*
X117593168Y-46544046D01*
X117556403Y-46642617D01*
X117556401Y-46642627D01*
X117550000Y-46702155D01*
X117550000Y-46750000D01*
X117990833Y-46750000D01*
X117998811Y-46750427D01*
X117998817Y-46750322D01*
X118002102Y-46750497D01*
X118002127Y-46750500D01*
X118326001Y-46750499D01*
X118393039Y-46770183D01*
X118438794Y-46822987D01*
X118450000Y-46874499D01*
X118450000Y-46926000D01*
X118430315Y-46993039D01*
X118377511Y-47038794D01*
X118326000Y-47050000D01*
X117550000Y-47050000D01*
X117550000Y-47097844D01*
X117556401Y-47157372D01*
X117556403Y-47157379D01*
X117606645Y-47292086D01*
X117606649Y-47292093D01*
X117692809Y-47407187D01*
X117692812Y-47407190D01*
X117807906Y-47493350D01*
X117807913Y-47493354D01*
X117942620Y-47543596D01*
X117942627Y-47543598D01*
X118002155Y-47549999D01*
X118002172Y-47550000D01*
X118150000Y-47550000D01*
X118150000Y-47374000D01*
X118169685Y-47306961D01*
X118222489Y-47261206D01*
X118274000Y-47250000D01*
X118326000Y-47250000D01*
X118393039Y-47269685D01*
X118438794Y-47322489D01*
X118450000Y-47374000D01*
X118450000Y-47550000D01*
X118597828Y-47550000D01*
X118597844Y-47549999D01*
X118657372Y-47543598D01*
X118657379Y-47543596D01*
X118792086Y-47493354D01*
X118792093Y-47493350D01*
X118907187Y-47407190D01*
X118911962Y-47402416D01*
X118973285Y-47368931D01*
X119042977Y-47373915D01*
X119087324Y-47402416D01*
X119092455Y-47407547D01*
X119207664Y-47493793D01*
X119207671Y-47493797D01*
X119252618Y-47510561D01*
X119342517Y-47544091D01*
X119402127Y-47550500D01*
X119997872Y-47550499D01*
X120057483Y-47544091D01*
X120153396Y-47508318D01*
X120196729Y-47500500D01*
X124763331Y-47500500D01*
X124763347Y-47500501D01*
X124770943Y-47500501D01*
X124929054Y-47500501D01*
X124929057Y-47500501D01*
X125081785Y-47459577D01*
X125131904Y-47430639D01*
X125218716Y-47380520D01*
X125330520Y-47268716D01*
X125330520Y-47268714D01*
X125340728Y-47258507D01*
X125340729Y-47258504D01*
X125956012Y-46643222D01*
X126017334Y-46609738D01*
X126087026Y-46614722D01*
X126142959Y-46656594D01*
X126166165Y-46711506D01*
X126175458Y-46770183D01*
X126182754Y-46816243D01*
X126218416Y-46926000D01*
X126248444Y-47018414D01*
X126344951Y-47207820D01*
X126469890Y-47379786D01*
X126620209Y-47530105D01*
X126620214Y-47530109D01*
X126785218Y-47649991D01*
X126827884Y-47705320D01*
X126833863Y-47774934D01*
X126801258Y-47836729D01*
X126785218Y-47850627D01*
X126620540Y-47970272D01*
X126620535Y-47970276D01*
X126470276Y-48120535D01*
X126470272Y-48120540D01*
X126345379Y-48292442D01*
X126248904Y-48481782D01*
X126183242Y-48683870D01*
X126183242Y-48683873D01*
X126172769Y-48750000D01*
X127201518Y-48750000D01*
X127190889Y-48768409D01*
X127150000Y-48921009D01*
X127150000Y-49078991D01*
X127190889Y-49231591D01*
X127201518Y-49250000D01*
X126172769Y-49250000D01*
X126183242Y-49316126D01*
X126183242Y-49316129D01*
X126248904Y-49518217D01*
X126345379Y-49707557D01*
X126470272Y-49879459D01*
X126470276Y-49879464D01*
X126620535Y-50029723D01*
X126620540Y-50029727D01*
X126792442Y-50154620D01*
X126981782Y-50251095D01*
X127183870Y-50316757D01*
X127393754Y-50350000D01*
X127500000Y-50350000D01*
X127500000Y-49548482D01*
X127518409Y-49559111D01*
X127671009Y-49600000D01*
X127828991Y-49600000D01*
X127981591Y-49559111D01*
X128000000Y-49548482D01*
X128000000Y-50350000D01*
X128106246Y-50350000D01*
X128316127Y-50316757D01*
X128316130Y-50316757D01*
X128518217Y-50251095D01*
X128707557Y-50154620D01*
X128879459Y-50029727D01*
X128879464Y-50029723D01*
X129029723Y-49879464D01*
X129029727Y-49879459D01*
X129154620Y-49707557D01*
X129251095Y-49518217D01*
X129316757Y-49316129D01*
X129316757Y-49316126D01*
X129327231Y-49250000D01*
X128298482Y-49250000D01*
X128309111Y-49231591D01*
X128350000Y-49078991D01*
X128350000Y-48921009D01*
X128309111Y-48768409D01*
X128298482Y-48750000D01*
X129327231Y-48750000D01*
X129316757Y-48683873D01*
X129316757Y-48683870D01*
X129251095Y-48481782D01*
X129154620Y-48292442D01*
X129029727Y-48120540D01*
X129029723Y-48120535D01*
X128879464Y-47970276D01*
X128879459Y-47970272D01*
X128714781Y-47850627D01*
X128672115Y-47795297D01*
X128666136Y-47725684D01*
X128698741Y-47663889D01*
X128714776Y-47649994D01*
X128879792Y-47530104D01*
X129030104Y-47379792D01*
X129030106Y-47379788D01*
X129030109Y-47379786D01*
X129155048Y-47207820D01*
X129155047Y-47207820D01*
X129155051Y-47207816D01*
X129251557Y-47018412D01*
X129317246Y-46816243D01*
X129350500Y-46606287D01*
X129350500Y-46393713D01*
X129325275Y-46234451D01*
X129334229Y-46165160D01*
X129379225Y-46111708D01*
X129400292Y-46100495D01*
X129518441Y-46051557D01*
X129666585Y-45952571D01*
X129792571Y-45826585D01*
X129891557Y-45678441D01*
X129959740Y-45513833D01*
X129994500Y-45339085D01*
X129994500Y-45160915D01*
X129994500Y-45160912D01*
X129959741Y-44986172D01*
X129959740Y-44986171D01*
X129959740Y-44986167D01*
X129891557Y-44821559D01*
X129792571Y-44673415D01*
X129792569Y-44673412D01*
X129666587Y-44547430D01*
X129518439Y-44448441D01*
X129400295Y-44399505D01*
X129345892Y-44355664D01*
X129323827Y-44289370D01*
X129325274Y-44265552D01*
X129350500Y-44106287D01*
X129350500Y-43893713D01*
X129317246Y-43683757D01*
X129251557Y-43481588D01*
X129155051Y-43292184D01*
X129155049Y-43292181D01*
X129155048Y-43292179D01*
X129030109Y-43120213D01*
X128891294Y-42981398D01*
X128857809Y-42920075D01*
X128862793Y-42850383D01*
X128904665Y-42794450D01*
X128913879Y-42788178D01*
X128919331Y-42784814D01*
X128919334Y-42784814D01*
X129068656Y-42692712D01*
X129192712Y-42568656D01*
X129284814Y-42419334D01*
X129339999Y-42252797D01*
X129350500Y-42150009D01*
X129350499Y-40849992D01*
X129339999Y-40747203D01*
X129284814Y-40580666D01*
X129192712Y-40431344D01*
X129068656Y-40307288D01*
X128919334Y-40215186D01*
X128752797Y-40160001D01*
X128752795Y-40160000D01*
X128650010Y-40149500D01*
X126849998Y-40149500D01*
X126849981Y-40149501D01*
X126747203Y-40160000D01*
X126747200Y-40160001D01*
X126580668Y-40215185D01*
X126580663Y-40215187D01*
X126431342Y-40307289D01*
X126307289Y-40431342D01*
X126215187Y-40580663D01*
X126215186Y-40580666D01*
X126160001Y-40747203D01*
X126160001Y-40747204D01*
X126160000Y-40747204D01*
X126149500Y-40849983D01*
X126149500Y-42150001D01*
X126149501Y-42150018D01*
X126160000Y-42252796D01*
X126160001Y-42252799D01*
X126215185Y-42419331D01*
X126215187Y-42419336D01*
X126307289Y-42568657D01*
X126431344Y-42692712D01*
X126586120Y-42788178D01*
X126632845Y-42840126D01*
X126644068Y-42909088D01*
X126616224Y-42973171D01*
X126608706Y-42981398D01*
X126469889Y-43120215D01*
X126344951Y-43292179D01*
X126248444Y-43481585D01*
X126182753Y-43683760D01*
X126149500Y-43893713D01*
X126149500Y-44106286D01*
X126182753Y-44316240D01*
X126248441Y-44518408D01*
X126252743Y-44526851D01*
X126265638Y-44595520D01*
X126239361Y-44660260D01*
X126229938Y-44670825D01*
X124637584Y-46263181D01*
X124576261Y-46296666D01*
X124549903Y-46299500D01*
X121921956Y-46299500D01*
X121854917Y-46279815D01*
X121809162Y-46227011D01*
X121798736Y-46189384D01*
X121785369Y-46070749D01*
X121785368Y-46070745D01*
X121725788Y-45900476D01*
X121629815Y-45747737D01*
X121502262Y-45620184D01*
X121349523Y-45524211D01*
X121179254Y-45464631D01*
X121179249Y-45464630D01*
X121000004Y-45444435D01*
X120999996Y-45444435D01*
X120820750Y-45464630D01*
X120820745Y-45464631D01*
X120740983Y-45492542D01*
X120700028Y-45499500D01*
X120196729Y-45499500D01*
X120153396Y-45491682D01*
X120057486Y-45455910D01*
X120057485Y-45455909D01*
X120057483Y-45455909D01*
X119997873Y-45449500D01*
X119997863Y-45449500D01*
X119402129Y-45449500D01*
X119402123Y-45449501D01*
X119342516Y-45455908D01*
X119207671Y-45506202D01*
X119207664Y-45506206D01*
X119092455Y-45592452D01*
X119087681Y-45597227D01*
X119026358Y-45630712D01*
X118956666Y-45625728D01*
X118912319Y-45597227D01*
X118907544Y-45592452D01*
X118792335Y-45506206D01*
X118792328Y-45506202D01*
X118657486Y-45455910D01*
X118657485Y-45455909D01*
X118657483Y-45455909D01*
X118597873Y-45449500D01*
X118597863Y-45449500D01*
X118002129Y-45449500D01*
X118002123Y-45449501D01*
X117942516Y-45455908D01*
X117807671Y-45506202D01*
X117807664Y-45506206D01*
X117692455Y-45592452D01*
X117692452Y-45592455D01*
X117606206Y-45707664D01*
X117606202Y-45707671D01*
X117561851Y-45826585D01*
X117555909Y-45842517D01*
X117549500Y-45902127D01*
X112300500Y-45902127D01*
X112300500Y-34389996D01*
X112644435Y-34389996D01*
X112644435Y-34390003D01*
X112664630Y-34569249D01*
X112664631Y-34569254D01*
X112724211Y-34739523D01*
X112820184Y-34892262D01*
X112947738Y-35019816D01*
X113100478Y-35115789D01*
X113270745Y-35175368D01*
X113357669Y-35185161D01*
X113422080Y-35212226D01*
X113431465Y-35220700D01*
X113488298Y-35277533D01*
X113521783Y-35338856D01*
X113516799Y-35408548D01*
X113474927Y-35464481D01*
X113414501Y-35488434D01*
X113270749Y-35504630D01*
X113270745Y-35504631D01*
X113100476Y-35564211D01*
X112947737Y-35660184D01*
X112820184Y-35787737D01*
X112724211Y-35940476D01*
X112664631Y-36110745D01*
X112664630Y-36110750D01*
X112644435Y-36289996D01*
X112644435Y-36290003D01*
X112664630Y-36469249D01*
X112664631Y-36469254D01*
X112724211Y-36639523D01*
X112820184Y-36792262D01*
X112947738Y-36919816D01*
X113100478Y-37015789D01*
X113263859Y-37072958D01*
X113320633Y-37113679D01*
X113346381Y-37178631D01*
X113332925Y-37247193D01*
X113284538Y-37297596D01*
X113263858Y-37307040D01*
X113100480Y-37364209D01*
X112947737Y-37460184D01*
X112820184Y-37587737D01*
X112724211Y-37740476D01*
X112664631Y-37910745D01*
X112664630Y-37910750D01*
X112644435Y-38089996D01*
X112644435Y-38090003D01*
X112664630Y-38269249D01*
X112664631Y-38269254D01*
X112724211Y-38439523D01*
X112792047Y-38547482D01*
X112820184Y-38592262D01*
X112947738Y-38719816D01*
X113100478Y-38815789D01*
X113270745Y-38875368D01*
X113270750Y-38875369D01*
X113449996Y-38895565D01*
X113450000Y-38895565D01*
X113450004Y-38895565D01*
X113629249Y-38875369D01*
X113629252Y-38875368D01*
X113629255Y-38875368D01*
X113799522Y-38815789D01*
X113952262Y-38719816D01*
X113995259Y-38676819D01*
X114056582Y-38643334D01*
X114082940Y-38640500D01*
X114112820Y-38640500D01*
X114179859Y-38660185D01*
X114212085Y-38690187D01*
X114292454Y-38797546D01*
X114338643Y-38832123D01*
X114407664Y-38883793D01*
X114407671Y-38883797D01*
X114542517Y-38934091D01*
X114542516Y-38934091D01*
X114549444Y-38934835D01*
X114602127Y-38940500D01*
X116497872Y-38940499D01*
X116557483Y-38934091D01*
X116692331Y-38883796D01*
X116807546Y-38797546D01*
X116893796Y-38682331D01*
X116944091Y-38547483D01*
X116950500Y-38487873D01*
X116950499Y-37902135D01*
X117249500Y-37902135D01*
X117249500Y-39547870D01*
X117249501Y-39547876D01*
X117255908Y-39607483D01*
X117306202Y-39742328D01*
X117306206Y-39742335D01*
X117392452Y-39857544D01*
X117392455Y-39857547D01*
X117507664Y-39943793D01*
X117507671Y-39943797D01*
X117642517Y-39994091D01*
X117642516Y-39994091D01*
X117649444Y-39994835D01*
X117702127Y-40000500D01*
X119797872Y-40000499D01*
X119857483Y-39994091D01*
X119992331Y-39943796D01*
X120107546Y-39857546D01*
X120193796Y-39742331D01*
X120244091Y-39607483D01*
X120250500Y-39547873D01*
X120250499Y-37902128D01*
X120244091Y-37842517D01*
X120242308Y-37837737D01*
X120193797Y-37707671D01*
X120193793Y-37707664D01*
X120107547Y-37592455D01*
X120107544Y-37592452D01*
X119992335Y-37506206D01*
X119992328Y-37506202D01*
X119857482Y-37455908D01*
X119857483Y-37455908D01*
X119797883Y-37449501D01*
X119797881Y-37449500D01*
X119797873Y-37449500D01*
X119797864Y-37449500D01*
X117702129Y-37449500D01*
X117702123Y-37449501D01*
X117642516Y-37455908D01*
X117507671Y-37506202D01*
X117507664Y-37506206D01*
X117392455Y-37592452D01*
X117392452Y-37592455D01*
X117306206Y-37707664D01*
X117306202Y-37707671D01*
X117255908Y-37842517D01*
X117249501Y-37902116D01*
X117249501Y-37902123D01*
X117249500Y-37902135D01*
X116950499Y-37902135D01*
X116950499Y-37592128D01*
X116944091Y-37532517D01*
X116912691Y-37448331D01*
X116907708Y-37378642D01*
X116912689Y-37361673D01*
X116944091Y-37277483D01*
X116950500Y-37217873D01*
X116950499Y-36322128D01*
X116944091Y-36262517D01*
X116912691Y-36178331D01*
X116907708Y-36108642D01*
X116912689Y-36091673D01*
X116944091Y-36007483D01*
X116950500Y-35947873D01*
X116950500Y-35947844D01*
X120250000Y-35947844D01*
X120256401Y-36007372D01*
X120256403Y-36007379D01*
X120306645Y-36142086D01*
X120306649Y-36142093D01*
X120392809Y-36257187D01*
X120392812Y-36257190D01*
X120499811Y-36337290D01*
X120541682Y-36393223D01*
X120549500Y-36436556D01*
X120549500Y-37217870D01*
X120549501Y-37217876D01*
X120555908Y-37277482D01*
X120587307Y-37361666D01*
X120592291Y-37431358D01*
X120587307Y-37448331D01*
X120555909Y-37532514D01*
X120555908Y-37532516D01*
X120553531Y-37554632D01*
X120549501Y-37592123D01*
X120549500Y-37592135D01*
X120549500Y-38487870D01*
X120549501Y-38487876D01*
X120555908Y-38547483D01*
X120606202Y-38682328D01*
X120606206Y-38682335D01*
X120692452Y-38797544D01*
X120692455Y-38797547D01*
X120807664Y-38883793D01*
X120807671Y-38883797D01*
X120942517Y-38934091D01*
X120942516Y-38934091D01*
X120949444Y-38934835D01*
X121002127Y-38940500D01*
X122897872Y-38940499D01*
X122957483Y-38934091D01*
X123092331Y-38883796D01*
X123207546Y-38797546D01*
X123281225Y-38699123D01*
X123337157Y-38657254D01*
X123406849Y-38652270D01*
X123468172Y-38685755D01*
X123485483Y-38707463D01*
X123570182Y-38842260D01*
X123570184Y-38842262D01*
X123697738Y-38969816D01*
X123850478Y-39065789D01*
X124020745Y-39125368D01*
X124020750Y-39125369D01*
X124199996Y-39145565D01*
X124200000Y-39145565D01*
X124200004Y-39145565D01*
X124379249Y-39125369D01*
X124379252Y-39125368D01*
X124379255Y-39125368D01*
X124549522Y-39065789D01*
X124702262Y-38969816D01*
X124829816Y-38842262D01*
X124925789Y-38689522D01*
X124985368Y-38519255D01*
X124988904Y-38487872D01*
X125005565Y-38340003D01*
X125005565Y-38339996D01*
X124985369Y-38160750D01*
X124985368Y-38160745D01*
X124925788Y-37990476D01*
X124886582Y-37928080D01*
X124829816Y-37837738D01*
X124702262Y-37710184D01*
X124698251Y-37707664D01*
X124549521Y-37614210D01*
X124379249Y-37554630D01*
X124257187Y-37540877D01*
X124209074Y-37525046D01*
X124181904Y-37509360D01*
X124131785Y-37480423D01*
X123979057Y-37439499D01*
X123820943Y-37439499D01*
X123813347Y-37439499D01*
X123813331Y-37439500D01*
X123462256Y-37439500D01*
X123395217Y-37419815D01*
X123349462Y-37367011D01*
X123339518Y-37297853D01*
X123342762Y-37285145D01*
X123342306Y-37285038D01*
X123344089Y-37277488D01*
X123344091Y-37277483D01*
X123350500Y-37217873D01*
X123350499Y-36322128D01*
X123344091Y-36262517D01*
X123312424Y-36177615D01*
X123307441Y-36107926D01*
X123312426Y-36090950D01*
X123343597Y-36007377D01*
X123343598Y-36007374D01*
X123349999Y-35947844D01*
X123350000Y-35947827D01*
X123350000Y-35750000D01*
X120250000Y-35750000D01*
X120250000Y-35947844D01*
X116950500Y-35947844D01*
X116950499Y-35052128D01*
X116944091Y-34992517D01*
X116944090Y-34992515D01*
X116944090Y-34992512D01*
X116942308Y-34984969D01*
X116945106Y-34984307D01*
X116941090Y-34928139D01*
X116974577Y-34866816D01*
X117035901Y-34833333D01*
X117062256Y-34830500D01*
X119183331Y-34830500D01*
X119183347Y-34830501D01*
X119190943Y-34830501D01*
X119349054Y-34830501D01*
X119349057Y-34830501D01*
X119501785Y-34789577D01*
X119583404Y-34742454D01*
X119638716Y-34710520D01*
X119750520Y-34598716D01*
X119750520Y-34598714D01*
X119760724Y-34588511D01*
X119760727Y-34588506D01*
X120337820Y-34011415D01*
X120399142Y-33977931D01*
X120468834Y-33982915D01*
X120524767Y-34024787D01*
X120549184Y-34090251D01*
X120549500Y-34099097D01*
X120549500Y-34563444D01*
X120529815Y-34630483D01*
X120499811Y-34662710D01*
X120392812Y-34742809D01*
X120392809Y-34742812D01*
X120306649Y-34857906D01*
X120306645Y-34857913D01*
X120256403Y-34992620D01*
X120256401Y-34992627D01*
X120250000Y-35052155D01*
X120250000Y-35250000D01*
X123350000Y-35250000D01*
X123350000Y-35052172D01*
X123349999Y-35052155D01*
X123343598Y-34992623D01*
X123312425Y-34909047D01*
X123307441Y-34839356D01*
X123312418Y-34822402D01*
X123344091Y-34737483D01*
X123350500Y-34677873D01*
X123350499Y-33782128D01*
X123344091Y-33722517D01*
X123312691Y-33638331D01*
X123307708Y-33568642D01*
X123312689Y-33551673D01*
X123344091Y-33467483D01*
X123350500Y-33407873D01*
X123350499Y-32512128D01*
X123344091Y-32452517D01*
X123293796Y-32317669D01*
X123293795Y-32317668D01*
X123293793Y-32317664D01*
X123207547Y-32202455D01*
X123207544Y-32202452D01*
X123092335Y-32116206D01*
X123092328Y-32116202D01*
X122957482Y-32065908D01*
X122957483Y-32065908D01*
X122897883Y-32059501D01*
X122897881Y-32059500D01*
X122897873Y-32059500D01*
X122897865Y-32059500D01*
X122089096Y-32059500D01*
X122022057Y-32039815D01*
X121976302Y-31987011D01*
X121966358Y-31917853D01*
X121995383Y-31854297D01*
X122001415Y-31847819D01*
X122574610Y-31274625D01*
X123212416Y-30636819D01*
X123273739Y-30603334D01*
X123300097Y-30600500D01*
X126214281Y-30600500D01*
X126281320Y-30620185D01*
X126324765Y-30668205D01*
X126344947Y-30707814D01*
X126344948Y-30707815D01*
X126469890Y-30879786D01*
X126620209Y-31030105D01*
X126620214Y-31030109D01*
X126784793Y-31149682D01*
X126827459Y-31205011D01*
X126833438Y-31274625D01*
X126800833Y-31336420D01*
X126784793Y-31350318D01*
X126620214Y-31469890D01*
X126620209Y-31469894D01*
X126469890Y-31620213D01*
X126344951Y-31792179D01*
X126248444Y-31981585D01*
X126182753Y-32183760D01*
X126149500Y-32393713D01*
X126149500Y-32606286D01*
X126182753Y-32816239D01*
X126248444Y-33018414D01*
X126344951Y-33207820D01*
X126469890Y-33379786D01*
X126620209Y-33530105D01*
X126620214Y-33530109D01*
X126785218Y-33649991D01*
X126827884Y-33705320D01*
X126833863Y-33774934D01*
X126801258Y-33836729D01*
X126785218Y-33850627D01*
X126620540Y-33970272D01*
X126620535Y-33970276D01*
X126470276Y-34120535D01*
X126470272Y-34120540D01*
X126345379Y-34292442D01*
X126248904Y-34481782D01*
X126183242Y-34683870D01*
X126183242Y-34683873D01*
X126172769Y-34750000D01*
X127201518Y-34750000D01*
X127190889Y-34768409D01*
X127150000Y-34921009D01*
X127150000Y-35078991D01*
X127190889Y-35231591D01*
X127201518Y-35250000D01*
X126172769Y-35250000D01*
X126183242Y-35316126D01*
X126183242Y-35316129D01*
X126248904Y-35518217D01*
X126345379Y-35707557D01*
X126470272Y-35879459D01*
X126470276Y-35879464D01*
X126620535Y-36029723D01*
X126620540Y-36029727D01*
X126792442Y-36154620D01*
X126981782Y-36251095D01*
X127183870Y-36316757D01*
X127393754Y-36350000D01*
X127500000Y-36350000D01*
X127500000Y-35548482D01*
X127518409Y-35559111D01*
X127671009Y-35600000D01*
X127828991Y-35600000D01*
X127981591Y-35559111D01*
X128000000Y-35548482D01*
X128000000Y-36350000D01*
X128106246Y-36350000D01*
X128316127Y-36316757D01*
X128316130Y-36316757D01*
X128518217Y-36251095D01*
X128707557Y-36154620D01*
X128879459Y-36029727D01*
X128879464Y-36029723D01*
X129029723Y-35879464D01*
X129029727Y-35879459D01*
X129154620Y-35707557D01*
X129251095Y-35518217D01*
X129316757Y-35316129D01*
X129316757Y-35316126D01*
X129327231Y-35250000D01*
X128298482Y-35250000D01*
X128309111Y-35231591D01*
X128350000Y-35078991D01*
X128350000Y-34921009D01*
X128309111Y-34768409D01*
X128298482Y-34750000D01*
X129327231Y-34750000D01*
X129316757Y-34683873D01*
X129316757Y-34683870D01*
X129251095Y-34481782D01*
X129154620Y-34292442D01*
X129029727Y-34120540D01*
X129029723Y-34120535D01*
X128879464Y-33970276D01*
X128879459Y-33970272D01*
X128714781Y-33850627D01*
X128672115Y-33795297D01*
X128666136Y-33725684D01*
X128698741Y-33663889D01*
X128714776Y-33649994D01*
X128879792Y-33530104D01*
X129030104Y-33379792D01*
X129030106Y-33379788D01*
X129030109Y-33379786D01*
X129155048Y-33207820D01*
X129155047Y-33207820D01*
X129155051Y-33207816D01*
X129251557Y-33018412D01*
X129317246Y-32816243D01*
X129350500Y-32606287D01*
X129350500Y-32393713D01*
X129325275Y-32234451D01*
X129334229Y-32165160D01*
X129379225Y-32111708D01*
X129400292Y-32100495D01*
X129518441Y-32051557D01*
X129666585Y-31952571D01*
X129792571Y-31826585D01*
X129891557Y-31678441D01*
X129959740Y-31513833D01*
X129994500Y-31339085D01*
X129994500Y-31160915D01*
X129994500Y-31160912D01*
X129959741Y-30986172D01*
X129959740Y-30986171D01*
X129959740Y-30986167D01*
X129891557Y-30821559D01*
X129792571Y-30673415D01*
X129792569Y-30673412D01*
X129666587Y-30547430D01*
X129518439Y-30448441D01*
X129400295Y-30399505D01*
X129345892Y-30355664D01*
X129323827Y-30289370D01*
X129325274Y-30265552D01*
X129350500Y-30106287D01*
X129350500Y-29893713D01*
X129317246Y-29683757D01*
X129251557Y-29481588D01*
X129155051Y-29292184D01*
X129155049Y-29292181D01*
X129155048Y-29292179D01*
X129030109Y-29120213D01*
X128891294Y-28981398D01*
X128857809Y-28920075D01*
X128862793Y-28850383D01*
X128904665Y-28794450D01*
X128913879Y-28788178D01*
X128919331Y-28784814D01*
X128919334Y-28784814D01*
X129068656Y-28692712D01*
X129192712Y-28568656D01*
X129284814Y-28419334D01*
X129339999Y-28252797D01*
X129350500Y-28150009D01*
X129350499Y-26849992D01*
X129346943Y-26815185D01*
X129339999Y-26747203D01*
X129339998Y-26747200D01*
X129288908Y-26593022D01*
X129284814Y-26580666D01*
X129192712Y-26431344D01*
X129068656Y-26307288D01*
X128919334Y-26215186D01*
X128752797Y-26160001D01*
X128752795Y-26160000D01*
X128650010Y-26149500D01*
X126849998Y-26149500D01*
X126849981Y-26149501D01*
X126747203Y-26160000D01*
X126747200Y-26160001D01*
X126580668Y-26215185D01*
X126580663Y-26215187D01*
X126431342Y-26307289D01*
X126307289Y-26431342D01*
X126215187Y-26580663D01*
X126215185Y-26580668D01*
X126187349Y-26664670D01*
X126160001Y-26747203D01*
X126160001Y-26747204D01*
X126160000Y-26747204D01*
X126149500Y-26849983D01*
X126149500Y-28150001D01*
X126149501Y-28150018D01*
X126160000Y-28252796D01*
X126160001Y-28252799D01*
X126215185Y-28419331D01*
X126215187Y-28419336D01*
X126307289Y-28568657D01*
X126431344Y-28692712D01*
X126586120Y-28788178D01*
X126632845Y-28840126D01*
X126644068Y-28909088D01*
X126616224Y-28973171D01*
X126608706Y-28981398D01*
X126469889Y-29120215D01*
X126344948Y-29292184D01*
X126344947Y-29292185D01*
X126324765Y-29331795D01*
X126276791Y-29382591D01*
X126214281Y-29399500D01*
X123086669Y-29399500D01*
X123086653Y-29399499D01*
X123079057Y-29399499D01*
X122920943Y-29399499D01*
X122813587Y-29428265D01*
X122768210Y-29440424D01*
X122768209Y-29440425D01*
X122718096Y-29469359D01*
X122718095Y-29469360D01*
X122674689Y-29494420D01*
X122631285Y-29519479D01*
X122631282Y-29519481D01*
X120462180Y-31688584D01*
X120400857Y-31722069D01*
X120331165Y-31717085D01*
X120275232Y-31675213D01*
X120250815Y-31609749D01*
X120250499Y-31600903D01*
X120250499Y-31452129D01*
X120250498Y-31452123D01*
X120250497Y-31452116D01*
X120244091Y-31392517D01*
X120226349Y-31344949D01*
X120193797Y-31257671D01*
X120193793Y-31257664D01*
X120107547Y-31142455D01*
X120107544Y-31142452D01*
X119992335Y-31056206D01*
X119992328Y-31056202D01*
X119857482Y-31005908D01*
X119857483Y-31005908D01*
X119797883Y-30999501D01*
X119797881Y-30999500D01*
X119797873Y-30999500D01*
X119797864Y-30999500D01*
X117702129Y-30999500D01*
X117702123Y-30999501D01*
X117642516Y-31005908D01*
X117507671Y-31056202D01*
X117507664Y-31056206D01*
X117392455Y-31142452D01*
X117392452Y-31142455D01*
X117306206Y-31257664D01*
X117306202Y-31257671D01*
X117255908Y-31392517D01*
X117249501Y-31452116D01*
X117249501Y-31452123D01*
X117249500Y-31452135D01*
X117249500Y-33097870D01*
X117249501Y-33097876D01*
X117255908Y-33157483D01*
X117306202Y-33292328D01*
X117306206Y-33292335D01*
X117392452Y-33407544D01*
X117398725Y-33413817D01*
X117397382Y-33415159D01*
X117432572Y-33462167D01*
X117437556Y-33531859D01*
X117404071Y-33593182D01*
X117342748Y-33626666D01*
X117316390Y-33629500D01*
X117062256Y-33629500D01*
X116995217Y-33609815D01*
X116949462Y-33557011D01*
X116939518Y-33487853D01*
X116942762Y-33475145D01*
X116942306Y-33475038D01*
X116944089Y-33467488D01*
X116944091Y-33467483D01*
X116950500Y-33407873D01*
X116950499Y-32512128D01*
X116944091Y-32452517D01*
X116893796Y-32317669D01*
X116893795Y-32317668D01*
X116893793Y-32317664D01*
X116807547Y-32202455D01*
X116807544Y-32202452D01*
X116692335Y-32116206D01*
X116692328Y-32116202D01*
X116557482Y-32065908D01*
X116557483Y-32065908D01*
X116497883Y-32059501D01*
X116497881Y-32059500D01*
X116497873Y-32059500D01*
X116497864Y-32059500D01*
X114602129Y-32059500D01*
X114602123Y-32059501D01*
X114542516Y-32065908D01*
X114407671Y-32116202D01*
X114407664Y-32116206D01*
X114292455Y-32202452D01*
X114292452Y-32202455D01*
X114206206Y-32317664D01*
X114206202Y-32317671D01*
X114155908Y-32452517D01*
X114149501Y-32512116D01*
X114149501Y-32512123D01*
X114149500Y-32512135D01*
X114149500Y-33407870D01*
X114149501Y-33407876D01*
X114155908Y-33467482D01*
X114163506Y-33487853D01*
X114186871Y-33550499D01*
X114187307Y-33551666D01*
X114192291Y-33621358D01*
X114187307Y-33638332D01*
X114157782Y-33717493D01*
X114115911Y-33773427D01*
X114050447Y-33797844D01*
X113982174Y-33782993D01*
X113953919Y-33761841D01*
X113952262Y-33760184D01*
X113799523Y-33664211D01*
X113629254Y-33604631D01*
X113629249Y-33604630D01*
X113450004Y-33584435D01*
X113449996Y-33584435D01*
X113270750Y-33604630D01*
X113270745Y-33604631D01*
X113100476Y-33664211D01*
X112947737Y-33760184D01*
X112820184Y-33887737D01*
X112724211Y-34040476D01*
X112664631Y-34210745D01*
X112664630Y-34210750D01*
X112644435Y-34389996D01*
X112300500Y-34389996D01*
X112300500Y-26135010D01*
X119754383Y-26135010D01*
X119754383Y-26364989D01*
X119754384Y-26365005D01*
X119784401Y-26593009D01*
X119784402Y-26593014D01*
X119784403Y-26593020D01*
X119784404Y-26593022D01*
X119843929Y-26815175D01*
X119843932Y-26815185D01*
X119931940Y-27027654D01*
X119931944Y-27027664D01*
X120046938Y-27226839D01*
X120186947Y-27409303D01*
X120186953Y-27409310D01*
X120349572Y-27571929D01*
X120349579Y-27571935D01*
X120532043Y-27711944D01*
X120731218Y-27826938D01*
X120731219Y-27826938D01*
X120731222Y-27826940D01*
X120943707Y-27914954D01*
X121165863Y-27974480D01*
X121393887Y-28004500D01*
X121393894Y-28004500D01*
X121623872Y-28004500D01*
X121623879Y-28004500D01*
X121851903Y-27974480D01*
X122074059Y-27914954D01*
X122286544Y-27826940D01*
X122485723Y-27711944D01*
X122668188Y-27571934D01*
X122830817Y-27409305D01*
X122970827Y-27226840D01*
X123085823Y-27027661D01*
X123173837Y-26815176D01*
X123233363Y-26593020D01*
X123263383Y-26364996D01*
X123263383Y-26135004D01*
X123233363Y-25906980D01*
X123173837Y-25684824D01*
X123085823Y-25472339D01*
X122970827Y-25273160D01*
X122830817Y-25090695D01*
X122830812Y-25090689D01*
X122668193Y-24928070D01*
X122668186Y-24928064D01*
X122485722Y-24788055D01*
X122286547Y-24673061D01*
X122286537Y-24673057D01*
X122074068Y-24585049D01*
X122074061Y-24585047D01*
X122074059Y-24585046D01*
X121851903Y-24525520D01*
X121851897Y-24525519D01*
X121851892Y-24525518D01*
X121623888Y-24495501D01*
X121623885Y-24495500D01*
X121623879Y-24495500D01*
X121393887Y-24495500D01*
X121393881Y-24495500D01*
X121393877Y-24495501D01*
X121165873Y-24525518D01*
X121165866Y-24525519D01*
X121165863Y-24525520D01*
X120943707Y-24585046D01*
X120943697Y-24585049D01*
X120731228Y-24673057D01*
X120731218Y-24673061D01*
X120532043Y-24788055D01*
X120349579Y-24928064D01*
X120349572Y-24928070D01*
X120186953Y-25090689D01*
X120186947Y-25090696D01*
X120046938Y-25273160D01*
X119931944Y-25472335D01*
X119931940Y-25472345D01*
X119843932Y-25684814D01*
X119843929Y-25684824D01*
X119784404Y-25906977D01*
X119784401Y-25906990D01*
X119754384Y-26134994D01*
X119754383Y-26135010D01*
X112300500Y-26135010D01*
X112300500Y-25506202D01*
X112300780Y-25497874D01*
X112300888Y-25496263D01*
X112317895Y-25243616D01*
X112319788Y-25228836D01*
X112320042Y-25227500D01*
X112366692Y-24981615D01*
X112370345Y-24967169D01*
X112382774Y-24928070D01*
X112446579Y-24727353D01*
X112451932Y-24713469D01*
X112556386Y-24484547D01*
X112563376Y-24471385D01*
X112592469Y-24423757D01*
X112694554Y-24256634D01*
X112703063Y-24244421D01*
X112859061Y-24046968D01*
X112868969Y-24035869D01*
X113047543Y-23858551D01*
X113058702Y-23848729D01*
X113257266Y-23694118D01*
X113269534Y-23685699D01*
X113485198Y-23556043D01*
X113498408Y-23549147D01*
X113575313Y-23514709D01*
X113728069Y-23446306D01*
X113741990Y-23441052D01*
X113982354Y-23366507D01*
X113996796Y-23362964D01*
X114244354Y-23317803D01*
X114259143Y-23316015D01*
X114514078Y-23300661D01*
X114521513Y-23300438D01*
X128437967Y-23300498D01*
G37*
%TD.AperFunction*%
%TD*%
M02*
