M48
; DRILL file {KiCad 8.0.5} date 2024-11-05T15:37:42-0600
; FORMAT={-:-/ absolute / inch / decimal}
; #@! TF.CreationDate,2024-11-05T15:37:42-06:00
; #@! TF.GenerationSoftware,Kicad,Pcbnew,8.0.5
; #@! TF.FileFunction,Plated,1,2,PTH
FMAT,2
INCH
; #@! TA.AperFunction,Plated,PTH,ViaDrill
T1C0.0118
; #@! TA.AperFunction,Plated,PTH,ComponentDrill
T2C0.0472
%
G90
G05
T1
X4.4941Y-1.5518
X4.5118Y-1.6734
X4.5177Y-2.0113
X4.5492Y-1.3834
X4.5689Y-1.5518
X4.5886Y-1.6693
X4.6063Y-2.0103
X4.6929Y-1.6949
X4.6929Y-1.7697
X4.6949Y-1.935
X4.7106Y-1.5512
X4.748Y-1.3169
X4.748Y-1.3917
X4.7638Y-1.6234
X4.7815Y-1.8617
X4.7815Y-1.9365
X4.8287Y-2.0807
X4.8583Y-1.4882
X4.8819Y-1.8425
X4.9055Y-1.8661
X4.908Y-1.7662
X5.1102Y-1.7323
X5.1181Y-1.4173
T2
X4.9567Y-1.5207
X4.9567Y-1.6191
X4.9567Y-1.7175
X4.9567Y-1.8159
X4.9567Y-1.9144
X5.0551Y-1.5207
X5.0551Y-1.6191
X5.0551Y-1.7175
X5.0551Y-1.8159
X5.0551Y-1.9144
M30
