%TF.GenerationSoftware,KiCad,Pcbnew,8.0.5*%
%TF.CreationDate,2024-11-05T15:37:39-06:00*%
%TF.ProjectId,DataAcq-EnvBreakoutPCB,44617461-4163-4712-9d45-6e7642726561,rev?*%
%TF.SameCoordinates,Original*%
%TF.FileFunction,Legend,Bot*%
%TF.FilePolarity,Positive*%
%FSLAX46Y46*%
G04 Gerber Fmt 4.6, Leading zero omitted, Abs format (unit mm)*
G04 Created by KiCad (PCBNEW 8.0.5) date 2024-11-05 15:37:39*
%MOMM*%
%LPD*%
G01*
G04 APERTURE LIST*
%ADD10C,0.150000*%
%ADD11C,0.153000*%
%ADD12C,0.000000*%
%ADD13C,0.120000*%
G04 APERTURE END LIST*
D10*
X130463220Y-51869819D02*
X130463220Y-50869819D01*
X130463220Y-50869819D02*
X130129887Y-51584104D01*
X130129887Y-51584104D02*
X129796554Y-50869819D01*
X129796554Y-50869819D02*
X129796554Y-51869819D01*
X128891792Y-51869819D02*
X128891792Y-51346009D01*
X128891792Y-51346009D02*
X128939411Y-51250771D01*
X128939411Y-51250771D02*
X129034649Y-51203152D01*
X129034649Y-51203152D02*
X129225125Y-51203152D01*
X129225125Y-51203152D02*
X129320363Y-51250771D01*
X128891792Y-51822200D02*
X128987030Y-51869819D01*
X128987030Y-51869819D02*
X129225125Y-51869819D01*
X129225125Y-51869819D02*
X129320363Y-51822200D01*
X129320363Y-51822200D02*
X129367982Y-51726961D01*
X129367982Y-51726961D02*
X129367982Y-51631723D01*
X129367982Y-51631723D02*
X129320363Y-51536485D01*
X129320363Y-51536485D02*
X129225125Y-51488866D01*
X129225125Y-51488866D02*
X128987030Y-51488866D01*
X128987030Y-51488866D02*
X128891792Y-51441247D01*
X128415601Y-51869819D02*
X128415601Y-51203152D01*
X128415601Y-50869819D02*
X128463220Y-50917438D01*
X128463220Y-50917438D02*
X128415601Y-50965057D01*
X128415601Y-50965057D02*
X128367982Y-50917438D01*
X128367982Y-50917438D02*
X128415601Y-50869819D01*
X128415601Y-50869819D02*
X128415601Y-50965057D01*
X127939411Y-51203152D02*
X127939411Y-51869819D01*
X127939411Y-51298390D02*
X127891792Y-51250771D01*
X127891792Y-51250771D02*
X127796554Y-51203152D01*
X127796554Y-51203152D02*
X127653697Y-51203152D01*
X127653697Y-51203152D02*
X127558459Y-51250771D01*
X127558459Y-51250771D02*
X127510840Y-51346009D01*
X127510840Y-51346009D02*
X127510840Y-51869819D01*
X126463221Y-51774580D02*
X126510840Y-51822200D01*
X126510840Y-51822200D02*
X126653697Y-51869819D01*
X126653697Y-51869819D02*
X126748935Y-51869819D01*
X126748935Y-51869819D02*
X126891792Y-51822200D01*
X126891792Y-51822200D02*
X126987030Y-51726961D01*
X126987030Y-51726961D02*
X127034649Y-51631723D01*
X127034649Y-51631723D02*
X127082268Y-51441247D01*
X127082268Y-51441247D02*
X127082268Y-51298390D01*
X127082268Y-51298390D02*
X127034649Y-51107914D01*
X127034649Y-51107914D02*
X126987030Y-51012676D01*
X126987030Y-51012676D02*
X126891792Y-50917438D01*
X126891792Y-50917438D02*
X126748935Y-50869819D01*
X126748935Y-50869819D02*
X126653697Y-50869819D01*
X126653697Y-50869819D02*
X126510840Y-50917438D01*
X126510840Y-50917438D02*
X126463221Y-50965057D01*
X125891792Y-51869819D02*
X125987030Y-51822200D01*
X125987030Y-51822200D02*
X126034649Y-51774580D01*
X126034649Y-51774580D02*
X126082268Y-51679342D01*
X126082268Y-51679342D02*
X126082268Y-51393628D01*
X126082268Y-51393628D02*
X126034649Y-51298390D01*
X126034649Y-51298390D02*
X125987030Y-51250771D01*
X125987030Y-51250771D02*
X125891792Y-51203152D01*
X125891792Y-51203152D02*
X125748935Y-51203152D01*
X125748935Y-51203152D02*
X125653697Y-51250771D01*
X125653697Y-51250771D02*
X125606078Y-51298390D01*
X125606078Y-51298390D02*
X125558459Y-51393628D01*
X125558459Y-51393628D02*
X125558459Y-51679342D01*
X125558459Y-51679342D02*
X125606078Y-51774580D01*
X125606078Y-51774580D02*
X125653697Y-51822200D01*
X125653697Y-51822200D02*
X125748935Y-51869819D01*
X125748935Y-51869819D02*
X125891792Y-51869819D01*
X125129887Y-51203152D02*
X125129887Y-51869819D01*
X125129887Y-51298390D02*
X125082268Y-51250771D01*
X125082268Y-51250771D02*
X124987030Y-51203152D01*
X124987030Y-51203152D02*
X124844173Y-51203152D01*
X124844173Y-51203152D02*
X124748935Y-51250771D01*
X124748935Y-51250771D02*
X124701316Y-51346009D01*
X124701316Y-51346009D02*
X124701316Y-51869819D01*
X124225125Y-51203152D02*
X124225125Y-51869819D01*
X124225125Y-51298390D02*
X124177506Y-51250771D01*
X124177506Y-51250771D02*
X124082268Y-51203152D01*
X124082268Y-51203152D02*
X123939411Y-51203152D01*
X123939411Y-51203152D02*
X123844173Y-51250771D01*
X123844173Y-51250771D02*
X123796554Y-51346009D01*
X123796554Y-51346009D02*
X123796554Y-51869819D01*
X129363240Y-55946009D02*
X129029907Y-55946009D01*
X128887050Y-56469819D02*
X129363240Y-56469819D01*
X129363240Y-56469819D02*
X129363240Y-55469819D01*
X129363240Y-55469819D02*
X128887050Y-55469819D01*
X128458478Y-55803152D02*
X128458478Y-56469819D01*
X128458478Y-55898390D02*
X128410859Y-55850771D01*
X128410859Y-55850771D02*
X128315621Y-55803152D01*
X128315621Y-55803152D02*
X128172764Y-55803152D01*
X128172764Y-55803152D02*
X128077526Y-55850771D01*
X128077526Y-55850771D02*
X128029907Y-55946009D01*
X128029907Y-55946009D02*
X128029907Y-56469819D01*
X127648954Y-55803152D02*
X127410859Y-56469819D01*
X127410859Y-56469819D02*
X127172764Y-55803152D01*
X126077525Y-56422200D02*
X125934668Y-56469819D01*
X125934668Y-56469819D02*
X125696573Y-56469819D01*
X125696573Y-56469819D02*
X125601335Y-56422200D01*
X125601335Y-56422200D02*
X125553716Y-56374580D01*
X125553716Y-56374580D02*
X125506097Y-56279342D01*
X125506097Y-56279342D02*
X125506097Y-56184104D01*
X125506097Y-56184104D02*
X125553716Y-56088866D01*
X125553716Y-56088866D02*
X125601335Y-56041247D01*
X125601335Y-56041247D02*
X125696573Y-55993628D01*
X125696573Y-55993628D02*
X125887049Y-55946009D01*
X125887049Y-55946009D02*
X125982287Y-55898390D01*
X125982287Y-55898390D02*
X126029906Y-55850771D01*
X126029906Y-55850771D02*
X126077525Y-55755533D01*
X126077525Y-55755533D02*
X126077525Y-55660295D01*
X126077525Y-55660295D02*
X126029906Y-55565057D01*
X126029906Y-55565057D02*
X125982287Y-55517438D01*
X125982287Y-55517438D02*
X125887049Y-55469819D01*
X125887049Y-55469819D02*
X125648954Y-55469819D01*
X125648954Y-55469819D02*
X125506097Y-55517438D01*
X124696573Y-56422200D02*
X124791811Y-56469819D01*
X124791811Y-56469819D02*
X124982287Y-56469819D01*
X124982287Y-56469819D02*
X125077525Y-56422200D01*
X125077525Y-56422200D02*
X125125144Y-56326961D01*
X125125144Y-56326961D02*
X125125144Y-55946009D01*
X125125144Y-55946009D02*
X125077525Y-55850771D01*
X125077525Y-55850771D02*
X124982287Y-55803152D01*
X124982287Y-55803152D02*
X124791811Y-55803152D01*
X124791811Y-55803152D02*
X124696573Y-55850771D01*
X124696573Y-55850771D02*
X124648954Y-55946009D01*
X124648954Y-55946009D02*
X124648954Y-56041247D01*
X124648954Y-56041247D02*
X125125144Y-56136485D01*
X124220382Y-55803152D02*
X124220382Y-56469819D01*
X124220382Y-55898390D02*
X124172763Y-55850771D01*
X124172763Y-55850771D02*
X124077525Y-55803152D01*
X124077525Y-55803152D02*
X123934668Y-55803152D01*
X123934668Y-55803152D02*
X123839430Y-55850771D01*
X123839430Y-55850771D02*
X123791811Y-55946009D01*
X123791811Y-55946009D02*
X123791811Y-56469819D01*
X123363239Y-56422200D02*
X123268001Y-56469819D01*
X123268001Y-56469819D02*
X123077525Y-56469819D01*
X123077525Y-56469819D02*
X122982287Y-56422200D01*
X122982287Y-56422200D02*
X122934668Y-56326961D01*
X122934668Y-56326961D02*
X122934668Y-56279342D01*
X122934668Y-56279342D02*
X122982287Y-56184104D01*
X122982287Y-56184104D02*
X123077525Y-56136485D01*
X123077525Y-56136485D02*
X123220382Y-56136485D01*
X123220382Y-56136485D02*
X123315620Y-56088866D01*
X123315620Y-56088866D02*
X123363239Y-55993628D01*
X123363239Y-55993628D02*
X123363239Y-55946009D01*
X123363239Y-55946009D02*
X123315620Y-55850771D01*
X123315620Y-55850771D02*
X123220382Y-55803152D01*
X123220382Y-55803152D02*
X123077525Y-55803152D01*
X123077525Y-55803152D02*
X122982287Y-55850771D01*
X122363239Y-56469819D02*
X122458477Y-56422200D01*
X122458477Y-56422200D02*
X122506096Y-56374580D01*
X122506096Y-56374580D02*
X122553715Y-56279342D01*
X122553715Y-56279342D02*
X122553715Y-55993628D01*
X122553715Y-55993628D02*
X122506096Y-55898390D01*
X122506096Y-55898390D02*
X122458477Y-55850771D01*
X122458477Y-55850771D02*
X122363239Y-55803152D01*
X122363239Y-55803152D02*
X122220382Y-55803152D01*
X122220382Y-55803152D02*
X122125144Y-55850771D01*
X122125144Y-55850771D02*
X122077525Y-55898390D01*
X122077525Y-55898390D02*
X122029906Y-55993628D01*
X122029906Y-55993628D02*
X122029906Y-56279342D01*
X122029906Y-56279342D02*
X122077525Y-56374580D01*
X122077525Y-56374580D02*
X122125144Y-56422200D01*
X122125144Y-56422200D02*
X122220382Y-56469819D01*
X122220382Y-56469819D02*
X122363239Y-56469819D01*
X121601334Y-56469819D02*
X121601334Y-55803152D01*
X121601334Y-55993628D02*
X121553715Y-55898390D01*
X121553715Y-55898390D02*
X121506096Y-55850771D01*
X121506096Y-55850771D02*
X121410858Y-55803152D01*
X121410858Y-55803152D02*
X121315620Y-55803152D01*
X119887048Y-55946009D02*
X119744191Y-55993628D01*
X119744191Y-55993628D02*
X119696572Y-56041247D01*
X119696572Y-56041247D02*
X119648953Y-56136485D01*
X119648953Y-56136485D02*
X119648953Y-56279342D01*
X119648953Y-56279342D02*
X119696572Y-56374580D01*
X119696572Y-56374580D02*
X119744191Y-56422200D01*
X119744191Y-56422200D02*
X119839429Y-56469819D01*
X119839429Y-56469819D02*
X120220381Y-56469819D01*
X120220381Y-56469819D02*
X120220381Y-55469819D01*
X120220381Y-55469819D02*
X119887048Y-55469819D01*
X119887048Y-55469819D02*
X119791810Y-55517438D01*
X119791810Y-55517438D02*
X119744191Y-55565057D01*
X119744191Y-55565057D02*
X119696572Y-55660295D01*
X119696572Y-55660295D02*
X119696572Y-55755533D01*
X119696572Y-55755533D02*
X119744191Y-55850771D01*
X119744191Y-55850771D02*
X119791810Y-55898390D01*
X119791810Y-55898390D02*
X119887048Y-55946009D01*
X119887048Y-55946009D02*
X120220381Y-55946009D01*
X119220381Y-56469819D02*
X119220381Y-55803152D01*
X119220381Y-55993628D02*
X119172762Y-55898390D01*
X119172762Y-55898390D02*
X119125143Y-55850771D01*
X119125143Y-55850771D02*
X119029905Y-55803152D01*
X119029905Y-55803152D02*
X118934667Y-55803152D01*
X118220381Y-56422200D02*
X118315619Y-56469819D01*
X118315619Y-56469819D02*
X118506095Y-56469819D01*
X118506095Y-56469819D02*
X118601333Y-56422200D01*
X118601333Y-56422200D02*
X118648952Y-56326961D01*
X118648952Y-56326961D02*
X118648952Y-55946009D01*
X118648952Y-55946009D02*
X118601333Y-55850771D01*
X118601333Y-55850771D02*
X118506095Y-55803152D01*
X118506095Y-55803152D02*
X118315619Y-55803152D01*
X118315619Y-55803152D02*
X118220381Y-55850771D01*
X118220381Y-55850771D02*
X118172762Y-55946009D01*
X118172762Y-55946009D02*
X118172762Y-56041247D01*
X118172762Y-56041247D02*
X118648952Y-56136485D01*
X117315619Y-56469819D02*
X117315619Y-55946009D01*
X117315619Y-55946009D02*
X117363238Y-55850771D01*
X117363238Y-55850771D02*
X117458476Y-55803152D01*
X117458476Y-55803152D02*
X117648952Y-55803152D01*
X117648952Y-55803152D02*
X117744190Y-55850771D01*
X117315619Y-56422200D02*
X117410857Y-56469819D01*
X117410857Y-56469819D02*
X117648952Y-56469819D01*
X117648952Y-56469819D02*
X117744190Y-56422200D01*
X117744190Y-56422200D02*
X117791809Y-56326961D01*
X117791809Y-56326961D02*
X117791809Y-56231723D01*
X117791809Y-56231723D02*
X117744190Y-56136485D01*
X117744190Y-56136485D02*
X117648952Y-56088866D01*
X117648952Y-56088866D02*
X117410857Y-56088866D01*
X117410857Y-56088866D02*
X117315619Y-56041247D01*
X116839428Y-56469819D02*
X116839428Y-55469819D01*
X116744190Y-56088866D02*
X116458476Y-56469819D01*
X116458476Y-55803152D02*
X116839428Y-56184104D01*
X115887047Y-56469819D02*
X115982285Y-56422200D01*
X115982285Y-56422200D02*
X116029904Y-56374580D01*
X116029904Y-56374580D02*
X116077523Y-56279342D01*
X116077523Y-56279342D02*
X116077523Y-55993628D01*
X116077523Y-55993628D02*
X116029904Y-55898390D01*
X116029904Y-55898390D02*
X115982285Y-55850771D01*
X115982285Y-55850771D02*
X115887047Y-55803152D01*
X115887047Y-55803152D02*
X115744190Y-55803152D01*
X115744190Y-55803152D02*
X115648952Y-55850771D01*
X115648952Y-55850771D02*
X115601333Y-55898390D01*
X115601333Y-55898390D02*
X115553714Y-55993628D01*
X115553714Y-55993628D02*
X115553714Y-56279342D01*
X115553714Y-56279342D02*
X115601333Y-56374580D01*
X115601333Y-56374580D02*
X115648952Y-56422200D01*
X115648952Y-56422200D02*
X115744190Y-56469819D01*
X115744190Y-56469819D02*
X115887047Y-56469819D01*
X114696571Y-55803152D02*
X114696571Y-56469819D01*
X115125142Y-55803152D02*
X115125142Y-56326961D01*
X115125142Y-56326961D02*
X115077523Y-56422200D01*
X115077523Y-56422200D02*
X114982285Y-56469819D01*
X114982285Y-56469819D02*
X114839428Y-56469819D01*
X114839428Y-56469819D02*
X114744190Y-56422200D01*
X114744190Y-56422200D02*
X114696571Y-56374580D01*
X114363237Y-55803152D02*
X113982285Y-55803152D01*
X114220380Y-55469819D02*
X114220380Y-56326961D01*
X114220380Y-56326961D02*
X114172761Y-56422200D01*
X114172761Y-56422200D02*
X114077523Y-56469819D01*
X114077523Y-56469819D02*
X113982285Y-56469819D01*
D11*
G36*
X115427604Y-49693163D02*
G01*
X115278422Y-49693163D01*
X115164476Y-49655181D01*
X115090787Y-49581491D01*
X115052474Y-49504865D01*
X115009176Y-49331673D01*
X115009176Y-49207652D01*
X115052474Y-49034460D01*
X115090786Y-48957836D01*
X115164477Y-48884144D01*
X115278422Y-48846163D01*
X115427604Y-48846163D01*
X115427604Y-49693163D01*
G37*
G36*
X116427604Y-49693163D02*
G01*
X116278422Y-49693163D01*
X116164476Y-49655181D01*
X116090787Y-49581491D01*
X116052474Y-49504865D01*
X116009176Y-49331673D01*
X116009176Y-49207652D01*
X116052474Y-49034460D01*
X116090786Y-48957836D01*
X116164477Y-48884144D01*
X116278422Y-48846163D01*
X116427604Y-48846163D01*
X116427604Y-49693163D01*
G37*
G36*
X114445585Y-49407448D02*
G01*
X114181671Y-49407448D01*
X114313628Y-49011576D01*
X114445585Y-49407448D01*
G37*
G36*
X117691114Y-49957274D02*
G01*
X113793285Y-49957274D01*
X113793285Y-49760095D01*
X113904396Y-49760095D01*
X113906512Y-49789869D01*
X113919861Y-49816566D01*
X113942410Y-49836123D01*
X113970727Y-49845562D01*
X114000501Y-49843446D01*
X114027198Y-49830097D01*
X114046755Y-49807548D01*
X114052869Y-49793854D01*
X114130671Y-49560448D01*
X114496585Y-49560448D01*
X114574387Y-49793854D01*
X114580501Y-49807547D01*
X114600058Y-49830097D01*
X114626755Y-49843445D01*
X114656529Y-49845562D01*
X114684846Y-49836123D01*
X114707395Y-49816565D01*
X114720744Y-49789868D01*
X114722860Y-49760094D01*
X114719535Y-49745471D01*
X114537123Y-49198234D01*
X114856176Y-49198234D01*
X114856176Y-49341091D01*
X114856432Y-49343696D01*
X114856267Y-49344810D01*
X114857092Y-49350391D01*
X114857646Y-49356015D01*
X114858077Y-49357056D01*
X114858460Y-49359645D01*
X114906079Y-49550121D01*
X114906472Y-49551223D01*
X114906512Y-49551773D01*
X114908890Y-49557988D01*
X114911125Y-49564243D01*
X114911452Y-49564684D01*
X114911871Y-49565779D01*
X114959490Y-49661017D01*
X114963535Y-49667443D01*
X114964307Y-49669306D01*
X114966028Y-49671403D01*
X114967479Y-49673708D01*
X114969007Y-49675033D01*
X114973820Y-49680898D01*
X115069058Y-49776138D01*
X115080651Y-49785651D01*
X115083190Y-49786702D01*
X115085267Y-49788504D01*
X115098961Y-49794618D01*
X115241817Y-49842237D01*
X115249219Y-49843920D01*
X115251085Y-49844693D01*
X115253790Y-49844959D01*
X115256440Y-49845562D01*
X115258454Y-49845418D01*
X115266009Y-49846163D01*
X115504104Y-49846163D01*
X115519028Y-49844693D01*
X115546605Y-49833270D01*
X115567711Y-49812164D01*
X115579134Y-49784587D01*
X115580604Y-49769663D01*
X115580604Y-49198234D01*
X115856176Y-49198234D01*
X115856176Y-49341091D01*
X115856432Y-49343696D01*
X115856267Y-49344810D01*
X115857092Y-49350391D01*
X115857646Y-49356015D01*
X115858077Y-49357056D01*
X115858460Y-49359645D01*
X115906079Y-49550121D01*
X115906472Y-49551223D01*
X115906512Y-49551773D01*
X115908890Y-49557988D01*
X115911125Y-49564243D01*
X115911452Y-49564684D01*
X115911871Y-49565779D01*
X115959490Y-49661017D01*
X115963535Y-49667443D01*
X115964307Y-49669306D01*
X115966028Y-49671403D01*
X115967479Y-49673708D01*
X115969007Y-49675033D01*
X115973820Y-49680898D01*
X116069058Y-49776138D01*
X116080651Y-49785651D01*
X116083190Y-49786702D01*
X116085267Y-49788504D01*
X116098961Y-49794618D01*
X116241817Y-49842237D01*
X116249219Y-49843920D01*
X116251085Y-49844693D01*
X116253790Y-49844959D01*
X116256440Y-49845562D01*
X116258454Y-49845418D01*
X116266009Y-49846163D01*
X116504104Y-49846163D01*
X116519028Y-49844693D01*
X116546605Y-49833270D01*
X116567711Y-49812164D01*
X116579134Y-49784587D01*
X116580604Y-49769663D01*
X116580604Y-48779231D01*
X116761539Y-48779231D01*
X116764864Y-48793854D01*
X117098197Y-49793854D01*
X117104311Y-49807547D01*
X117107891Y-49811675D01*
X117110337Y-49816566D01*
X117117584Y-49822851D01*
X117123868Y-49830097D01*
X117128755Y-49832540D01*
X117132886Y-49836123D01*
X117141990Y-49839157D01*
X117150565Y-49843445D01*
X117156014Y-49843832D01*
X117161203Y-49845562D01*
X117170773Y-49844881D01*
X117180339Y-49845562D01*
X117185524Y-49843833D01*
X117190977Y-49843446D01*
X117199556Y-49839156D01*
X117208656Y-49836123D01*
X117212785Y-49832541D01*
X117217674Y-49830097D01*
X117223961Y-49822848D01*
X117231205Y-49816565D01*
X117233648Y-49811679D01*
X117237231Y-49807548D01*
X117243345Y-49793854D01*
X117576678Y-48793855D01*
X117580003Y-48779232D01*
X117577887Y-48749458D01*
X117564538Y-48722761D01*
X117541989Y-48703203D01*
X117513672Y-48693764D01*
X117483898Y-48695881D01*
X117457201Y-48709229D01*
X117437644Y-48731779D01*
X117431530Y-48745472D01*
X117170771Y-49527749D01*
X116910012Y-48745472D01*
X116903898Y-48731778D01*
X116884341Y-48709229D01*
X116857644Y-48695880D01*
X116827870Y-48693764D01*
X116799553Y-48703203D01*
X116777004Y-48722760D01*
X116763655Y-48749457D01*
X116761539Y-48779231D01*
X116580604Y-48779231D01*
X116580604Y-48769663D01*
X116579134Y-48754739D01*
X116567711Y-48727162D01*
X116546605Y-48706056D01*
X116519028Y-48694633D01*
X116504104Y-48693163D01*
X116266009Y-48693163D01*
X116258454Y-48693907D01*
X116256440Y-48693764D01*
X116253790Y-48694366D01*
X116251085Y-48694633D01*
X116249219Y-48695405D01*
X116241817Y-48697089D01*
X116098961Y-48744708D01*
X116085267Y-48750822D01*
X116083190Y-48752623D01*
X116080651Y-48753675D01*
X116069058Y-48763188D01*
X115973820Y-48858426D01*
X115969005Y-48864292D01*
X115967479Y-48865617D01*
X115966028Y-48867920D01*
X115964307Y-48870019D01*
X115963535Y-48871881D01*
X115959490Y-48878308D01*
X115911871Y-48973546D01*
X115911452Y-48974640D01*
X115911125Y-48975082D01*
X115908890Y-48981336D01*
X115906512Y-48987552D01*
X115906472Y-48988101D01*
X115906079Y-48989204D01*
X115858460Y-49179680D01*
X115858077Y-49182268D01*
X115857646Y-49183310D01*
X115857092Y-49188933D01*
X115856267Y-49194515D01*
X115856432Y-49195628D01*
X115856176Y-49198234D01*
X115580604Y-49198234D01*
X115580604Y-48769663D01*
X115579134Y-48754739D01*
X115567711Y-48727162D01*
X115546605Y-48706056D01*
X115519028Y-48694633D01*
X115504104Y-48693163D01*
X115266009Y-48693163D01*
X115258454Y-48693907D01*
X115256440Y-48693764D01*
X115253790Y-48694366D01*
X115251085Y-48694633D01*
X115249219Y-48695405D01*
X115241817Y-48697089D01*
X115098961Y-48744708D01*
X115085267Y-48750822D01*
X115083190Y-48752623D01*
X115080651Y-48753675D01*
X115069058Y-48763188D01*
X114973820Y-48858426D01*
X114969005Y-48864292D01*
X114967479Y-48865617D01*
X114966028Y-48867920D01*
X114964307Y-48870019D01*
X114963535Y-48871881D01*
X114959490Y-48878308D01*
X114911871Y-48973546D01*
X114911452Y-48974640D01*
X114911125Y-48975082D01*
X114908890Y-48981336D01*
X114906512Y-48987552D01*
X114906472Y-48988101D01*
X114906079Y-48989204D01*
X114858460Y-49179680D01*
X114858077Y-49182268D01*
X114857646Y-49183310D01*
X114857092Y-49188933D01*
X114856267Y-49194515D01*
X114856432Y-49195628D01*
X114856176Y-49198234D01*
X114537123Y-49198234D01*
X114386202Y-48745472D01*
X114380088Y-48731778D01*
X114376505Y-48727646D01*
X114374062Y-48722761D01*
X114366818Y-48716477D01*
X114360531Y-48709229D01*
X114355642Y-48706784D01*
X114351513Y-48703203D01*
X114342413Y-48700169D01*
X114333834Y-48695880D01*
X114328381Y-48695492D01*
X114323196Y-48693764D01*
X114313630Y-48694444D01*
X114304060Y-48693764D01*
X114298871Y-48695493D01*
X114293422Y-48695881D01*
X114284847Y-48700168D01*
X114275743Y-48703203D01*
X114271612Y-48706785D01*
X114266725Y-48709229D01*
X114260441Y-48716474D01*
X114253194Y-48722760D01*
X114250748Y-48727650D01*
X114247168Y-48731779D01*
X114241054Y-48745472D01*
X113907721Y-49745472D01*
X113904396Y-49760095D01*
X113793285Y-49760095D01*
X113793285Y-48582052D01*
X117691114Y-48582052D01*
X117691114Y-49957274D01*
G37*
G36*
X116542626Y-37657274D02*
G01*
X113169476Y-37657274D01*
X113169476Y-36479231D01*
X113280587Y-36479231D01*
X113283912Y-36493854D01*
X113617245Y-37493854D01*
X113623359Y-37507547D01*
X113626939Y-37511675D01*
X113629385Y-37516566D01*
X113636632Y-37522851D01*
X113642916Y-37530097D01*
X113647803Y-37532540D01*
X113651934Y-37536123D01*
X113661038Y-37539157D01*
X113669613Y-37543445D01*
X113675062Y-37543832D01*
X113680251Y-37545562D01*
X113689821Y-37544881D01*
X113699387Y-37545562D01*
X113704572Y-37543833D01*
X113710025Y-37543446D01*
X113718604Y-37539156D01*
X113727704Y-37536123D01*
X113731833Y-37532541D01*
X113736722Y-37530097D01*
X113743009Y-37522848D01*
X113750253Y-37516565D01*
X113752696Y-37511679D01*
X113756279Y-37507548D01*
X113762393Y-37493854D01*
X113913314Y-37041091D01*
X114232367Y-37041091D01*
X114232367Y-37279186D01*
X114233837Y-37294110D01*
X114234889Y-37296650D01*
X114235084Y-37299392D01*
X114240443Y-37313398D01*
X114288062Y-37408636D01*
X114292104Y-37415058D01*
X114292878Y-37416925D01*
X114294602Y-37419026D01*
X114296051Y-37421327D01*
X114297577Y-37422650D01*
X114302392Y-37428517D01*
X114350011Y-37476137D01*
X114355877Y-37480952D01*
X114357202Y-37482479D01*
X114359503Y-37483927D01*
X114361603Y-37485651D01*
X114363468Y-37486423D01*
X114369893Y-37490468D01*
X114465131Y-37538087D01*
X114479137Y-37543446D01*
X114481878Y-37543640D01*
X114484419Y-37544693D01*
X114499343Y-37546163D01*
X114785057Y-37546163D01*
X114799981Y-37544693D01*
X114802521Y-37543640D01*
X114805263Y-37543446D01*
X114819269Y-37538087D01*
X114914507Y-37490468D01*
X114920931Y-37486423D01*
X114922797Y-37485651D01*
X114924896Y-37483927D01*
X114927198Y-37482479D01*
X114928522Y-37480952D01*
X114934389Y-37476137D01*
X114982008Y-37428517D01*
X114991521Y-37416925D01*
X114995582Y-37407121D01*
X115186217Y-37407121D01*
X115186217Y-37436969D01*
X115197640Y-37464546D01*
X115197644Y-37464550D01*
X115207153Y-37476138D01*
X115254772Y-37523756D01*
X115266364Y-37533270D01*
X115277787Y-37538001D01*
X115293942Y-37544693D01*
X115323790Y-37544693D01*
X115351367Y-37533270D01*
X115362960Y-37523757D01*
X115410578Y-37476138D01*
X115420092Y-37464546D01*
X115431514Y-37436969D01*
X115431514Y-37427161D01*
X115431515Y-37407120D01*
X115420092Y-37379543D01*
X115410579Y-37367951D01*
X115362960Y-37320331D01*
X115351368Y-37310817D01*
X115323791Y-37299394D01*
X115323790Y-37299394D01*
X115293942Y-37299394D01*
X115285865Y-37302739D01*
X115266365Y-37310816D01*
X115266364Y-37310817D01*
X115254772Y-37320331D01*
X115207153Y-37367951D01*
X115197639Y-37379543D01*
X115186217Y-37407121D01*
X114995582Y-37407121D01*
X115002944Y-37389348D01*
X115002943Y-37359499D01*
X114991521Y-37331922D01*
X114970415Y-37310817D01*
X114942837Y-37299394D01*
X114912989Y-37299395D01*
X114885412Y-37310817D01*
X114873820Y-37320331D01*
X114834980Y-37359171D01*
X114766997Y-37393163D01*
X114517403Y-37393163D01*
X114449419Y-37359171D01*
X114419359Y-37329110D01*
X114385367Y-37261126D01*
X114385367Y-37059151D01*
X114394397Y-37041091D01*
X115660938Y-37041091D01*
X115660938Y-37279186D01*
X115662408Y-37294110D01*
X115663460Y-37296650D01*
X115663655Y-37299392D01*
X115669014Y-37313398D01*
X115716633Y-37408636D01*
X115720675Y-37415058D01*
X115721449Y-37416925D01*
X115723173Y-37419026D01*
X115724622Y-37421327D01*
X115726148Y-37422650D01*
X115730963Y-37428517D01*
X115778582Y-37476137D01*
X115784448Y-37480952D01*
X115785773Y-37482479D01*
X115788074Y-37483927D01*
X115790174Y-37485651D01*
X115792039Y-37486423D01*
X115798464Y-37490468D01*
X115893702Y-37538087D01*
X115907708Y-37543446D01*
X115910449Y-37543640D01*
X115912990Y-37544693D01*
X115927914Y-37546163D01*
X116213628Y-37546163D01*
X116228552Y-37544693D01*
X116231092Y-37543640D01*
X116233834Y-37543446D01*
X116247840Y-37538087D01*
X116343078Y-37490468D01*
X116349502Y-37486423D01*
X116351368Y-37485651D01*
X116353467Y-37483927D01*
X116355769Y-37482479D01*
X116357093Y-37480952D01*
X116362960Y-37476137D01*
X116410579Y-37428517D01*
X116420092Y-37416925D01*
X116431515Y-37389348D01*
X116431514Y-37359499D01*
X116420092Y-37331922D01*
X116398986Y-37310817D01*
X116371408Y-37299394D01*
X116341560Y-37299395D01*
X116313983Y-37310817D01*
X116302391Y-37320331D01*
X116263551Y-37359171D01*
X116195568Y-37393163D01*
X115945974Y-37393163D01*
X115877990Y-37359171D01*
X115847930Y-37329110D01*
X115813938Y-37261126D01*
X115813938Y-37059151D01*
X115847929Y-36991168D01*
X115877990Y-36961106D01*
X115945974Y-36927115D01*
X116070771Y-36927115D01*
X116078665Y-36926337D01*
X116080671Y-36926471D01*
X116082052Y-36926003D01*
X116085695Y-36925645D01*
X116097180Y-36920887D01*
X116108947Y-36916908D01*
X116110888Y-36915209D01*
X116113272Y-36914222D01*
X116122058Y-36905435D01*
X116131410Y-36897253D01*
X116132553Y-36894940D01*
X116134378Y-36893116D01*
X116139133Y-36881636D01*
X116144642Y-36870497D01*
X116144813Y-36867922D01*
X116145801Y-36865539D01*
X116145801Y-36853107D01*
X116146627Y-36840715D01*
X116145801Y-36838272D01*
X116145801Y-36835691D01*
X116141043Y-36824205D01*
X116137064Y-36812439D01*
X116134936Y-36809463D01*
X116134378Y-36808114D01*
X116132955Y-36806691D01*
X116128343Y-36800239D01*
X115906027Y-36546163D01*
X116356485Y-36546163D01*
X116371409Y-36544693D01*
X116398986Y-36533270D01*
X116420092Y-36512164D01*
X116431515Y-36484587D01*
X116431515Y-36454739D01*
X116420092Y-36427162D01*
X116398986Y-36406056D01*
X116371409Y-36394633D01*
X116356485Y-36393163D01*
X115737438Y-36393163D01*
X115729543Y-36393940D01*
X115727538Y-36393807D01*
X115726156Y-36394274D01*
X115722514Y-36394633D01*
X115711028Y-36399390D01*
X115699262Y-36403370D01*
X115697320Y-36405068D01*
X115694937Y-36406056D01*
X115686150Y-36414842D01*
X115676799Y-36423025D01*
X115675655Y-36425337D01*
X115673831Y-36427162D01*
X115669075Y-36438641D01*
X115663567Y-36449781D01*
X115663395Y-36452355D01*
X115662408Y-36454739D01*
X115662408Y-36467170D01*
X115661582Y-36479563D01*
X115662408Y-36482005D01*
X115662408Y-36484587D01*
X115667165Y-36496072D01*
X115671145Y-36507839D01*
X115673272Y-36510814D01*
X115673831Y-36512164D01*
X115675253Y-36513586D01*
X115679866Y-36520039D01*
X115905349Y-36777734D01*
X115893702Y-36782191D01*
X115798464Y-36829810D01*
X115792039Y-36833854D01*
X115790174Y-36834627D01*
X115788074Y-36836350D01*
X115785773Y-36837799D01*
X115784448Y-36839325D01*
X115778582Y-36844141D01*
X115730963Y-36891759D01*
X115726148Y-36897625D01*
X115724622Y-36898950D01*
X115723171Y-36901253D01*
X115721450Y-36903352D01*
X115720678Y-36905214D01*
X115716633Y-36911641D01*
X115669014Y-37006879D01*
X115663655Y-37020885D01*
X115663460Y-37023626D01*
X115662408Y-37026167D01*
X115660938Y-37041091D01*
X114394397Y-37041091D01*
X114419358Y-36991168D01*
X114449419Y-36961106D01*
X114517403Y-36927115D01*
X114642200Y-36927115D01*
X114650094Y-36926337D01*
X114652100Y-36926471D01*
X114653481Y-36926003D01*
X114657124Y-36925645D01*
X114668609Y-36920887D01*
X114680376Y-36916908D01*
X114682317Y-36915209D01*
X114684701Y-36914222D01*
X114693487Y-36905435D01*
X114702839Y-36897253D01*
X114703982Y-36894940D01*
X114705807Y-36893116D01*
X114710562Y-36881636D01*
X114716071Y-36870497D01*
X114716242Y-36867922D01*
X114717230Y-36865539D01*
X114717230Y-36853107D01*
X114718056Y-36840715D01*
X114717230Y-36838272D01*
X114717230Y-36835691D01*
X114712472Y-36824205D01*
X114708493Y-36812439D01*
X114706365Y-36809463D01*
X114705807Y-36808114D01*
X114704384Y-36806691D01*
X114699772Y-36800239D01*
X114477456Y-36546163D01*
X114927914Y-36546163D01*
X114942838Y-36544693D01*
X114970415Y-36533270D01*
X114991521Y-36512164D01*
X115002944Y-36484587D01*
X115002944Y-36454739D01*
X114991521Y-36427162D01*
X114970415Y-36406056D01*
X114942838Y-36394633D01*
X114927914Y-36393163D01*
X114308867Y-36393163D01*
X114300972Y-36393940D01*
X114298967Y-36393807D01*
X114297585Y-36394274D01*
X114293943Y-36394633D01*
X114282457Y-36399390D01*
X114270691Y-36403370D01*
X114268749Y-36405068D01*
X114266366Y-36406056D01*
X114257579Y-36414842D01*
X114248228Y-36423025D01*
X114247084Y-36425337D01*
X114245260Y-36427162D01*
X114240504Y-36438641D01*
X114234996Y-36449781D01*
X114234824Y-36452355D01*
X114233837Y-36454739D01*
X114233837Y-36467170D01*
X114233011Y-36479563D01*
X114233837Y-36482005D01*
X114233837Y-36484587D01*
X114238594Y-36496072D01*
X114242574Y-36507839D01*
X114244701Y-36510814D01*
X114245260Y-36512164D01*
X114246682Y-36513586D01*
X114251295Y-36520039D01*
X114476778Y-36777734D01*
X114465131Y-36782191D01*
X114369893Y-36829810D01*
X114363468Y-36833854D01*
X114361603Y-36834627D01*
X114359503Y-36836350D01*
X114357202Y-36837799D01*
X114355877Y-36839325D01*
X114350011Y-36844141D01*
X114302392Y-36891759D01*
X114297577Y-36897625D01*
X114296051Y-36898950D01*
X114294600Y-36901253D01*
X114292879Y-36903352D01*
X114292107Y-36905214D01*
X114288062Y-36911641D01*
X114240443Y-37006879D01*
X114235084Y-37020885D01*
X114234889Y-37023626D01*
X114233837Y-37026167D01*
X114232367Y-37041091D01*
X113913314Y-37041091D01*
X114095726Y-36493855D01*
X114099051Y-36479232D01*
X114096935Y-36449458D01*
X114083586Y-36422761D01*
X114061037Y-36403203D01*
X114032720Y-36393764D01*
X114002946Y-36395881D01*
X113976249Y-36409229D01*
X113956692Y-36431779D01*
X113950578Y-36445472D01*
X113689819Y-37227749D01*
X113429060Y-36445472D01*
X113422946Y-36431778D01*
X113403389Y-36409229D01*
X113376692Y-36395880D01*
X113346918Y-36393764D01*
X113318601Y-36403203D01*
X113296052Y-36422760D01*
X113282703Y-36449457D01*
X113280587Y-36479231D01*
X113169476Y-36479231D01*
X113169476Y-36282052D01*
X116542626Y-36282052D01*
X116542626Y-37657274D01*
G37*
D10*
X124491792Y-32069819D02*
X124825125Y-31593628D01*
X125063220Y-32069819D02*
X125063220Y-31069819D01*
X125063220Y-31069819D02*
X124682268Y-31069819D01*
X124682268Y-31069819D02*
X124587030Y-31117438D01*
X124587030Y-31117438D02*
X124539411Y-31165057D01*
X124539411Y-31165057D02*
X124491792Y-31260295D01*
X124491792Y-31260295D02*
X124491792Y-31403152D01*
X124491792Y-31403152D02*
X124539411Y-31498390D01*
X124539411Y-31498390D02*
X124587030Y-31546009D01*
X124587030Y-31546009D02*
X124682268Y-31593628D01*
X124682268Y-31593628D02*
X125063220Y-31593628D01*
X123634649Y-32069819D02*
X123634649Y-31546009D01*
X123634649Y-31546009D02*
X123682268Y-31450771D01*
X123682268Y-31450771D02*
X123777506Y-31403152D01*
X123777506Y-31403152D02*
X123967982Y-31403152D01*
X123967982Y-31403152D02*
X124063220Y-31450771D01*
X123634649Y-32022200D02*
X123729887Y-32069819D01*
X123729887Y-32069819D02*
X123967982Y-32069819D01*
X123967982Y-32069819D02*
X124063220Y-32022200D01*
X124063220Y-32022200D02*
X124110839Y-31926961D01*
X124110839Y-31926961D02*
X124110839Y-31831723D01*
X124110839Y-31831723D02*
X124063220Y-31736485D01*
X124063220Y-31736485D02*
X123967982Y-31688866D01*
X123967982Y-31688866D02*
X123729887Y-31688866D01*
X123729887Y-31688866D02*
X123634649Y-31641247D01*
X123253696Y-31403152D02*
X123015601Y-32069819D01*
X123015601Y-32069819D02*
X122777506Y-31403152D01*
X122396553Y-32069819D02*
X122396553Y-31403152D01*
X122396553Y-31069819D02*
X122444172Y-31117438D01*
X122444172Y-31117438D02*
X122396553Y-31165057D01*
X122396553Y-31165057D02*
X122348934Y-31117438D01*
X122348934Y-31117438D02*
X122396553Y-31069819D01*
X122396553Y-31069819D02*
X122396553Y-31165057D01*
X121206077Y-32022200D02*
X121063220Y-32069819D01*
X121063220Y-32069819D02*
X120825125Y-32069819D01*
X120825125Y-32069819D02*
X120729887Y-32022200D01*
X120729887Y-32022200D02*
X120682268Y-31974580D01*
X120682268Y-31974580D02*
X120634649Y-31879342D01*
X120634649Y-31879342D02*
X120634649Y-31784104D01*
X120634649Y-31784104D02*
X120682268Y-31688866D01*
X120682268Y-31688866D02*
X120729887Y-31641247D01*
X120729887Y-31641247D02*
X120825125Y-31593628D01*
X120825125Y-31593628D02*
X121015601Y-31546009D01*
X121015601Y-31546009D02*
X121110839Y-31498390D01*
X121110839Y-31498390D02*
X121158458Y-31450771D01*
X121158458Y-31450771D02*
X121206077Y-31355533D01*
X121206077Y-31355533D02*
X121206077Y-31260295D01*
X121206077Y-31260295D02*
X121158458Y-31165057D01*
X121158458Y-31165057D02*
X121110839Y-31117438D01*
X121110839Y-31117438D02*
X121015601Y-31069819D01*
X121015601Y-31069819D02*
X120777506Y-31069819D01*
X120777506Y-31069819D02*
X120634649Y-31117438D01*
X120206077Y-32069819D02*
X120206077Y-31069819D01*
X119777506Y-32069819D02*
X119777506Y-31546009D01*
X119777506Y-31546009D02*
X119825125Y-31450771D01*
X119825125Y-31450771D02*
X119920363Y-31403152D01*
X119920363Y-31403152D02*
X120063220Y-31403152D01*
X120063220Y-31403152D02*
X120158458Y-31450771D01*
X120158458Y-31450771D02*
X120206077Y-31498390D01*
X118872744Y-32069819D02*
X118872744Y-31546009D01*
X118872744Y-31546009D02*
X118920363Y-31450771D01*
X118920363Y-31450771D02*
X119015601Y-31403152D01*
X119015601Y-31403152D02*
X119206077Y-31403152D01*
X119206077Y-31403152D02*
X119301315Y-31450771D01*
X118872744Y-32022200D02*
X118967982Y-32069819D01*
X118967982Y-32069819D02*
X119206077Y-32069819D01*
X119206077Y-32069819D02*
X119301315Y-32022200D01*
X119301315Y-32022200D02*
X119348934Y-31926961D01*
X119348934Y-31926961D02*
X119348934Y-31831723D01*
X119348934Y-31831723D02*
X119301315Y-31736485D01*
X119301315Y-31736485D02*
X119206077Y-31688866D01*
X119206077Y-31688866D02*
X118967982Y-31688866D01*
X118967982Y-31688866D02*
X118872744Y-31641247D01*
X118396553Y-32069819D02*
X118396553Y-31069819D01*
X117967982Y-32069819D02*
X117967982Y-31546009D01*
X117967982Y-31546009D02*
X118015601Y-31450771D01*
X118015601Y-31450771D02*
X118110839Y-31403152D01*
X118110839Y-31403152D02*
X118253696Y-31403152D01*
X118253696Y-31403152D02*
X118348934Y-31450771D01*
X118348934Y-31450771D02*
X118396553Y-31498390D01*
X116777505Y-31165057D02*
X116729886Y-31117438D01*
X116729886Y-31117438D02*
X116634648Y-31069819D01*
X116634648Y-31069819D02*
X116396553Y-31069819D01*
X116396553Y-31069819D02*
X116301315Y-31117438D01*
X116301315Y-31117438D02*
X116253696Y-31165057D01*
X116253696Y-31165057D02*
X116206077Y-31260295D01*
X116206077Y-31260295D02*
X116206077Y-31355533D01*
X116206077Y-31355533D02*
X116253696Y-31498390D01*
X116253696Y-31498390D02*
X116825124Y-32069819D01*
X116825124Y-32069819D02*
X116206077Y-32069819D01*
X115587029Y-31069819D02*
X115491791Y-31069819D01*
X115491791Y-31069819D02*
X115396553Y-31117438D01*
X115396553Y-31117438D02*
X115348934Y-31165057D01*
X115348934Y-31165057D02*
X115301315Y-31260295D01*
X115301315Y-31260295D02*
X115253696Y-31450771D01*
X115253696Y-31450771D02*
X115253696Y-31688866D01*
X115253696Y-31688866D02*
X115301315Y-31879342D01*
X115301315Y-31879342D02*
X115348934Y-31974580D01*
X115348934Y-31974580D02*
X115396553Y-32022200D01*
X115396553Y-32022200D02*
X115491791Y-32069819D01*
X115491791Y-32069819D02*
X115587029Y-32069819D01*
X115587029Y-32069819D02*
X115682267Y-32022200D01*
X115682267Y-32022200D02*
X115729886Y-31974580D01*
X115729886Y-31974580D02*
X115777505Y-31879342D01*
X115777505Y-31879342D02*
X115825124Y-31688866D01*
X115825124Y-31688866D02*
X115825124Y-31450771D01*
X115825124Y-31450771D02*
X115777505Y-31260295D01*
X115777505Y-31260295D02*
X115729886Y-31165057D01*
X115729886Y-31165057D02*
X115682267Y-31117438D01*
X115682267Y-31117438D02*
X115587029Y-31069819D01*
X114872743Y-31165057D02*
X114825124Y-31117438D01*
X114825124Y-31117438D02*
X114729886Y-31069819D01*
X114729886Y-31069819D02*
X114491791Y-31069819D01*
X114491791Y-31069819D02*
X114396553Y-31117438D01*
X114396553Y-31117438D02*
X114348934Y-31165057D01*
X114348934Y-31165057D02*
X114301315Y-31260295D01*
X114301315Y-31260295D02*
X114301315Y-31355533D01*
X114301315Y-31355533D02*
X114348934Y-31498390D01*
X114348934Y-31498390D02*
X114920362Y-32069819D01*
X114920362Y-32069819D02*
X114301315Y-32069819D01*
X113444172Y-31403152D02*
X113444172Y-32069819D01*
X113682267Y-31022200D02*
X113920362Y-31736485D01*
X113920362Y-31736485D02*
X113301315Y-31736485D01*
X121259580Y-51733333D02*
X121307200Y-51685714D01*
X121307200Y-51685714D02*
X121354819Y-51542857D01*
X121354819Y-51542857D02*
X121354819Y-51447619D01*
X121354819Y-51447619D02*
X121307200Y-51304762D01*
X121307200Y-51304762D02*
X121211961Y-51209524D01*
X121211961Y-51209524D02*
X121116723Y-51161905D01*
X121116723Y-51161905D02*
X120926247Y-51114286D01*
X120926247Y-51114286D02*
X120783390Y-51114286D01*
X120783390Y-51114286D02*
X120592914Y-51161905D01*
X120592914Y-51161905D02*
X120497676Y-51209524D01*
X120497676Y-51209524D02*
X120402438Y-51304762D01*
X120402438Y-51304762D02*
X120354819Y-51447619D01*
X120354819Y-51447619D02*
X120354819Y-51542857D01*
X120354819Y-51542857D02*
X120402438Y-51685714D01*
X120402438Y-51685714D02*
X120450057Y-51733333D01*
X120354819Y-52638095D02*
X120354819Y-52161905D01*
X120354819Y-52161905D02*
X120831009Y-52114286D01*
X120831009Y-52114286D02*
X120783390Y-52161905D01*
X120783390Y-52161905D02*
X120735771Y-52257143D01*
X120735771Y-52257143D02*
X120735771Y-52495238D01*
X120735771Y-52495238D02*
X120783390Y-52590476D01*
X120783390Y-52590476D02*
X120831009Y-52638095D01*
X120831009Y-52638095D02*
X120926247Y-52685714D01*
X120926247Y-52685714D02*
X121164342Y-52685714D01*
X121164342Y-52685714D02*
X121259580Y-52638095D01*
X121259580Y-52638095D02*
X121307200Y-52590476D01*
X121307200Y-52590476D02*
X121354819Y-52495238D01*
X121354819Y-52495238D02*
X121354819Y-52257143D01*
X121354819Y-52257143D02*
X121307200Y-52161905D01*
X121307200Y-52161905D02*
X121259580Y-52114286D01*
X118159580Y-39233333D02*
X118207200Y-39185714D01*
X118207200Y-39185714D02*
X118254819Y-39042857D01*
X118254819Y-39042857D02*
X118254819Y-38947619D01*
X118254819Y-38947619D02*
X118207200Y-38804762D01*
X118207200Y-38804762D02*
X118111961Y-38709524D01*
X118111961Y-38709524D02*
X118016723Y-38661905D01*
X118016723Y-38661905D02*
X117826247Y-38614286D01*
X117826247Y-38614286D02*
X117683390Y-38614286D01*
X117683390Y-38614286D02*
X117492914Y-38661905D01*
X117492914Y-38661905D02*
X117397676Y-38709524D01*
X117397676Y-38709524D02*
X117302438Y-38804762D01*
X117302438Y-38804762D02*
X117254819Y-38947619D01*
X117254819Y-38947619D02*
X117254819Y-39042857D01*
X117254819Y-39042857D02*
X117302438Y-39185714D01*
X117302438Y-39185714D02*
X117350057Y-39233333D01*
X117350057Y-39614286D02*
X117302438Y-39661905D01*
X117302438Y-39661905D02*
X117254819Y-39757143D01*
X117254819Y-39757143D02*
X117254819Y-39995238D01*
X117254819Y-39995238D02*
X117302438Y-40090476D01*
X117302438Y-40090476D02*
X117350057Y-40138095D01*
X117350057Y-40138095D02*
X117445295Y-40185714D01*
X117445295Y-40185714D02*
X117540533Y-40185714D01*
X117540533Y-40185714D02*
X117683390Y-40138095D01*
X117683390Y-40138095D02*
X118254819Y-39566667D01*
X118254819Y-39566667D02*
X118254819Y-40185714D01*
X115766666Y-44559580D02*
X115814285Y-44607200D01*
X115814285Y-44607200D02*
X115957142Y-44654819D01*
X115957142Y-44654819D02*
X116052380Y-44654819D01*
X116052380Y-44654819D02*
X116195237Y-44607200D01*
X116195237Y-44607200D02*
X116290475Y-44511961D01*
X116290475Y-44511961D02*
X116338094Y-44416723D01*
X116338094Y-44416723D02*
X116385713Y-44226247D01*
X116385713Y-44226247D02*
X116385713Y-44083390D01*
X116385713Y-44083390D02*
X116338094Y-43892914D01*
X116338094Y-43892914D02*
X116290475Y-43797676D01*
X116290475Y-43797676D02*
X116195237Y-43702438D01*
X116195237Y-43702438D02*
X116052380Y-43654819D01*
X116052380Y-43654819D02*
X115957142Y-43654819D01*
X115957142Y-43654819D02*
X115814285Y-43702438D01*
X115814285Y-43702438D02*
X115766666Y-43750057D01*
X114814285Y-44654819D02*
X115385713Y-44654819D01*
X115099999Y-44654819D02*
X115099999Y-43654819D01*
X115099999Y-43654819D02*
X115195237Y-43797676D01*
X115195237Y-43797676D02*
X115290475Y-43892914D01*
X115290475Y-43892914D02*
X115385713Y-43940533D01*
X117966666Y-37454819D02*
X118299999Y-36978628D01*
X118538094Y-37454819D02*
X118538094Y-36454819D01*
X118538094Y-36454819D02*
X118157142Y-36454819D01*
X118157142Y-36454819D02*
X118061904Y-36502438D01*
X118061904Y-36502438D02*
X118014285Y-36550057D01*
X118014285Y-36550057D02*
X117966666Y-36645295D01*
X117966666Y-36645295D02*
X117966666Y-36788152D01*
X117966666Y-36788152D02*
X118014285Y-36883390D01*
X118014285Y-36883390D02*
X118061904Y-36931009D01*
X118061904Y-36931009D02*
X118157142Y-36978628D01*
X118157142Y-36978628D02*
X118538094Y-36978628D01*
X117633332Y-36454819D02*
X117014285Y-36454819D01*
X117014285Y-36454819D02*
X117347618Y-36835771D01*
X117347618Y-36835771D02*
X117204761Y-36835771D01*
X117204761Y-36835771D02*
X117109523Y-36883390D01*
X117109523Y-36883390D02*
X117061904Y-36931009D01*
X117061904Y-36931009D02*
X117014285Y-37026247D01*
X117014285Y-37026247D02*
X117014285Y-37264342D01*
X117014285Y-37264342D02*
X117061904Y-37359580D01*
X117061904Y-37359580D02*
X117109523Y-37407200D01*
X117109523Y-37407200D02*
X117204761Y-37454819D01*
X117204761Y-37454819D02*
X117490475Y-37454819D01*
X117490475Y-37454819D02*
X117585713Y-37407200D01*
X117585713Y-37407200D02*
X117633332Y-37359580D01*
X117738094Y-54992319D02*
X117738094Y-53992319D01*
X117738094Y-53992319D02*
X117499999Y-53992319D01*
X117499999Y-53992319D02*
X117357142Y-54039938D01*
X117357142Y-54039938D02*
X117261904Y-54135176D01*
X117261904Y-54135176D02*
X117214285Y-54230414D01*
X117214285Y-54230414D02*
X117166666Y-54420890D01*
X117166666Y-54420890D02*
X117166666Y-54563747D01*
X117166666Y-54563747D02*
X117214285Y-54754223D01*
X117214285Y-54754223D02*
X117261904Y-54849461D01*
X117261904Y-54849461D02*
X117357142Y-54944700D01*
X117357142Y-54944700D02*
X117499999Y-54992319D01*
X117499999Y-54992319D02*
X117738094Y-54992319D01*
X116214285Y-54992319D02*
X116785713Y-54992319D01*
X116499999Y-54992319D02*
X116499999Y-53992319D01*
X116499999Y-53992319D02*
X116595237Y-54135176D01*
X116595237Y-54135176D02*
X116690475Y-54230414D01*
X116690475Y-54230414D02*
X116785713Y-54278033D01*
X119366666Y-51254819D02*
X119699999Y-50778628D01*
X119938094Y-51254819D02*
X119938094Y-50254819D01*
X119938094Y-50254819D02*
X119557142Y-50254819D01*
X119557142Y-50254819D02*
X119461904Y-50302438D01*
X119461904Y-50302438D02*
X119414285Y-50350057D01*
X119414285Y-50350057D02*
X119366666Y-50445295D01*
X119366666Y-50445295D02*
X119366666Y-50588152D01*
X119366666Y-50588152D02*
X119414285Y-50683390D01*
X119414285Y-50683390D02*
X119461904Y-50731009D01*
X119461904Y-50731009D02*
X119557142Y-50778628D01*
X119557142Y-50778628D02*
X119938094Y-50778628D01*
X118414285Y-51254819D02*
X118985713Y-51254819D01*
X118699999Y-51254819D02*
X118699999Y-50254819D01*
X118699999Y-50254819D02*
X118795237Y-50397676D01*
X118795237Y-50397676D02*
X118890475Y-50492914D01*
X118890475Y-50492914D02*
X118985713Y-50540533D01*
X127483333Y-35454819D02*
X127483333Y-36169104D01*
X127483333Y-36169104D02*
X127530952Y-36311961D01*
X127530952Y-36311961D02*
X127626190Y-36407200D01*
X127626190Y-36407200D02*
X127769047Y-36454819D01*
X127769047Y-36454819D02*
X127864285Y-36454819D01*
X126578571Y-35788152D02*
X126578571Y-36454819D01*
X126816666Y-35407200D02*
X127054761Y-36121485D01*
X127054761Y-36121485D02*
X126435714Y-36121485D01*
X121359580Y-43833333D02*
X121407200Y-43785714D01*
X121407200Y-43785714D02*
X121454819Y-43642857D01*
X121454819Y-43642857D02*
X121454819Y-43547619D01*
X121454819Y-43547619D02*
X121407200Y-43404762D01*
X121407200Y-43404762D02*
X121311961Y-43309524D01*
X121311961Y-43309524D02*
X121216723Y-43261905D01*
X121216723Y-43261905D02*
X121026247Y-43214286D01*
X121026247Y-43214286D02*
X120883390Y-43214286D01*
X120883390Y-43214286D02*
X120692914Y-43261905D01*
X120692914Y-43261905D02*
X120597676Y-43309524D01*
X120597676Y-43309524D02*
X120502438Y-43404762D01*
X120502438Y-43404762D02*
X120454819Y-43547619D01*
X120454819Y-43547619D02*
X120454819Y-43642857D01*
X120454819Y-43642857D02*
X120502438Y-43785714D01*
X120502438Y-43785714D02*
X120550057Y-43833333D01*
X120788152Y-44690476D02*
X121454819Y-44690476D01*
X120407200Y-44452381D02*
X121121485Y-44214286D01*
X121121485Y-44214286D02*
X121121485Y-44833333D01*
X119766666Y-41559580D02*
X119814285Y-41607200D01*
X119814285Y-41607200D02*
X119957142Y-41654819D01*
X119957142Y-41654819D02*
X120052380Y-41654819D01*
X120052380Y-41654819D02*
X120195237Y-41607200D01*
X120195237Y-41607200D02*
X120290475Y-41511961D01*
X120290475Y-41511961D02*
X120338094Y-41416723D01*
X120338094Y-41416723D02*
X120385713Y-41226247D01*
X120385713Y-41226247D02*
X120385713Y-41083390D01*
X120385713Y-41083390D02*
X120338094Y-40892914D01*
X120338094Y-40892914D02*
X120290475Y-40797676D01*
X120290475Y-40797676D02*
X120195237Y-40702438D01*
X120195237Y-40702438D02*
X120052380Y-40654819D01*
X120052380Y-40654819D02*
X119957142Y-40654819D01*
X119957142Y-40654819D02*
X119814285Y-40702438D01*
X119814285Y-40702438D02*
X119766666Y-40750057D01*
X119433332Y-40654819D02*
X118814285Y-40654819D01*
X118814285Y-40654819D02*
X119147618Y-41035771D01*
X119147618Y-41035771D02*
X119004761Y-41035771D01*
X119004761Y-41035771D02*
X118909523Y-41083390D01*
X118909523Y-41083390D02*
X118861904Y-41131009D01*
X118861904Y-41131009D02*
X118814285Y-41226247D01*
X118814285Y-41226247D02*
X118814285Y-41464342D01*
X118814285Y-41464342D02*
X118861904Y-41559580D01*
X118861904Y-41559580D02*
X118909523Y-41607200D01*
X118909523Y-41607200D02*
X119004761Y-41654819D01*
X119004761Y-41654819D02*
X119290475Y-41654819D01*
X119290475Y-41654819D02*
X119385713Y-41607200D01*
X119385713Y-41607200D02*
X119433332Y-41559580D01*
X123609580Y-48020833D02*
X123657200Y-47973214D01*
X123657200Y-47973214D02*
X123704819Y-47830357D01*
X123704819Y-47830357D02*
X123704819Y-47735119D01*
X123704819Y-47735119D02*
X123657200Y-47592262D01*
X123657200Y-47592262D02*
X123561961Y-47497024D01*
X123561961Y-47497024D02*
X123466723Y-47449405D01*
X123466723Y-47449405D02*
X123276247Y-47401786D01*
X123276247Y-47401786D02*
X123133390Y-47401786D01*
X123133390Y-47401786D02*
X122942914Y-47449405D01*
X122942914Y-47449405D02*
X122847676Y-47497024D01*
X122847676Y-47497024D02*
X122752438Y-47592262D01*
X122752438Y-47592262D02*
X122704819Y-47735119D01*
X122704819Y-47735119D02*
X122704819Y-47830357D01*
X122704819Y-47830357D02*
X122752438Y-47973214D01*
X122752438Y-47973214D02*
X122800057Y-48020833D01*
X122704819Y-48877976D02*
X122704819Y-48687500D01*
X122704819Y-48687500D02*
X122752438Y-48592262D01*
X122752438Y-48592262D02*
X122800057Y-48544643D01*
X122800057Y-48544643D02*
X122942914Y-48449405D01*
X122942914Y-48449405D02*
X123133390Y-48401786D01*
X123133390Y-48401786D02*
X123514342Y-48401786D01*
X123514342Y-48401786D02*
X123609580Y-48449405D01*
X123609580Y-48449405D02*
X123657200Y-48497024D01*
X123657200Y-48497024D02*
X123704819Y-48592262D01*
X123704819Y-48592262D02*
X123704819Y-48782738D01*
X123704819Y-48782738D02*
X123657200Y-48877976D01*
X123657200Y-48877976D02*
X123609580Y-48925595D01*
X123609580Y-48925595D02*
X123514342Y-48973214D01*
X123514342Y-48973214D02*
X123276247Y-48973214D01*
X123276247Y-48973214D02*
X123181009Y-48925595D01*
X123181009Y-48925595D02*
X123133390Y-48877976D01*
X123133390Y-48877976D02*
X123085771Y-48782738D01*
X123085771Y-48782738D02*
X123085771Y-48592262D01*
X123085771Y-48592262D02*
X123133390Y-48497024D01*
X123133390Y-48497024D02*
X123181009Y-48449405D01*
X123181009Y-48449405D02*
X123276247Y-48401786D01*
X120809166Y-37259580D02*
X120856785Y-37307200D01*
X120856785Y-37307200D02*
X120999642Y-37354819D01*
X120999642Y-37354819D02*
X121094880Y-37354819D01*
X121094880Y-37354819D02*
X121237737Y-37307200D01*
X121237737Y-37307200D02*
X121332975Y-37211961D01*
X121332975Y-37211961D02*
X121380594Y-37116723D01*
X121380594Y-37116723D02*
X121428213Y-36926247D01*
X121428213Y-36926247D02*
X121428213Y-36783390D01*
X121428213Y-36783390D02*
X121380594Y-36592914D01*
X121380594Y-36592914D02*
X121332975Y-36497676D01*
X121332975Y-36497676D02*
X121237737Y-36402438D01*
X121237737Y-36402438D02*
X121094880Y-36354819D01*
X121094880Y-36354819D02*
X120999642Y-36354819D01*
X120999642Y-36354819D02*
X120856785Y-36402438D01*
X120856785Y-36402438D02*
X120809166Y-36450057D01*
X120475832Y-36354819D02*
X119809166Y-36354819D01*
X119809166Y-36354819D02*
X120237737Y-37354819D01*
X114966666Y-54992319D02*
X115299999Y-54516128D01*
X115538094Y-54992319D02*
X115538094Y-53992319D01*
X115538094Y-53992319D02*
X115157142Y-53992319D01*
X115157142Y-53992319D02*
X115061904Y-54039938D01*
X115061904Y-54039938D02*
X115014285Y-54087557D01*
X115014285Y-54087557D02*
X114966666Y-54182795D01*
X114966666Y-54182795D02*
X114966666Y-54325652D01*
X114966666Y-54325652D02*
X115014285Y-54420890D01*
X115014285Y-54420890D02*
X115061904Y-54468509D01*
X115061904Y-54468509D02*
X115157142Y-54516128D01*
X115157142Y-54516128D02*
X115538094Y-54516128D01*
X114585713Y-54087557D02*
X114538094Y-54039938D01*
X114538094Y-54039938D02*
X114442856Y-53992319D01*
X114442856Y-53992319D02*
X114204761Y-53992319D01*
X114204761Y-53992319D02*
X114109523Y-54039938D01*
X114109523Y-54039938D02*
X114061904Y-54087557D01*
X114061904Y-54087557D02*
X114014285Y-54182795D01*
X114014285Y-54182795D02*
X114014285Y-54278033D01*
X114014285Y-54278033D02*
X114061904Y-54420890D01*
X114061904Y-54420890D02*
X114633332Y-54992319D01*
X114633332Y-54992319D02*
X114014285Y-54992319D01*
X114254819Y-33394405D02*
X113254819Y-33394405D01*
X113254819Y-33394405D02*
X113254819Y-33632500D01*
X113254819Y-33632500D02*
X113302438Y-33775357D01*
X113302438Y-33775357D02*
X113397676Y-33870595D01*
X113397676Y-33870595D02*
X113492914Y-33918214D01*
X113492914Y-33918214D02*
X113683390Y-33965833D01*
X113683390Y-33965833D02*
X113826247Y-33965833D01*
X113826247Y-33965833D02*
X114016723Y-33918214D01*
X114016723Y-33918214D02*
X114111961Y-33870595D01*
X114111961Y-33870595D02*
X114207200Y-33775357D01*
X114207200Y-33775357D02*
X114254819Y-33632500D01*
X114254819Y-33632500D02*
X114254819Y-33394405D01*
X113350057Y-34346786D02*
X113302438Y-34394405D01*
X113302438Y-34394405D02*
X113254819Y-34489643D01*
X113254819Y-34489643D02*
X113254819Y-34727738D01*
X113254819Y-34727738D02*
X113302438Y-34822976D01*
X113302438Y-34822976D02*
X113350057Y-34870595D01*
X113350057Y-34870595D02*
X113445295Y-34918214D01*
X113445295Y-34918214D02*
X113540533Y-34918214D01*
X113540533Y-34918214D02*
X113683390Y-34870595D01*
X113683390Y-34870595D02*
X114254819Y-34299167D01*
X114254819Y-34299167D02*
X114254819Y-34918214D01*
D12*
%TO.C,LOGO3*%
G36*
X114181604Y-46669745D02*
G01*
X114249598Y-46673116D01*
X114315524Y-46678362D01*
X114381067Y-46685584D01*
X114447911Y-46694882D01*
X114485640Y-46700764D01*
X114525451Y-46707396D01*
X114561764Y-46714055D01*
X114596134Y-46721101D01*
X114630115Y-46728891D01*
X114665259Y-46737786D01*
X114703120Y-46748144D01*
X114745253Y-46760324D01*
X114793211Y-46774686D01*
X114807382Y-46779009D01*
X114857699Y-46794860D01*
X114904755Y-46810464D01*
X114948014Y-46825609D01*
X114986938Y-46840083D01*
X115020991Y-46853673D01*
X115049634Y-46866168D01*
X115072332Y-46877355D01*
X115088546Y-46887022D01*
X115097740Y-46894957D01*
X115105460Y-46904772D01*
X115090772Y-46902957D01*
X115086890Y-46902341D01*
X115073393Y-46899439D01*
X115054219Y-46894704D01*
X115030594Y-46888471D01*
X115003746Y-46881074D01*
X114974899Y-46872849D01*
X114945280Y-46864131D01*
X114916114Y-46855253D01*
X114910902Y-46853670D01*
X114891814Y-46848162D01*
X114867092Y-46841331D01*
X114838170Y-46833559D01*
X114806481Y-46825229D01*
X114773459Y-46816722D01*
X114740538Y-46808420D01*
X114731204Y-46806097D01*
X114698105Y-46797939D01*
X114669992Y-46791220D01*
X114645274Y-46785644D01*
X114622359Y-46780913D01*
X114599655Y-46776729D01*
X114575571Y-46772793D01*
X114548516Y-46768809D01*
X114516898Y-46764478D01*
X114479125Y-46759503D01*
X114441598Y-46754659D01*
X114409216Y-46750647D01*
X114381274Y-46747458D01*
X114356112Y-46744956D01*
X114332066Y-46743008D01*
X114307475Y-46741479D01*
X114280677Y-46740235D01*
X114250009Y-46739142D01*
X114213810Y-46738065D01*
X114192465Y-46737473D01*
X114160760Y-46736676D01*
X114133955Y-46736194D01*
X114110467Y-46736072D01*
X114088710Y-46736352D01*
X114067100Y-46737078D01*
X114044053Y-46738294D01*
X114017985Y-46740044D01*
X113987311Y-46742371D01*
X113950446Y-46745318D01*
X113925776Y-46747324D01*
X113893366Y-46750045D01*
X113866307Y-46752513D01*
X113843127Y-46754934D01*
X113822353Y-46757516D01*
X113802515Y-46760465D01*
X113782140Y-46763988D01*
X113759757Y-46768291D01*
X113733893Y-46773582D01*
X113703076Y-46780066D01*
X113679900Y-46784993D01*
X113645007Y-46792570D01*
X113615597Y-46799288D01*
X113590292Y-46805562D01*
X113567717Y-46811808D01*
X113546494Y-46818441D01*
X113525245Y-46825877D01*
X113502594Y-46834531D01*
X113477164Y-46844819D01*
X113447577Y-46857157D01*
X113420388Y-46868766D01*
X113394912Y-46880232D01*
X113372986Y-46890982D01*
X113352609Y-46902057D01*
X113331778Y-46914494D01*
X113308490Y-46929334D01*
X113307091Y-46930245D01*
X113286008Y-46944070D01*
X113270033Y-46954979D01*
X113257779Y-46964186D01*
X113247857Y-46972904D01*
X113238879Y-46982347D01*
X113229456Y-46993728D01*
X113218201Y-47008262D01*
X113206479Y-47023734D01*
X113197256Y-47036710D01*
X113191007Y-47047228D01*
X113186759Y-47057217D01*
X113183540Y-47068607D01*
X113180379Y-47083327D01*
X113173297Y-47118215D01*
X113187482Y-47159069D01*
X113201668Y-47199923D01*
X113241487Y-47237660D01*
X113246473Y-47242361D01*
X113261029Y-47255633D01*
X113274319Y-47266710D01*
X113287984Y-47276746D01*
X113303666Y-47286891D01*
X113323007Y-47298296D01*
X113347649Y-47312113D01*
X113357791Y-47317701D01*
X113384573Y-47332082D01*
X113408372Y-47344055D01*
X113430704Y-47354193D01*
X113453086Y-47363070D01*
X113477037Y-47371259D01*
X113504073Y-47379333D01*
X113535711Y-47387866D01*
X113573468Y-47397430D01*
X113573619Y-47397468D01*
X113602855Y-47404645D01*
X113627546Y-47410426D01*
X113649451Y-47415113D01*
X113670331Y-47419008D01*
X113691943Y-47422414D01*
X113716048Y-47425633D01*
X113744404Y-47428967D01*
X113778771Y-47432719D01*
X113779169Y-47432762D01*
X113811349Y-47436164D01*
X113837971Y-47438819D01*
X113860705Y-47440794D01*
X113881221Y-47442160D01*
X113901188Y-47442985D01*
X113922277Y-47443339D01*
X113946157Y-47443292D01*
X113974498Y-47442911D01*
X114008971Y-47442267D01*
X114024256Y-47441952D01*
X114059959Y-47441051D01*
X114090637Y-47439938D01*
X114118306Y-47438474D01*
X114144980Y-47436518D01*
X114172672Y-47433930D01*
X114203397Y-47430572D01*
X114239171Y-47426303D01*
X114275144Y-47421777D01*
X114306922Y-47417421D01*
X114335078Y-47413046D01*
X114361727Y-47408270D01*
X114388981Y-47402715D01*
X114418956Y-47396000D01*
X114453764Y-47387746D01*
X114464927Y-47385043D01*
X114496916Y-47377118D01*
X114523834Y-47370038D01*
X114547637Y-47363187D01*
X114570281Y-47355950D01*
X114593720Y-47347713D01*
X114619910Y-47337861D01*
X114650806Y-47325778D01*
X114667679Y-47319042D01*
X114696066Y-47307446D01*
X114723563Y-47295914D01*
X114748574Y-47285130D01*
X114769498Y-47275778D01*
X114784736Y-47268540D01*
X114784761Y-47268527D01*
X114800138Y-47261127D01*
X114812246Y-47255910D01*
X114819870Y-47253356D01*
X114821795Y-47253943D01*
X114816445Y-47261703D01*
X114806754Y-47273758D01*
X114794910Y-47287356D01*
X114782722Y-47300426D01*
X114772001Y-47310897D01*
X114764581Y-47317745D01*
X114751378Y-47330324D01*
X114738836Y-47342652D01*
X114729425Y-47351223D01*
X114714851Y-47363194D01*
X114697715Y-47376382D01*
X114680062Y-47389169D01*
X114678321Y-47390388D01*
X114662670Y-47401476D01*
X114649357Y-47411132D01*
X114639744Y-47418357D01*
X114635192Y-47422149D01*
X114633734Y-47423378D01*
X114626378Y-47428493D01*
X114614217Y-47436404D01*
X114598523Y-47446293D01*
X114580568Y-47457338D01*
X114571334Y-47462976D01*
X114554677Y-47473261D01*
X114541080Y-47481809D01*
X114531750Y-47487856D01*
X114527896Y-47490639D01*
X114527819Y-47490728D01*
X114522733Y-47494284D01*
X114511810Y-47500594D01*
X114496201Y-47509073D01*
X114477057Y-47519135D01*
X114455526Y-47530196D01*
X114432758Y-47541671D01*
X114409904Y-47552973D01*
X114388113Y-47563519D01*
X114368535Y-47572722D01*
X114352320Y-47579997D01*
X114345407Y-47582962D01*
X114310015Y-47597296D01*
X114275195Y-47609793D01*
X114238864Y-47621109D01*
X114198938Y-47631903D01*
X114153333Y-47642833D01*
X114140293Y-47645772D01*
X114096591Y-47654939D01*
X114055561Y-47662288D01*
X114015110Y-47668091D01*
X113973148Y-47672622D01*
X113927579Y-47676153D01*
X113876313Y-47678957D01*
X113873210Y-47679100D01*
X113841436Y-47680494D01*
X113815197Y-47681419D01*
X113792593Y-47681841D01*
X113771723Y-47681725D01*
X113750685Y-47681038D01*
X113727579Y-47679744D01*
X113700503Y-47677811D01*
X113667558Y-47675203D01*
X113637161Y-47672683D01*
X113609332Y-47670148D01*
X113585701Y-47667600D01*
X113564389Y-47664758D01*
X113543511Y-47661338D01*
X113521187Y-47657060D01*
X113495534Y-47651641D01*
X113464670Y-47644800D01*
X113442877Y-47639846D01*
X113417202Y-47633835D01*
X113394444Y-47628316D01*
X113375779Y-47623581D01*
X113362385Y-47619923D01*
X113355438Y-47617634D01*
X113354847Y-47617371D01*
X113346790Y-47613941D01*
X113332994Y-47608212D01*
X113314777Y-47600723D01*
X113293455Y-47592018D01*
X113270346Y-47582637D01*
X113255140Y-47576374D01*
X113228654Y-47564898D01*
X113205960Y-47554306D01*
X113188247Y-47545166D01*
X113176706Y-47538045D01*
X113166628Y-47530820D01*
X113151169Y-47520032D01*
X113133332Y-47507795D01*
X113115292Y-47495611D01*
X113107294Y-47490219D01*
X113084298Y-47473996D01*
X113065268Y-47458964D01*
X113048603Y-47443551D01*
X113032699Y-47426184D01*
X113015954Y-47405291D01*
X112996766Y-47379299D01*
X112992268Y-47373039D01*
X112978675Y-47353649D01*
X112968093Y-47337225D01*
X112959718Y-47322008D01*
X112952747Y-47306239D01*
X112946374Y-47288159D01*
X112939797Y-47266007D01*
X112932211Y-47238024D01*
X112929790Y-47228591D01*
X112927633Y-47218099D01*
X112926684Y-47208168D01*
X112926902Y-47196723D01*
X112928245Y-47181692D01*
X112930671Y-47161000D01*
X112936624Y-47112203D01*
X112965355Y-47059175D01*
X112970343Y-47050092D01*
X112980875Y-47031681D01*
X112990483Y-47015845D01*
X112998272Y-47004032D01*
X113003348Y-46997690D01*
X113016752Y-46985447D01*
X113040891Y-46963371D01*
X113059977Y-46945869D01*
X113074502Y-46932486D01*
X113084956Y-46922770D01*
X113091833Y-46916265D01*
X113095623Y-46912518D01*
X113096887Y-46911436D01*
X113104350Y-46906245D01*
X113117063Y-46898072D01*
X113133952Y-46887589D01*
X113153942Y-46875466D01*
X113175960Y-46862374D01*
X113192140Y-46852917D01*
X113216276Y-46839237D01*
X113238176Y-46827570D01*
X113259758Y-46816995D01*
X113282940Y-46806587D01*
X113309642Y-46795424D01*
X113341782Y-46782582D01*
X113357415Y-46776415D01*
X113384916Y-46765571D01*
X113407164Y-46756905D01*
X113425528Y-46749997D01*
X113441377Y-46744430D01*
X113456080Y-46739783D01*
X113471003Y-46735639D01*
X113487516Y-46731578D01*
X113506987Y-46727182D01*
X113530784Y-46722032D01*
X113560277Y-46715709D01*
X113595956Y-46708324D01*
X113660224Y-46696591D01*
X113724016Y-46687131D01*
X113788961Y-46679772D01*
X113856690Y-46674341D01*
X113928833Y-46670668D01*
X114007020Y-46668579D01*
X114032678Y-46668225D01*
X114109859Y-46668148D01*
X114181604Y-46669745D01*
G37*
G36*
X116030048Y-46421823D02*
G01*
X116130527Y-46422842D01*
X116224353Y-46424599D01*
X116310968Y-46427103D01*
X116374272Y-46429472D01*
X116499259Y-46435224D01*
X116616716Y-46442153D01*
X116726769Y-46450278D01*
X116829542Y-46459620D01*
X116925164Y-46470197D01*
X117013761Y-46482028D01*
X117095458Y-46495134D01*
X117170381Y-46509533D01*
X117238658Y-46525245D01*
X117300415Y-46542290D01*
X117355777Y-46560686D01*
X117404872Y-46580453D01*
X117447824Y-46601611D01*
X117460723Y-46608695D01*
X117477215Y-46618032D01*
X117489344Y-46625677D01*
X117498660Y-46632887D01*
X117506711Y-46640922D01*
X117515047Y-46651039D01*
X117525217Y-46664499D01*
X117531805Y-46673370D01*
X117541037Y-46686373D01*
X117546936Y-46696321D01*
X117550422Y-46705263D01*
X117552414Y-46715251D01*
X117553830Y-46728336D01*
X117553850Y-46728547D01*
X117554900Y-46745085D01*
X117555058Y-46760506D01*
X117554289Y-46771496D01*
X117553838Y-46773472D01*
X117549830Y-46783705D01*
X117542875Y-46797619D01*
X117534038Y-46813436D01*
X117524386Y-46829373D01*
X117514986Y-46843652D01*
X117506904Y-46854492D01*
X117501205Y-46860113D01*
X117501204Y-46860114D01*
X117495536Y-46864620D01*
X117486518Y-46873030D01*
X117476101Y-46883523D01*
X117462383Y-46897849D01*
X117445384Y-46915562D01*
X117432304Y-46929068D01*
X117422246Y-46939224D01*
X117414313Y-46946887D01*
X117407607Y-46952915D01*
X117401232Y-46958166D01*
X117394289Y-46963498D01*
X117385883Y-46969767D01*
X117380473Y-46973838D01*
X117372363Y-46980137D01*
X117368326Y-46983564D01*
X117366761Y-46984962D01*
X117360200Y-46990122D01*
X117350768Y-46997168D01*
X117346282Y-47000543D01*
X117335144Y-47009575D01*
X117326808Y-47017188D01*
X117326644Y-47017352D01*
X117320510Y-47022362D01*
X117309073Y-47030755D01*
X117293504Y-47041707D01*
X117274977Y-47054391D01*
X117254662Y-47067984D01*
X117233373Y-47081986D01*
X117189924Y-47109997D01*
X117150645Y-47134516D01*
X117115881Y-47155343D01*
X117085977Y-47172281D01*
X117061278Y-47185131D01*
X117042130Y-47193695D01*
X117028879Y-47197773D01*
X117026029Y-47198198D01*
X117017961Y-47197863D01*
X117014491Y-47193924D01*
X117015664Y-47185742D01*
X117021531Y-47172678D01*
X117032137Y-47154092D01*
X117045708Y-47130912D01*
X117061943Y-47100354D01*
X117074104Y-47073003D01*
X117082860Y-47047297D01*
X117088880Y-47021674D01*
X117092062Y-47003161D01*
X117093609Y-46987476D01*
X117092904Y-46973851D01*
X117089607Y-46960044D01*
X117083376Y-46943809D01*
X117073870Y-46922904D01*
X117072626Y-46920275D01*
X117062111Y-46900145D01*
X117052386Y-46885915D01*
X117042445Y-46876083D01*
X117037715Y-46872346D01*
X117028749Y-46865073D01*
X117023312Y-46860396D01*
X117022029Y-46859190D01*
X116998657Y-46840547D01*
X116968474Y-46821471D01*
X116932360Y-46802394D01*
X116891197Y-46783750D01*
X116845868Y-46765970D01*
X116797252Y-46749487D01*
X116755698Y-46737125D01*
X116691302Y-46720220D01*
X116620031Y-46703921D01*
X116541733Y-46688200D01*
X116456253Y-46673029D01*
X116363441Y-46658379D01*
X116263142Y-46644222D01*
X116155206Y-46630530D01*
X116113592Y-46625582D01*
X116068669Y-46620463D01*
X116028399Y-46616201D01*
X115991097Y-46612659D01*
X115955076Y-46609701D01*
X115918650Y-46607192D01*
X115880135Y-46604994D01*
X115837844Y-46602970D01*
X115790092Y-46600986D01*
X115735694Y-46599002D01*
X115665467Y-46596811D01*
X115588530Y-46594759D01*
X115505472Y-46592852D01*
X115416880Y-46591093D01*
X115323344Y-46589489D01*
X115225451Y-46588044D01*
X115123791Y-46586764D01*
X115018950Y-46585653D01*
X114911518Y-46584716D01*
X114802082Y-46583959D01*
X114691232Y-46583386D01*
X114579555Y-46583003D01*
X114467640Y-46582815D01*
X114356076Y-46582827D01*
X114245449Y-46583043D01*
X114136350Y-46583469D01*
X114029366Y-46584110D01*
X113925085Y-46584970D01*
X113908545Y-46585127D01*
X113824201Y-46585944D01*
X113746661Y-46586728D01*
X113675081Y-46587494D01*
X113608619Y-46588260D01*
X113546431Y-46589039D01*
X113487674Y-46589848D01*
X113431507Y-46590702D01*
X113377084Y-46591616D01*
X113323565Y-46592606D01*
X113270105Y-46593688D01*
X113215863Y-46594876D01*
X113159994Y-46596186D01*
X113101657Y-46597634D01*
X113040007Y-46599234D01*
X112974203Y-46601004D01*
X112903401Y-46602957D01*
X112826759Y-46605110D01*
X112785741Y-46606250D01*
X112739893Y-46607477D01*
X112696383Y-46608592D01*
X112655894Y-46609580D01*
X112619108Y-46610426D01*
X112586708Y-46611114D01*
X112559376Y-46611630D01*
X112537797Y-46611959D01*
X112522652Y-46612085D01*
X112514624Y-46611994D01*
X112511384Y-46611543D01*
X112514155Y-46610492D01*
X112524358Y-46608922D01*
X112541798Y-46606855D01*
X112566278Y-46604315D01*
X112597602Y-46601325D01*
X112635576Y-46597907D01*
X112655503Y-46596154D01*
X112696287Y-46592564D01*
X112738896Y-46588809D01*
X112781410Y-46585059D01*
X112821910Y-46581483D01*
X112858475Y-46578250D01*
X112889186Y-46575530D01*
X112947019Y-46570481D01*
X113043292Y-46562384D01*
X113145886Y-46554094D01*
X113253900Y-46545671D01*
X113366434Y-46537177D01*
X113482586Y-46528673D01*
X113601456Y-46520221D01*
X113722142Y-46511880D01*
X113843745Y-46503712D01*
X113965363Y-46495779D01*
X114086096Y-46488140D01*
X114205042Y-46480859D01*
X114321301Y-46473994D01*
X114433972Y-46467608D01*
X114542154Y-46461762D01*
X114644946Y-46456516D01*
X114781677Y-46450074D01*
X114918098Y-46444252D01*
X115053429Y-46439069D01*
X115187113Y-46434536D01*
X115318593Y-46430663D01*
X115447313Y-46427459D01*
X115572717Y-46424934D01*
X115694249Y-46423098D01*
X115811353Y-46421962D01*
X115923471Y-46421533D01*
X116030048Y-46421823D01*
G37*
G36*
X114821850Y-47049940D02*
G01*
X114836088Y-47055676D01*
X114856956Y-47064885D01*
X114884502Y-47077589D01*
X114918774Y-47093812D01*
X114959819Y-47113575D01*
X115007688Y-47136901D01*
X115062427Y-47163813D01*
X115095334Y-47180001D01*
X115181803Y-47222018D01*
X115262246Y-47260283D01*
X115337145Y-47295003D01*
X115406981Y-47326381D01*
X115472234Y-47354625D01*
X115533387Y-47379939D01*
X115590920Y-47402529D01*
X115645316Y-47422601D01*
X115697054Y-47440360D01*
X115746616Y-47456011D01*
X115770852Y-47463175D01*
X115808450Y-47473576D01*
X115844334Y-47482428D01*
X115879454Y-47489832D01*
X115914759Y-47495887D01*
X115951201Y-47500695D01*
X115989728Y-47504357D01*
X116031290Y-47506972D01*
X116076837Y-47508642D01*
X116127320Y-47509467D01*
X116183687Y-47509548D01*
X116246889Y-47508984D01*
X116288945Y-47508387D01*
X116327399Y-47507656D01*
X116359789Y-47506767D01*
X116387017Y-47505650D01*
X116409982Y-47504237D01*
X116429585Y-47502460D01*
X116446728Y-47500250D01*
X116462310Y-47497539D01*
X116477232Y-47494259D01*
X116492396Y-47490341D01*
X116499157Y-47488224D01*
X116514423Y-47482453D01*
X116532702Y-47474714D01*
X116552283Y-47465818D01*
X116571458Y-47456577D01*
X116588516Y-47447799D01*
X116601747Y-47440295D01*
X116609442Y-47434876D01*
X116610408Y-47433990D01*
X116617596Y-47427864D01*
X116626878Y-47420369D01*
X116628156Y-47419360D01*
X116639014Y-47410607D01*
X116648368Y-47402811D01*
X116657028Y-47395601D01*
X116667556Y-47387205D01*
X116676660Y-47380012D01*
X116686964Y-47371598D01*
X116687963Y-47370765D01*
X116697937Y-47362632D01*
X116708744Y-47354040D01*
X116710142Y-47352939D01*
X116720812Y-47344227D01*
X116729752Y-47336483D01*
X116734618Y-47330902D01*
X116743129Y-47319907D01*
X116754458Y-47304647D01*
X116767826Y-47286228D01*
X116782450Y-47265759D01*
X116797550Y-47244348D01*
X116812343Y-47223103D01*
X116826050Y-47203131D01*
X116837888Y-47185541D01*
X116847076Y-47171441D01*
X116852834Y-47161938D01*
X116855967Y-47156592D01*
X116863911Y-47146618D01*
X116871190Y-47143405D01*
X116871285Y-47143405D01*
X116875671Y-47143932D01*
X116877687Y-47146773D01*
X116877717Y-47153728D01*
X116876144Y-47166593D01*
X116873580Y-47180402D01*
X116867868Y-47202980D01*
X116859853Y-47229878D01*
X116850033Y-47259533D01*
X116838905Y-47290387D01*
X116826968Y-47320876D01*
X116816989Y-47343353D01*
X116804271Y-47368969D01*
X116789659Y-47396237D01*
X116773902Y-47423917D01*
X116757748Y-47450763D01*
X116741945Y-47475533D01*
X116727243Y-47496984D01*
X116714389Y-47513871D01*
X116704132Y-47524952D01*
X116702238Y-47526655D01*
X116690746Y-47537294D01*
X116675831Y-47551445D01*
X116659213Y-47567467D01*
X116642611Y-47583715D01*
X116634348Y-47591852D01*
X116621730Y-47603982D01*
X116610898Y-47613600D01*
X116600390Y-47621700D01*
X116588742Y-47629280D01*
X116574492Y-47637337D01*
X116556177Y-47646869D01*
X116532334Y-47658871D01*
X116527107Y-47661480D01*
X116495383Y-47676782D01*
X116468206Y-47688589D01*
X116443741Y-47697406D01*
X116420156Y-47703738D01*
X116395614Y-47708092D01*
X116368284Y-47710973D01*
X116336329Y-47712886D01*
X116328582Y-47713239D01*
X116306570Y-47714231D01*
X116286501Y-47715117D01*
X116270324Y-47715813D01*
X116259992Y-47716232D01*
X116256663Y-47716209D01*
X116244519Y-47715427D01*
X116226671Y-47713766D01*
X116204498Y-47711370D01*
X116179380Y-47708383D01*
X116152696Y-47704952D01*
X116121447Y-47700594D01*
X116091269Y-47695834D01*
X116063055Y-47690633D01*
X116034453Y-47684520D01*
X116003109Y-47677023D01*
X115966669Y-47667671D01*
X115947120Y-47662387D01*
X115898501Y-47648132D01*
X115847099Y-47631693D01*
X115794651Y-47613697D01*
X115742894Y-47594770D01*
X115693568Y-47575541D01*
X115648408Y-47556635D01*
X115609153Y-47538680D01*
X115608398Y-47538315D01*
X115583981Y-47526538D01*
X115556806Y-47513474D01*
X115530133Y-47500687D01*
X115507220Y-47489741D01*
X115490373Y-47481601D01*
X115469382Y-47471101D01*
X115447670Y-47459799D01*
X115424499Y-47447278D01*
X115399135Y-47433120D01*
X115370840Y-47416906D01*
X115338878Y-47398219D01*
X115302513Y-47376642D01*
X115261008Y-47351756D01*
X115213628Y-47323144D01*
X115207037Y-47319138D01*
X115190582Y-47309003D01*
X115177068Y-47300486D01*
X115167747Y-47294382D01*
X115163871Y-47291489D01*
X115163269Y-47290933D01*
X115157468Y-47286865D01*
X115146665Y-47279839D01*
X115132122Y-47270667D01*
X115115100Y-47260159D01*
X115109269Y-47256585D01*
X115092931Y-47246451D01*
X115079488Y-47237941D01*
X115070200Y-47231860D01*
X115066329Y-47229012D01*
X115065388Y-47228212D01*
X115059030Y-47223780D01*
X115047802Y-47216368D01*
X115032922Y-47206773D01*
X115015607Y-47195792D01*
X115007780Y-47190849D01*
X114991383Y-47180372D01*
X114977957Y-47171628D01*
X114968718Y-47165412D01*
X114964885Y-47162526D01*
X114962373Y-47160479D01*
X114954381Y-47154854D01*
X114942380Y-47146784D01*
X114927819Y-47137257D01*
X114916385Y-47129805D01*
X114903679Y-47121351D01*
X114894652Y-47115134D01*
X114890753Y-47112138D01*
X114889985Y-47111412D01*
X114884152Y-47106857D01*
X114874117Y-47099472D01*
X114861490Y-47090452D01*
X114849268Y-47081502D01*
X114835301Y-47070475D01*
X114823654Y-47060442D01*
X114815678Y-47052576D01*
X114812719Y-47048049D01*
X114814192Y-47047656D01*
X114821850Y-47049940D01*
G37*
G36*
X114370371Y-45786566D02*
G01*
X114399140Y-45787406D01*
X114418737Y-45788083D01*
X114441386Y-45789076D01*
X114460676Y-45790351D01*
X114478438Y-45792136D01*
X114496502Y-45794662D01*
X114516699Y-45798160D01*
X114540860Y-45802859D01*
X114570814Y-45808989D01*
X114638478Y-45824725D01*
X114716105Y-45846889D01*
X114796671Y-45874148D01*
X114880918Y-45906756D01*
X114969585Y-45944964D01*
X114990164Y-45954308D01*
X115048088Y-45981240D01*
X115106657Y-46009343D01*
X115164742Y-46038036D01*
X115221216Y-46066742D01*
X115274950Y-46094881D01*
X115324816Y-46121875D01*
X115369686Y-46147145D01*
X115408433Y-46170113D01*
X115409372Y-46170689D01*
X115428290Y-46183074D01*
X115441611Y-46193363D01*
X115449093Y-46201214D01*
X115450494Y-46206281D01*
X115445572Y-46208219D01*
X115434086Y-46206685D01*
X115426135Y-46204529D01*
X115409799Y-46199262D01*
X115388871Y-46191920D01*
X115364865Y-46183085D01*
X115339295Y-46173334D01*
X115313676Y-46163250D01*
X115289520Y-46153412D01*
X115268343Y-46144400D01*
X115251659Y-46136794D01*
X115232759Y-46128280D01*
X115205595Y-46117098D01*
X115171298Y-46103776D01*
X115130037Y-46088380D01*
X115081984Y-46070975D01*
X115027312Y-46051625D01*
X115022524Y-46049948D01*
X114986149Y-46037280D01*
X114955404Y-46026779D01*
X114928763Y-46018004D01*
X114904704Y-46010510D01*
X114881703Y-46003855D01*
X114858236Y-45997597D01*
X114832779Y-45991292D01*
X114803808Y-45984497D01*
X114769800Y-45976769D01*
X114646897Y-45949087D01*
X114527408Y-45940857D01*
X114407919Y-45932628D01*
X114296551Y-45945034D01*
X114185183Y-45957440D01*
X114084562Y-45988828D01*
X114071761Y-45992824D01*
X114045428Y-46001122D01*
X114023675Y-46008224D01*
X114005065Y-46014731D01*
X113988162Y-46021245D01*
X113971528Y-46028370D01*
X113953728Y-46036707D01*
X113933325Y-46046858D01*
X113908883Y-46059425D01*
X113878964Y-46075011D01*
X113867329Y-46081090D01*
X113840195Y-46095379D01*
X113817331Y-46107707D01*
X113797417Y-46118900D01*
X113779138Y-46129784D01*
X113761175Y-46141186D01*
X113742213Y-46153931D01*
X113720934Y-46168845D01*
X113696021Y-46186755D01*
X113666157Y-46208487D01*
X113643975Y-46224677D01*
X113617894Y-46243739D01*
X113596841Y-46259176D01*
X113580069Y-46271554D01*
X113566833Y-46281435D01*
X113556385Y-46289384D01*
X113547979Y-46295963D01*
X113540868Y-46301736D01*
X113534305Y-46307268D01*
X113527543Y-46313122D01*
X113517644Y-46321714D01*
X113505838Y-46331717D01*
X113495970Y-46339645D01*
X113485714Y-46347404D01*
X113484326Y-46348444D01*
X113472487Y-46357995D01*
X113461917Y-46367455D01*
X113457770Y-46371319D01*
X113446528Y-46381095D01*
X113434580Y-46390830D01*
X113428375Y-46395743D01*
X113417762Y-46404389D01*
X113410301Y-46410772D01*
X113406629Y-46413789D01*
X113398709Y-46417597D01*
X113394111Y-46415689D01*
X113394014Y-46408248D01*
X113394048Y-46408117D01*
X113397348Y-46400347D01*
X113403655Y-46388603D01*
X113411563Y-46375258D01*
X113419669Y-46362685D01*
X113426568Y-46353257D01*
X113428555Y-46350618D01*
X113434463Y-46342415D01*
X113442960Y-46330422D01*
X113452942Y-46316191D01*
X113459923Y-46306296D01*
X113469255Y-46293406D01*
X113476481Y-46283829D01*
X113480446Y-46279125D01*
X113483225Y-46276172D01*
X113489938Y-46268092D01*
X113498048Y-46257665D01*
X113503654Y-46250311D01*
X113510051Y-46242127D01*
X113513378Y-46238157D01*
X113514701Y-46236622D01*
X113519724Y-46230061D01*
X113526627Y-46220599D01*
X113528443Y-46218290D01*
X113536196Y-46209530D01*
X113548397Y-46196480D01*
X113564269Y-46179949D01*
X113583029Y-46160744D01*
X113603899Y-46139674D01*
X113626098Y-46117548D01*
X113636700Y-46107053D01*
X113659676Y-46084421D01*
X113678772Y-46065925D01*
X113695160Y-46050583D01*
X113710011Y-46037410D01*
X113724495Y-46025425D01*
X113739784Y-46013644D01*
X113757047Y-46001084D01*
X113777456Y-45986762D01*
X113802181Y-45969695D01*
X113811264Y-45963451D01*
X113836480Y-45946241D01*
X113857179Y-45932458D01*
X113874781Y-45921294D01*
X113890707Y-45911940D01*
X113906377Y-45903588D01*
X113923211Y-45895432D01*
X113942629Y-45886662D01*
X113966052Y-45876471D01*
X113971550Y-45874098D01*
X113995049Y-45863923D01*
X114016764Y-45854471D01*
X114035349Y-45846331D01*
X114049457Y-45840092D01*
X114057742Y-45836344D01*
X114062457Y-45834291D01*
X114081577Y-45827641D01*
X114106783Y-45820659D01*
X114136805Y-45813628D01*
X114170374Y-45806830D01*
X114206220Y-45800549D01*
X114243072Y-45795068D01*
X114265658Y-45792082D01*
X114288789Y-45789319D01*
X114308605Y-45787495D01*
X114327325Y-45786501D01*
X114347173Y-45786228D01*
X114370371Y-45786566D01*
G37*
G36*
X115567696Y-46788383D02*
G01*
X115591106Y-46838078D01*
X115600839Y-46858516D01*
X115617438Y-46892061D01*
X115631645Y-46918779D01*
X115643660Y-46938994D01*
X115653681Y-46953031D01*
X115661911Y-46961215D01*
X115668547Y-46963871D01*
X115673078Y-46960604D01*
X115678853Y-46950688D01*
X115685204Y-46935182D01*
X115691693Y-46915159D01*
X115697887Y-46891690D01*
X115697905Y-46891613D01*
X115703042Y-46872431D01*
X115709374Y-46852138D01*
X115715535Y-46835115D01*
X115718202Y-46828729D01*
X115724892Y-46815701D01*
X115732438Y-46806655D01*
X115742820Y-46798969D01*
X115749838Y-46794667D01*
X115758182Y-46790853D01*
X115765460Y-46790556D01*
X115774983Y-46793179D01*
X115790092Y-46798174D01*
X115789894Y-46829325D01*
X115789840Y-46832908D01*
X115788177Y-46854774D01*
X115783966Y-46879517D01*
X115776863Y-46909248D01*
X115769026Y-46937987D01*
X115756309Y-46980297D01*
X115743707Y-47017035D01*
X115731399Y-47047767D01*
X115719565Y-47072060D01*
X115708383Y-47089481D01*
X115698034Y-47099597D01*
X115695061Y-47101486D01*
X115687319Y-47106234D01*
X115683717Y-47108168D01*
X115683039Y-47107914D01*
X115677638Y-47104863D01*
X115668902Y-47099455D01*
X115664339Y-47096073D01*
X115651556Y-47083176D01*
X115635902Y-47063450D01*
X115617536Y-47037131D01*
X115596615Y-47004453D01*
X115573300Y-46965649D01*
X115547748Y-46920953D01*
X115542955Y-46912505D01*
X115534885Y-46898800D01*
X115528390Y-46888420D01*
X115524552Y-46883128D01*
X115522100Y-46880216D01*
X115515911Y-46871634D01*
X115508691Y-46860665D01*
X115503214Y-46852733D01*
X115493339Y-46842711D01*
X115484731Y-46839929D01*
X115477707Y-46844552D01*
X115475639Y-46846332D01*
X115466856Y-46850866D01*
X115453463Y-46856088D01*
X115437419Y-46861190D01*
X115401877Y-46871336D01*
X115397592Y-46887250D01*
X115396971Y-46889781D01*
X115395837Y-46897773D01*
X115395803Y-46907749D01*
X115396975Y-46921127D01*
X115399462Y-46939324D01*
X115403370Y-46963756D01*
X115407442Y-46988415D01*
X115411341Y-47012698D01*
X115414131Y-47031418D01*
X115415935Y-47045749D01*
X115416875Y-47056864D01*
X115417073Y-47065936D01*
X115416649Y-47074137D01*
X115415728Y-47082641D01*
X115414512Y-47091308D01*
X115412259Y-47099832D01*
X115408469Y-47104105D01*
X115401877Y-47106282D01*
X115393568Y-47106560D01*
X115378946Y-47101381D01*
X115363601Y-47089799D01*
X115362391Y-47088469D01*
X115356616Y-47078289D01*
X115350512Y-47062322D01*
X115344519Y-47042173D01*
X115339075Y-47019449D01*
X115334620Y-46995755D01*
X115331592Y-46972698D01*
X115329341Y-46952599D01*
X115326507Y-46931953D01*
X115323412Y-46912814D01*
X115320333Y-46896745D01*
X115317542Y-46885308D01*
X115315315Y-46880066D01*
X115313898Y-46879260D01*
X115306749Y-46875932D01*
X115295534Y-46871011D01*
X115282335Y-46865379D01*
X115269234Y-46859920D01*
X115258315Y-46855519D01*
X115251659Y-46853058D01*
X115247979Y-46851434D01*
X115238121Y-46844802D01*
X115227421Y-46835645D01*
X115218358Y-46826192D01*
X115213414Y-46818673D01*
X115212957Y-46816738D01*
X115215793Y-46809266D01*
X115225796Y-46802621D01*
X115242469Y-46797049D01*
X115265315Y-46792799D01*
X115265835Y-46792730D01*
X115279789Y-46791478D01*
X115300560Y-46790401D01*
X115327212Y-46789523D01*
X115358808Y-46788870D01*
X115394412Y-46788465D01*
X115433088Y-46788334D01*
X115567696Y-46788383D01*
G37*
G36*
X115928552Y-46788610D02*
G01*
X115953216Y-46791457D01*
X115978883Y-46796853D01*
X116002622Y-46804105D01*
X116021503Y-46812519D01*
X116024990Y-46814536D01*
X116036808Y-46822791D01*
X116044913Y-46832323D01*
X116052153Y-46846266D01*
X116062083Y-46868280D01*
X116055915Y-46901155D01*
X116054767Y-46907010D01*
X116051521Y-46921250D01*
X116048488Y-46931645D01*
X116046201Y-46936270D01*
X116038842Y-46941498D01*
X116028134Y-46949731D01*
X116016683Y-46958921D01*
X116007091Y-46967021D01*
X116004138Y-46969488D01*
X115992875Y-46977789D01*
X115980554Y-46985776D01*
X115970015Y-46993366D01*
X115957900Y-47006738D01*
X115950914Y-47021079D01*
X115950172Y-47034602D01*
X115952762Y-47042803D01*
X115955933Y-47047769D01*
X115957242Y-47048177D01*
X115965063Y-47049095D01*
X115977871Y-47049816D01*
X115993674Y-47050210D01*
X116007122Y-47050482D01*
X116034638Y-47052120D01*
X116055216Y-47055224D01*
X116069391Y-47059895D01*
X116077697Y-47066235D01*
X116081145Y-47071254D01*
X116084057Y-47080447D01*
X116081057Y-47089782D01*
X116071804Y-47101275D01*
X116060926Y-47111758D01*
X116048511Y-47120001D01*
X116033954Y-47124935D01*
X116014439Y-47127865D01*
X116001837Y-47129087D01*
X115991725Y-47129915D01*
X115987128Y-47130085D01*
X115984565Y-47128944D01*
X115976258Y-47124809D01*
X115963733Y-47118393D01*
X115948508Y-47110466D01*
X115943535Y-47107850D01*
X115928293Y-47099477D01*
X115917556Y-47092397D01*
X115909351Y-47084888D01*
X115901705Y-47075228D01*
X115892647Y-47061695D01*
X115873455Y-47032151D01*
X115875835Y-47002888D01*
X115877840Y-46985650D01*
X115880756Y-46974527D01*
X115884875Y-46968727D01*
X115888101Y-46966313D01*
X115901501Y-46955793D01*
X115915964Y-46943906D01*
X115927840Y-46933633D01*
X115928541Y-46933005D01*
X115935791Y-46927228D01*
X115940282Y-46924854D01*
X115943915Y-46922758D01*
X115951682Y-46916656D01*
X115961691Y-46907952D01*
X115965312Y-46904664D01*
X115973741Y-46896488D01*
X115977641Y-46890669D01*
X115978019Y-46885048D01*
X115975878Y-46877463D01*
X115971394Y-46863876D01*
X115925297Y-46854901D01*
X115911752Y-46852174D01*
X115894526Y-46848171D01*
X115882337Y-46844309D01*
X115873504Y-46840012D01*
X115866348Y-46834704D01*
X115861969Y-46830260D01*
X115855280Y-46819551D01*
X115852871Y-46809174D01*
X115855530Y-46801542D01*
X115856513Y-46800798D01*
X115864366Y-46797647D01*
X115876968Y-46794333D01*
X115891931Y-46791349D01*
X115906872Y-46789188D01*
X115919406Y-46788342D01*
X115928552Y-46788610D01*
G37*
G36*
X116427772Y-46794146D02*
G01*
X116435456Y-46801077D01*
X116443079Y-46813469D01*
X116450832Y-46831780D01*
X116458907Y-46856467D01*
X116467495Y-46887989D01*
X116476788Y-46926805D01*
X116483344Y-46954946D01*
X116490447Y-46982735D01*
X116497156Y-47004405D01*
X116504034Y-47020807D01*
X116511644Y-47032794D01*
X116520551Y-47041215D01*
X116531316Y-47046923D01*
X116544503Y-47050769D01*
X116560676Y-47053604D01*
X116575487Y-47054760D01*
X116588886Y-47052208D01*
X116597384Y-47044698D01*
X116601986Y-47031698D01*
X116602216Y-47029985D01*
X116602646Y-47019804D01*
X116602609Y-47003646D01*
X116602133Y-46982895D01*
X116601246Y-46958935D01*
X116599977Y-46933151D01*
X116598932Y-46913180D01*
X116597612Y-46880541D01*
X116597237Y-46854498D01*
X116597871Y-46834288D01*
X116599583Y-46819149D01*
X116602437Y-46808318D01*
X116606500Y-46801032D01*
X116611838Y-46796528D01*
X116616985Y-46793988D01*
X116624719Y-46792916D01*
X116634660Y-46796037D01*
X116639097Y-46798245D01*
X116645889Y-46804043D01*
X116652393Y-46813731D01*
X116659960Y-46829075D01*
X116667367Y-46848199D01*
X116675725Y-46881028D01*
X116680649Y-46916965D01*
X116682174Y-46954310D01*
X116680333Y-46991360D01*
X116675159Y-47026412D01*
X116666686Y-47057767D01*
X116654947Y-47083720D01*
X116640661Y-47107977D01*
X116609447Y-47115577D01*
X116606467Y-47116281D01*
X116589864Y-47119539D01*
X116574927Y-47121486D01*
X116564578Y-47121720D01*
X116556602Y-47120854D01*
X116534939Y-47118193D01*
X116518338Y-47115409D01*
X116504715Y-47112014D01*
X116491985Y-47107518D01*
X116478064Y-47101433D01*
X116448125Y-47087573D01*
X116436561Y-47059862D01*
X116435886Y-47058232D01*
X116424830Y-47028038D01*
X116414123Y-46992813D01*
X116404344Y-46954983D01*
X116396074Y-46916974D01*
X116389893Y-46881210D01*
X116386381Y-46850115D01*
X116383953Y-46815908D01*
X116396644Y-46804052D01*
X116408197Y-46795688D01*
X116420579Y-46792197D01*
X116427772Y-46794146D01*
G37*
G36*
X116238024Y-46790275D02*
G01*
X116263353Y-46791280D01*
X116285306Y-46793114D01*
X116302109Y-46795797D01*
X116314702Y-46798958D01*
X116322992Y-46802351D01*
X116327616Y-46807000D01*
X116330676Y-46814262D01*
X116333711Y-46825545D01*
X116333664Y-46835272D01*
X116329074Y-46843307D01*
X116319027Y-46851147D01*
X116302611Y-46860291D01*
X116288431Y-46867774D01*
X116279379Y-46873403D01*
X116274348Y-46878497D01*
X116271852Y-46884569D01*
X116270407Y-46893135D01*
X116270282Y-46894201D01*
X116269992Y-46905590D01*
X116270644Y-46922331D01*
X116272121Y-46942345D01*
X116274310Y-46963551D01*
X116276690Y-46986041D01*
X116278857Y-47011511D01*
X116280420Y-47035521D01*
X116281144Y-47054938D01*
X116281157Y-47055838D01*
X116281262Y-47073330D01*
X116280775Y-47084832D01*
X116279369Y-47092084D01*
X116276715Y-47096822D01*
X116272485Y-47100783D01*
X116265573Y-47105473D01*
X116253561Y-47108473D01*
X116242619Y-47103813D01*
X116232482Y-47091430D01*
X116232242Y-47091034D01*
X116226994Y-47081841D01*
X116222660Y-47072752D01*
X116218871Y-47062467D01*
X116215257Y-47049687D01*
X116211449Y-47033113D01*
X116207077Y-47011443D01*
X116201773Y-46983380D01*
X116196732Y-46958074D01*
X116190687Y-46932000D01*
X116184824Y-46911092D01*
X116179475Y-46896646D01*
X116174807Y-46887129D01*
X116169733Y-46879600D01*
X116163165Y-46874124D01*
X116153567Y-46869789D01*
X116139401Y-46865687D01*
X116119132Y-46860907D01*
X116109622Y-46855885D01*
X116100847Y-46845649D01*
X116094806Y-46832837D01*
X116092632Y-46819917D01*
X116095459Y-46809354D01*
X116098629Y-46806899D01*
X116107626Y-46802489D01*
X116119785Y-46797883D01*
X116122898Y-46796968D01*
X116138470Y-46794135D01*
X116159543Y-46792028D01*
X116184344Y-46790669D01*
X116211096Y-46790078D01*
X116238024Y-46790275D01*
G37*
D13*
%TO.C,C5*%
X121915000Y-51638748D02*
X121915000Y-52161252D01*
X123385000Y-51638748D02*
X123385000Y-52161252D01*
%TO.C,C2*%
X115361252Y-38680000D02*
X114838748Y-38680000D01*
X115361252Y-40150000D02*
X114838748Y-40150000D01*
%TO.C,C1*%
X115861252Y-41665000D02*
X115338748Y-41665000D01*
X115861252Y-43135000D02*
X115338748Y-43135000D01*
%TO.C,R3*%
X117065000Y-33992936D02*
X117065000Y-34447064D01*
X118535000Y-33992936D02*
X118535000Y-34447064D01*
%TO.C,D1*%
X116040000Y-50315000D02*
X116040000Y-53000000D01*
X117960000Y-50315000D02*
X116040000Y-50315000D01*
X117960000Y-53000000D02*
X117960000Y-50315000D01*
%TO.C,R1*%
X119985000Y-48010436D02*
X119985000Y-48464564D01*
X118515000Y-48010436D02*
X118515000Y-48464564D01*
%TO.C,J4*%
X133110000Y-46335000D02*
X130250000Y-46335000D01*
X133110000Y-43625000D02*
X133110000Y-46335000D01*
X133110000Y-43625000D02*
X133110000Y-40915000D01*
X133110000Y-40915000D02*
X130250000Y-40915000D01*
X130550000Y-38625000D02*
X130550000Y-36495000D01*
X130550000Y-36495000D02*
X128400000Y-36495000D01*
X130250000Y-50455000D02*
X124050000Y-50455000D01*
X130250000Y-46335000D02*
X130250000Y-50455000D01*
X130250000Y-40915000D02*
X130250000Y-36795000D01*
X130250000Y-36795000D02*
X124050000Y-36795000D01*
X124050000Y-50455000D02*
X124050000Y-43625000D01*
X124050000Y-36795000D02*
X124050000Y-43625000D01*
%TO.C,C4*%
X118465000Y-43738748D02*
X118465000Y-44261252D01*
X119935000Y-43738748D02*
X119935000Y-44261252D01*
%TO.C,C3*%
X120338748Y-38665000D02*
X120861252Y-38665000D01*
X120338748Y-40135000D02*
X120861252Y-40135000D01*
%TO.C,C6*%
X122185000Y-48498752D02*
X122185000Y-47976248D01*
X120715000Y-48498752D02*
X120715000Y-47976248D01*
%TO.C,C7*%
X119865000Y-34138748D02*
X119865000Y-34661252D01*
X121335000Y-34138748D02*
X121335000Y-34661252D01*
%TO.C,R2*%
X114015000Y-52227064D02*
X114015000Y-51772936D01*
X115485000Y-52227064D02*
X115485000Y-51772936D01*
%TO.C,D2*%
X114590000Y-33200000D02*
X114590000Y-35885000D01*
X114590000Y-35885000D02*
X116510000Y-35885000D01*
X116510000Y-35885000D02*
X116510000Y-33200000D01*
%TD*%
M02*
