%TF.GenerationSoftware,KiCad,Pcbnew,8.0.5*%
%TF.CreationDate,2024-10-30T11:17:57-05:00*%
%TF.ProjectId,DataAcq-EnvBreakoutPCB,44617461-4163-4712-9d45-6e7642726561,rev?*%
%TF.SameCoordinates,Original*%
%TF.FileFunction,Copper,L2,Bot*%
%TF.FilePolarity,Positive*%
%FSLAX46Y46*%
G04 Gerber Fmt 4.6, Leading zero omitted, Abs format (unit mm)*
G04 Created by KiCad (PCBNEW 8.0.5) date 2024-10-30 11:17:57*
%MOMM*%
%LPD*%
G01*
G04 APERTURE LIST*
G04 Aperture macros list*
%AMRoundRect*
0 Rectangle with rounded corners*
0 $1 Rounding radius*
0 $2 $3 $4 $5 $6 $7 $8 $9 X,Y pos of 4 corners*
0 Add a 4 corners polygon primitive as box body*
4,1,4,$2,$3,$4,$5,$6,$7,$8,$9,$2,$3,0*
0 Add four circle primitives for the rounded corners*
1,1,$1+$1,$2,$3*
1,1,$1+$1,$4,$5*
1,1,$1+$1,$6,$7*
1,1,$1+$1,$8,$9*
0 Add four rect primitives between the rounded corners*
20,1,$1+$1,$2,$3,$4,$5,0*
20,1,$1+$1,$4,$5,$6,$7,0*
20,1,$1+$1,$6,$7,$8,$9,0*
20,1,$1+$1,$8,$9,$2,$3,0*%
%AMFreePoly0*
4,1,22,0.945671,0.830970,1.026777,0.776777,1.080970,0.695671,1.100000,0.600000,1.100000,-0.600000,1.080970,-0.695671,1.026777,-0.776777,0.945671,-0.830970,0.850000,-0.850000,-0.850000,-0.850000,-0.945671,-0.830970,-1.026777,-0.776777,-1.080970,-0.695671,-1.100000,-0.600000,-1.100000,0.200000,-1.080970,0.295671,-1.026777,0.376777,-0.626777,0.776777,-0.545671,0.830970,-0.450000,0.850000,
0.850000,0.850000,0.945671,0.830970,0.945671,0.830970,$1*%
G04 Aperture macros list end*
%TA.AperFunction,SMDPad,CuDef*%
%ADD10RoundRect,0.250000X-0.475000X0.250000X-0.475000X-0.250000X0.475000X-0.250000X0.475000X0.250000X0*%
%TD*%
%TA.AperFunction,ComponentPad*%
%ADD11RoundRect,0.250000X0.850000X0.600000X-0.850000X0.600000X-0.850000X-0.600000X0.850000X-0.600000X0*%
%TD*%
%TA.AperFunction,ComponentPad*%
%ADD12O,2.200000X1.700000*%
%TD*%
%TA.AperFunction,SMDPad,CuDef*%
%ADD13RoundRect,0.250000X0.475000X-0.250000X0.475000X0.250000X-0.475000X0.250000X-0.475000X-0.250000X0*%
%TD*%
%TA.AperFunction,SMDPad,CuDef*%
%ADD14RoundRect,0.250000X0.450000X-0.262500X0.450000X0.262500X-0.450000X0.262500X-0.450000X-0.262500X0*%
%TD*%
%TA.AperFunction,SMDPad,CuDef*%
%ADD15RoundRect,0.243750X-0.456250X0.243750X-0.456250X-0.243750X0.456250X-0.243750X0.456250X0.243750X0*%
%TD*%
%TA.AperFunction,ComponentPad*%
%ADD16FreePoly0,180.000000*%
%TD*%
%TA.AperFunction,SMDPad,CuDef*%
%ADD17RoundRect,0.250000X-0.450000X0.262500X-0.450000X-0.262500X0.450000X-0.262500X0.450000X0.262500X0*%
%TD*%
%TA.AperFunction,SMDPad,CuDef*%
%ADD18RoundRect,0.243750X0.456250X-0.243750X0.456250X0.243750X-0.456250X0.243750X-0.456250X-0.243750X0*%
%TD*%
%TA.AperFunction,ViaPad*%
%ADD19C,0.600000*%
%TD*%
%TA.AperFunction,Conductor*%
%ADD20C,0.200000*%
%TD*%
G04 APERTURE END LIST*
D10*
%TO.P,C2,1*%
%TO.N,/AFLW_VREG*%
X124200000Y-38340000D03*
%TO.P,C2,2*%
%TO.N,GND*%
X124200000Y-40240000D03*
%TD*%
D11*
%TO.P,J1,1,Pin_1*%
%TO.N,+3.3V*%
X127750000Y-27500000D03*
D12*
%TO.P,J1,2,Pin_2*%
%TO.N,/I2C2_SCL*%
X127750000Y-30000000D03*
%TO.P,J1,3,Pin_3*%
%TO.N,/I2C2_SDA*%
X127750000Y-32500000D03*
%TO.P,J1,4,Pin_4*%
%TO.N,GND*%
X127750000Y-35000000D03*
%TD*%
D13*
%TO.P,C1,1*%
%TO.N,+3.3V*%
X123950000Y-36490000D03*
%TO.P,C1,2*%
%TO.N,GND*%
X123950000Y-34590000D03*
%TD*%
D14*
%TO.P,R3,1*%
%TO.N,+3.3V*%
X121950000Y-42702500D03*
%TO.P,R3,2*%
%TO.N,Net-(D2-A)*%
X121950000Y-40877500D03*
%TD*%
D11*
%TO.P,J3,1,Pin_1*%
%TO.N,+3.3V*%
X127750000Y-41500000D03*
D12*
%TO.P,J3,2,Pin_2*%
%TO.N,/I2C1_SDA*%
X127750000Y-44000000D03*
%TO.P,J3,3,Pin_3*%
%TO.N,/I2C1_SCL*%
X127750000Y-46500000D03*
%TO.P,J3,4,Pin_4*%
%TO.N,GND*%
X127750000Y-49000000D03*
%TD*%
D15*
%TO.P,D1,1,K*%
%TO.N,GNDA*%
X123000000Y-55062500D03*
%TO.P,D1,2,A*%
%TO.N,Net-(D1-A)*%
X123000000Y-56937500D03*
%TD*%
D16*
%TO.P,J2,1,Pin_1*%
%TO.N,VDDA*%
X127750000Y-55750000D03*
D12*
%TO.P,J2,2,Pin_2*%
%TO.N,/PA1(ADC)*%
X127750000Y-58250000D03*
%TO.P,J2,3,Pin_3*%
%TO.N,GNDA*%
X127750000Y-60750000D03*
%TD*%
D10*
%TO.P,C4,1*%
%TO.N,/AFLW_TP1*%
X113450000Y-34390000D03*
%TO.P,C4,2*%
%TO.N,/AFLW_TP2*%
X113450000Y-36290000D03*
%TD*%
%TO.P,C3,1*%
%TO.N,/AFLW_VCM*%
X113450000Y-38090000D03*
%TO.P,C3,2*%
%TO.N,GND*%
X113450000Y-39990000D03*
%TD*%
%TO.P,C7,1*%
%TO.N,+3.3V*%
X116500000Y-45300000D03*
%TO.P,C7,2*%
%TO.N,GND*%
X116500000Y-47200000D03*
%TD*%
D17*
%TO.P,R2,1*%
%TO.N,VDDA*%
X120750000Y-55087500D03*
%TO.P,R2,2*%
%TO.N,Net-(D1-A)*%
X120750000Y-56912500D03*
%TD*%
D18*
%TO.P,D2,1,K*%
%TO.N,GND*%
X119700000Y-42707500D03*
%TO.P,D2,2,A*%
%TO.N,Net-(D2-A)*%
X119700000Y-40832500D03*
%TD*%
D19*
%TO.N,+3.3V*%
X121950000Y-36770000D03*
%TO.N,GND*%
X119700000Y-42707500D03*
X123950000Y-34590000D03*
X124200000Y-40240000D03*
X113450000Y-39990000D03*
X116500000Y-47200000D03*
%TO.N,/AFLW_VREG*%
X124200000Y-38340000D03*
%TO.N,/AFLW_VCM*%
X113450000Y-38090000D03*
%TO.N,/AFLW_TP1*%
X113450000Y-34390000D03*
%TO.N,/AFLW_TP2*%
X113450000Y-36290000D03*
%TO.N,VDDA*%
X120750000Y-55087500D03*
%TO.N,GNDA*%
X123000000Y-55062500D03*
%TO.N,/PA1(ADC)*%
X117000000Y-52300000D03*
%TO.N,/I2C2_SDA*%
X115550000Y-32960000D03*
%TO.N,/I2C1_SCL*%
X121000000Y-46250000D03*
%TD*%
D20*
%TO.N,/PA1(ADC)*%
X127750000Y-58250000D02*
X121800000Y-52300000D01*
X121800000Y-52300000D02*
X117000000Y-52300000D01*
%TO.N,Net-(D1-A)*%
X120775000Y-56937500D02*
X120750000Y-56912500D01*
X123000000Y-56937500D02*
X120775000Y-56937500D01*
%TO.N,Net-(D2-A)*%
X119745000Y-40877500D02*
X119700000Y-40832500D01*
X121950000Y-40877500D02*
X119745000Y-40877500D01*
%TO.N,/I2C2_SDA*%
X127750000Y-32500000D02*
X116010000Y-32500000D01*
X116010000Y-32500000D02*
X115550000Y-32960000D01*
%TO.N,/I2C1_SCL*%
X127750000Y-46500000D02*
X121250000Y-46500000D01*
X121250000Y-46500000D02*
X121000000Y-46250000D01*
%TD*%
%TA.AperFunction,Conductor*%
%TO.N,+3.3V*%
G36*
X128437967Y-23300498D02*
G01*
X128437973Y-23300500D01*
X128452405Y-23300500D01*
X128496249Y-23300500D01*
X128503736Y-23300726D01*
X128757638Y-23316084D01*
X128772495Y-23317888D01*
X129019000Y-23363061D01*
X129033536Y-23366644D01*
X129272791Y-23441200D01*
X129286788Y-23446508D01*
X129515319Y-23549361D01*
X129528578Y-23556320D01*
X129635808Y-23621143D01*
X129743045Y-23685970D01*
X129755356Y-23694468D01*
X129952239Y-23848716D01*
X129952636Y-23849027D01*
X129963844Y-23858957D01*
X130141042Y-24036155D01*
X130150972Y-24047363D01*
X130305351Y-24244413D01*
X130305527Y-24244637D01*
X130314033Y-24256960D01*
X130443679Y-24471421D01*
X130450638Y-24484680D01*
X130553491Y-24713211D01*
X130558800Y-24727211D01*
X130633354Y-24966461D01*
X130636938Y-24981001D01*
X130682110Y-25227500D01*
X130683915Y-25242364D01*
X130699274Y-25496263D01*
X130699500Y-25503750D01*
X130699500Y-61746249D01*
X130699274Y-61753736D01*
X130683915Y-62007635D01*
X130682110Y-62022499D01*
X130636938Y-62268998D01*
X130633354Y-62283538D01*
X130558800Y-62522788D01*
X130553491Y-62536788D01*
X130450638Y-62765319D01*
X130443679Y-62778578D01*
X130314033Y-62993039D01*
X130305527Y-63005362D01*
X130150972Y-63202636D01*
X130141042Y-63213844D01*
X129963844Y-63391042D01*
X129952636Y-63400972D01*
X129755362Y-63555527D01*
X129743039Y-63564033D01*
X129528578Y-63693679D01*
X129515319Y-63700638D01*
X129286788Y-63803491D01*
X129272788Y-63808800D01*
X129033538Y-63883354D01*
X129018998Y-63886938D01*
X128772499Y-63932110D01*
X128757635Y-63933915D01*
X128503736Y-63949274D01*
X128496249Y-63949500D01*
X128452405Y-63949500D01*
X128452403Y-63949500D01*
X128452342Y-63949500D01*
X114521503Y-63949560D01*
X114514048Y-63949336D01*
X114259149Y-63933985D01*
X114244350Y-63932196D01*
X113996814Y-63887040D01*
X113982338Y-63883488D01*
X113742005Y-63808953D01*
X113728060Y-63803690D01*
X113498408Y-63700853D01*
X113485195Y-63693955D01*
X113269546Y-63564308D01*
X113257256Y-63555874D01*
X113255864Y-63554790D01*
X113058712Y-63401279D01*
X113047534Y-63391440D01*
X112868980Y-63214142D01*
X112859055Y-63203025D01*
X112703064Y-63005578D01*
X112694544Y-62993347D01*
X112563377Y-62778617D01*
X112556385Y-62765452D01*
X112510529Y-62664954D01*
X112451931Y-62536530D01*
X112446576Y-62522640D01*
X112370344Y-62282829D01*
X112366690Y-62268378D01*
X112328530Y-62067246D01*
X112319786Y-62021158D01*
X112317894Y-62006377D01*
X112317569Y-62001555D01*
X112300780Y-61752138D01*
X112300500Y-61743810D01*
X112300500Y-60885010D01*
X119745500Y-60885010D01*
X119745500Y-61114989D01*
X119745501Y-61115005D01*
X119775518Y-61343009D01*
X119775519Y-61343014D01*
X119775520Y-61343020D01*
X119835046Y-61565175D01*
X119835049Y-61565185D01*
X119923057Y-61777654D01*
X119923061Y-61777664D01*
X120038055Y-61976839D01*
X120178064Y-62159303D01*
X120178070Y-62159310D01*
X120340689Y-62321929D01*
X120340696Y-62321935D01*
X120523160Y-62461944D01*
X120722335Y-62576938D01*
X120722336Y-62576938D01*
X120722339Y-62576940D01*
X120934824Y-62664954D01*
X121156980Y-62724480D01*
X121385004Y-62754500D01*
X121385011Y-62754500D01*
X121614989Y-62754500D01*
X121614996Y-62754500D01*
X121843020Y-62724480D01*
X122065176Y-62664954D01*
X122277661Y-62576940D01*
X122476840Y-62461944D01*
X122659305Y-62321934D01*
X122821934Y-62159305D01*
X122961944Y-61976840D01*
X123076940Y-61777661D01*
X123164954Y-61565176D01*
X123224480Y-61343020D01*
X123254500Y-61114996D01*
X123254500Y-60885004D01*
X123224480Y-60656980D01*
X123164954Y-60434824D01*
X123076940Y-60222339D01*
X122961944Y-60023160D01*
X122821934Y-59840695D01*
X122821929Y-59840689D01*
X122659310Y-59678070D01*
X122659303Y-59678064D01*
X122476839Y-59538055D01*
X122277664Y-59423061D01*
X122277654Y-59423057D01*
X122065185Y-59335049D01*
X122065178Y-59335047D01*
X122065176Y-59335046D01*
X121843020Y-59275520D01*
X121843014Y-59275519D01*
X121843009Y-59275518D01*
X121615005Y-59245501D01*
X121615002Y-59245500D01*
X121614996Y-59245500D01*
X121385004Y-59245500D01*
X121384998Y-59245500D01*
X121384994Y-59245501D01*
X121156990Y-59275518D01*
X121156983Y-59275519D01*
X121156980Y-59275520D01*
X120934824Y-59335046D01*
X120934814Y-59335049D01*
X120722345Y-59423057D01*
X120722335Y-59423061D01*
X120523160Y-59538055D01*
X120340696Y-59678064D01*
X120340689Y-59678070D01*
X120178070Y-59840689D01*
X120178064Y-59840696D01*
X120038055Y-60023160D01*
X119923061Y-60222335D01*
X119923057Y-60222345D01*
X119835049Y-60434814D01*
X119835046Y-60434824D01*
X119775521Y-60656977D01*
X119775518Y-60656990D01*
X119745501Y-60884994D01*
X119745500Y-60885010D01*
X112300500Y-60885010D01*
X112300500Y-52299996D01*
X116194435Y-52299996D01*
X116194435Y-52300003D01*
X116214630Y-52479249D01*
X116214631Y-52479254D01*
X116274211Y-52649523D01*
X116370184Y-52802262D01*
X116497738Y-52929816D01*
X116650478Y-53025789D01*
X116820745Y-53085368D01*
X116820750Y-53085369D01*
X116999996Y-53105565D01*
X117000000Y-53105565D01*
X117000004Y-53105565D01*
X117179249Y-53085369D01*
X117179252Y-53085368D01*
X117179255Y-53085368D01*
X117349522Y-53025789D01*
X117502262Y-52929816D01*
X117502267Y-52929810D01*
X117505097Y-52927555D01*
X117507275Y-52926665D01*
X117508158Y-52926111D01*
X117508255Y-52926265D01*
X117569783Y-52901145D01*
X117582412Y-52900500D01*
X121499903Y-52900500D01*
X121566942Y-52920185D01*
X121587584Y-52936819D01*
X122519324Y-53868559D01*
X122552809Y-53929882D01*
X122547825Y-53999574D01*
X122505953Y-54055507D01*
X122444246Y-54079598D01*
X122392223Y-54084913D01*
X122227077Y-54139637D01*
X122227066Y-54139642D01*
X122079000Y-54230971D01*
X121960850Y-54349121D01*
X121899527Y-54382605D01*
X121829835Y-54377621D01*
X121785488Y-54349120D01*
X121668657Y-54232289D01*
X121668656Y-54232288D01*
X121519334Y-54140186D01*
X121352797Y-54085001D01*
X121352795Y-54085000D01*
X121250010Y-54074500D01*
X120249998Y-54074500D01*
X120249980Y-54074501D01*
X120147203Y-54085000D01*
X120147200Y-54085001D01*
X119980668Y-54140185D01*
X119980663Y-54140187D01*
X119831342Y-54232289D01*
X119707289Y-54356342D01*
X119615187Y-54505663D01*
X119615185Y-54505668D01*
X119600699Y-54549385D01*
X119560001Y-54672203D01*
X119560001Y-54672204D01*
X119560000Y-54672204D01*
X119549500Y-54774983D01*
X119549500Y-55400001D01*
X119549501Y-55400019D01*
X119560000Y-55502796D01*
X119560001Y-55502799D01*
X119615185Y-55669331D01*
X119615187Y-55669336D01*
X119707289Y-55818657D01*
X119800951Y-55912319D01*
X119834436Y-55973642D01*
X119829452Y-56043334D01*
X119800951Y-56087681D01*
X119707289Y-56181342D01*
X119615187Y-56330663D01*
X119615185Y-56330668D01*
X119599807Y-56377077D01*
X119560001Y-56497203D01*
X119560001Y-56497204D01*
X119560000Y-56497204D01*
X119549500Y-56599983D01*
X119549500Y-57225001D01*
X119549501Y-57225019D01*
X119560000Y-57327796D01*
X119560001Y-57327799D01*
X119593351Y-57428441D01*
X119615186Y-57494334D01*
X119707288Y-57643656D01*
X119831344Y-57767712D01*
X119980666Y-57859814D01*
X120147203Y-57914999D01*
X120249991Y-57925500D01*
X121250008Y-57925499D01*
X121250016Y-57925498D01*
X121250019Y-57925498D01*
X121306302Y-57919748D01*
X121352797Y-57914999D01*
X121519334Y-57859814D01*
X121668656Y-57767712D01*
X121785491Y-57650876D01*
X121846810Y-57617394D01*
X121916502Y-57622378D01*
X121960850Y-57650879D01*
X122078996Y-57769025D01*
X122079000Y-57769028D01*
X122227066Y-57860357D01*
X122227069Y-57860358D01*
X122227075Y-57860362D01*
X122392225Y-57915087D01*
X122494152Y-57925500D01*
X122494157Y-57925500D01*
X123505843Y-57925500D01*
X123505848Y-57925500D01*
X123607775Y-57915087D01*
X123772925Y-57860362D01*
X123921003Y-57769026D01*
X124044026Y-57646003D01*
X124135362Y-57497925D01*
X124190087Y-57332775D01*
X124200500Y-57230848D01*
X124200500Y-56644152D01*
X124190087Y-56542225D01*
X124135362Y-56377075D01*
X124135358Y-56377069D01*
X124135357Y-56377066D01*
X124044028Y-56229000D01*
X124044025Y-56228996D01*
X123921004Y-56105975D01*
X123921003Y-56105974D01*
X123920301Y-56105541D01*
X123919921Y-56105118D01*
X123915336Y-56101493D01*
X123915955Y-56100709D01*
X123873575Y-56053598D01*
X123862349Y-55984636D01*
X123890188Y-55920552D01*
X123915455Y-55898657D01*
X123915336Y-55898507D01*
X123918687Y-55895856D01*
X123920299Y-55894459D01*
X123921003Y-55894026D01*
X124044026Y-55771003D01*
X124105806Y-55670841D01*
X124157752Y-55624120D01*
X124226715Y-55612897D01*
X124290797Y-55640741D01*
X124299024Y-55648260D01*
X126229938Y-57579174D01*
X126263423Y-57640497D01*
X126258439Y-57710189D01*
X126252744Y-57723145D01*
X126248443Y-57731586D01*
X126248442Y-57731588D01*
X126182753Y-57933759D01*
X126149500Y-58143713D01*
X126149500Y-58356286D01*
X126182753Y-58566239D01*
X126248444Y-58768414D01*
X126344951Y-58957820D01*
X126469890Y-59129786D01*
X126620209Y-59280105D01*
X126620214Y-59280109D01*
X126784793Y-59399682D01*
X126827459Y-59455011D01*
X126833438Y-59524625D01*
X126800833Y-59586420D01*
X126784793Y-59600318D01*
X126620214Y-59719890D01*
X126620209Y-59719894D01*
X126469890Y-59870213D01*
X126344951Y-60042179D01*
X126248444Y-60231585D01*
X126182753Y-60433760D01*
X126149500Y-60643713D01*
X126149500Y-60856286D01*
X126182753Y-61066239D01*
X126248444Y-61268414D01*
X126344951Y-61457820D01*
X126469890Y-61629786D01*
X126620213Y-61780109D01*
X126792179Y-61905048D01*
X126792181Y-61905049D01*
X126792184Y-61905051D01*
X126981588Y-62001557D01*
X127183757Y-62067246D01*
X127393713Y-62100500D01*
X127393714Y-62100500D01*
X128106286Y-62100500D01*
X128106287Y-62100500D01*
X128316243Y-62067246D01*
X128518412Y-62001557D01*
X128707816Y-61905051D01*
X128729789Y-61889086D01*
X128879786Y-61780109D01*
X128879788Y-61780106D01*
X128879792Y-61780104D01*
X129030104Y-61629792D01*
X129030106Y-61629788D01*
X129030109Y-61629786D01*
X129155048Y-61457820D01*
X129155047Y-61457820D01*
X129155051Y-61457816D01*
X129251557Y-61268412D01*
X129317246Y-61066243D01*
X129350500Y-60856287D01*
X129350500Y-60643713D01*
X129317246Y-60433757D01*
X129251557Y-60231588D01*
X129155051Y-60042184D01*
X129155049Y-60042181D01*
X129155048Y-60042179D01*
X129030109Y-59870213D01*
X128879792Y-59719896D01*
X128822223Y-59678070D01*
X128715204Y-59600316D01*
X128672540Y-59544989D01*
X128666561Y-59475376D01*
X128699166Y-59413580D01*
X128715199Y-59399686D01*
X128879792Y-59280104D01*
X129030104Y-59129792D01*
X129030106Y-59129788D01*
X129030109Y-59129786D01*
X129155048Y-58957820D01*
X129155047Y-58957820D01*
X129155051Y-58957816D01*
X129251557Y-58768412D01*
X129317246Y-58566243D01*
X129350500Y-58356287D01*
X129350500Y-58143713D01*
X129325275Y-57984451D01*
X129334229Y-57915160D01*
X129379225Y-57861708D01*
X129400292Y-57850495D01*
X129518441Y-57801557D01*
X129666585Y-57702571D01*
X129792571Y-57576585D01*
X129891557Y-57428441D01*
X129959740Y-57263833D01*
X129994500Y-57089085D01*
X129994500Y-56910915D01*
X129994500Y-56910912D01*
X129959741Y-56736172D01*
X129959740Y-56736171D01*
X129959740Y-56736167D01*
X129891557Y-56571559D01*
X129792571Y-56423415D01*
X129792569Y-56423412D01*
X129666587Y-56297430D01*
X129518440Y-56198442D01*
X129428144Y-56161040D01*
X129373741Y-56117198D01*
X129351677Y-56050904D01*
X129352195Y-56034326D01*
X129357089Y-55984636D01*
X129360500Y-55950000D01*
X129360500Y-55150000D01*
X129350787Y-55051380D01*
X129331376Y-54953796D01*
X129317994Y-54901366D01*
X129255897Y-54771576D01*
X129200620Y-54688848D01*
X129168191Y-54645527D01*
X129061152Y-54549380D01*
X129019227Y-54521367D01*
X128978423Y-54494102D01*
X128931887Y-54466491D01*
X128931886Y-54466490D01*
X128796210Y-54418625D01*
X128796204Y-54418624D01*
X128748065Y-54409048D01*
X128698616Y-54399212D01*
X128624188Y-54391882D01*
X128600000Y-54389500D01*
X126900000Y-54389500D01*
X126878453Y-54391622D01*
X126801383Y-54399212D01*
X126703793Y-54418624D01*
X126703771Y-54418629D01*
X126651371Y-54432004D01*
X126651367Y-54432005D01*
X126521572Y-54494105D01*
X126438854Y-54549375D01*
X126438840Y-54549385D01*
X126395527Y-54581809D01*
X126299377Y-54688851D01*
X126299377Y-54688852D01*
X126244102Y-54771576D01*
X126216491Y-54818112D01*
X126216490Y-54818113D01*
X126168625Y-54953789D01*
X126168624Y-54953796D01*
X126149212Y-55051383D01*
X126139500Y-55150002D01*
X126139500Y-55490902D01*
X126119815Y-55557941D01*
X126067011Y-55603696D01*
X125997853Y-55613640D01*
X125934297Y-55584615D01*
X125927819Y-55578583D01*
X122287590Y-51938355D01*
X122287588Y-51938352D01*
X122168717Y-51819481D01*
X122168709Y-51819475D01*
X122066936Y-51760717D01*
X122066934Y-51760716D01*
X122031790Y-51740425D01*
X122031789Y-51740424D01*
X122019263Y-51737067D01*
X121879057Y-51699499D01*
X121720943Y-51699499D01*
X121713347Y-51699499D01*
X121713331Y-51699500D01*
X117582412Y-51699500D01*
X117515373Y-51679815D01*
X117505097Y-51672445D01*
X117502263Y-51670185D01*
X117502262Y-51670184D01*
X117445496Y-51634515D01*
X117349523Y-51574211D01*
X117179254Y-51514631D01*
X117179249Y-51514630D01*
X117000004Y-51494435D01*
X116999996Y-51494435D01*
X116820750Y-51514630D01*
X116820745Y-51514631D01*
X116650476Y-51574211D01*
X116497737Y-51670184D01*
X116370184Y-51797737D01*
X116274211Y-51950476D01*
X116214631Y-52120745D01*
X116214630Y-52120750D01*
X116194435Y-52299996D01*
X112300500Y-52299996D01*
X112300500Y-46899983D01*
X115274500Y-46899983D01*
X115274500Y-47500001D01*
X115274501Y-47500019D01*
X115285000Y-47602796D01*
X115285001Y-47602799D01*
X115318871Y-47705011D01*
X115340186Y-47769334D01*
X115432288Y-47918656D01*
X115556344Y-48042712D01*
X115705666Y-48134814D01*
X115872203Y-48189999D01*
X115974991Y-48200500D01*
X117025008Y-48200499D01*
X117025016Y-48200498D01*
X117025019Y-48200498D01*
X117081302Y-48194748D01*
X117127797Y-48189999D01*
X117294334Y-48134814D01*
X117443656Y-48042712D01*
X117567712Y-47918656D01*
X117659814Y-47769334D01*
X117714999Y-47602797D01*
X117725500Y-47500009D01*
X117725499Y-46899992D01*
X117714999Y-46797203D01*
X117659814Y-46630666D01*
X117567712Y-46481344D01*
X117443656Y-46357288D01*
X117440342Y-46355243D01*
X117438546Y-46353248D01*
X117437989Y-46352807D01*
X117438064Y-46352711D01*
X117393618Y-46303297D01*
X117384945Y-46249996D01*
X120194435Y-46249996D01*
X120194435Y-46250003D01*
X120214630Y-46429249D01*
X120214631Y-46429254D01*
X120274211Y-46599523D01*
X120293778Y-46630663D01*
X120370184Y-46752262D01*
X120497738Y-46879816D01*
X120650478Y-46975789D01*
X120772288Y-47018412D01*
X120820745Y-47035368D01*
X120820750Y-47035369D01*
X120996360Y-47055155D01*
X121014570Y-47058600D01*
X121018215Y-47059576D01*
X121018216Y-47059577D01*
X121130019Y-47089534D01*
X121170942Y-47100500D01*
X121170943Y-47100500D01*
X126214281Y-47100500D01*
X126281320Y-47120185D01*
X126324765Y-47168205D01*
X126344947Y-47207814D01*
X126344948Y-47207815D01*
X126469890Y-47379786D01*
X126620209Y-47530105D01*
X126620214Y-47530109D01*
X126784793Y-47649682D01*
X126827459Y-47705011D01*
X126833438Y-47774625D01*
X126800833Y-47836420D01*
X126784793Y-47850318D01*
X126620214Y-47969890D01*
X126620209Y-47969894D01*
X126469890Y-48120213D01*
X126344951Y-48292179D01*
X126248444Y-48481585D01*
X126182753Y-48683760D01*
X126149500Y-48893713D01*
X126149500Y-49106286D01*
X126182753Y-49316239D01*
X126248444Y-49518414D01*
X126344951Y-49707820D01*
X126469890Y-49879786D01*
X126620213Y-50030109D01*
X126792179Y-50155048D01*
X126792181Y-50155049D01*
X126792184Y-50155051D01*
X126981588Y-50251557D01*
X127183757Y-50317246D01*
X127393713Y-50350500D01*
X127393714Y-50350500D01*
X128106286Y-50350500D01*
X128106287Y-50350500D01*
X128316243Y-50317246D01*
X128518412Y-50251557D01*
X128707816Y-50155051D01*
X128729789Y-50139086D01*
X128879786Y-50030109D01*
X128879788Y-50030106D01*
X128879792Y-50030104D01*
X129030104Y-49879792D01*
X129030106Y-49879788D01*
X129030109Y-49879786D01*
X129155048Y-49707820D01*
X129155047Y-49707820D01*
X129155051Y-49707816D01*
X129251557Y-49518412D01*
X129317246Y-49316243D01*
X129350500Y-49106287D01*
X129350500Y-48893713D01*
X129317246Y-48683757D01*
X129251557Y-48481588D01*
X129155051Y-48292184D01*
X129155049Y-48292181D01*
X129155048Y-48292179D01*
X129030109Y-48120213D01*
X128879792Y-47969896D01*
X128809267Y-47918657D01*
X128715204Y-47850316D01*
X128672540Y-47794989D01*
X128666561Y-47725376D01*
X128699166Y-47663580D01*
X128715199Y-47649686D01*
X128879792Y-47530104D01*
X129030104Y-47379792D01*
X129030106Y-47379788D01*
X129030109Y-47379786D01*
X129155048Y-47207820D01*
X129155047Y-47207820D01*
X129155051Y-47207816D01*
X129251557Y-47018412D01*
X129317246Y-46816243D01*
X129350500Y-46606287D01*
X129350500Y-46393713D01*
X129325275Y-46234451D01*
X129334229Y-46165160D01*
X129379225Y-46111708D01*
X129400292Y-46100495D01*
X129518441Y-46051557D01*
X129666585Y-45952571D01*
X129792571Y-45826585D01*
X129891557Y-45678441D01*
X129959740Y-45513833D01*
X129994500Y-45339085D01*
X129994500Y-45160915D01*
X129994500Y-45160912D01*
X129959741Y-44986172D01*
X129959740Y-44986171D01*
X129959740Y-44986167D01*
X129891557Y-44821559D01*
X129792571Y-44673415D01*
X129792569Y-44673412D01*
X129666587Y-44547430D01*
X129518439Y-44448441D01*
X129400295Y-44399505D01*
X129345892Y-44355664D01*
X129323827Y-44289370D01*
X129325274Y-44265552D01*
X129350500Y-44106287D01*
X129350500Y-43893713D01*
X129317246Y-43683757D01*
X129251557Y-43481588D01*
X129155051Y-43292184D01*
X129155049Y-43292181D01*
X129155048Y-43292179D01*
X129030109Y-43120213D01*
X128890931Y-42981035D01*
X128857446Y-42919712D01*
X128862430Y-42850020D01*
X128904302Y-42794087D01*
X128913516Y-42787815D01*
X129068343Y-42692317D01*
X129192315Y-42568345D01*
X129284356Y-42419124D01*
X129284358Y-42419119D01*
X129339505Y-42252697D01*
X129339506Y-42252690D01*
X129349999Y-42149986D01*
X129350000Y-42149973D01*
X129350000Y-41750000D01*
X128298482Y-41750000D01*
X128309111Y-41731591D01*
X128350000Y-41578991D01*
X128350000Y-41421009D01*
X128309111Y-41268409D01*
X128298482Y-41250000D01*
X129349999Y-41250000D01*
X129349999Y-40850028D01*
X129349998Y-40850013D01*
X129339505Y-40747302D01*
X129284358Y-40580880D01*
X129284356Y-40580875D01*
X129192315Y-40431654D01*
X129068345Y-40307684D01*
X128919124Y-40215643D01*
X128919119Y-40215641D01*
X128752697Y-40160494D01*
X128752690Y-40160493D01*
X128649986Y-40150000D01*
X128000000Y-40150000D01*
X128000000Y-40951517D01*
X127981591Y-40940889D01*
X127828991Y-40900000D01*
X127671009Y-40900000D01*
X127518409Y-40940889D01*
X127500000Y-40951517D01*
X127500000Y-40150000D01*
X126850028Y-40150000D01*
X126850012Y-40150001D01*
X126747302Y-40160494D01*
X126580880Y-40215641D01*
X126580875Y-40215643D01*
X126431654Y-40307684D01*
X126307684Y-40431654D01*
X126215643Y-40580875D01*
X126215641Y-40580880D01*
X126160494Y-40747302D01*
X126160493Y-40747309D01*
X126150000Y-40850013D01*
X126150000Y-41250000D01*
X127201518Y-41250000D01*
X127190889Y-41268409D01*
X127150000Y-41421009D01*
X127150000Y-41578991D01*
X127190889Y-41731591D01*
X127201518Y-41750000D01*
X126150001Y-41750000D01*
X126150001Y-42149986D01*
X126160494Y-42252697D01*
X126215641Y-42419119D01*
X126215643Y-42419124D01*
X126307684Y-42568345D01*
X126431654Y-42692315D01*
X126586484Y-42787815D01*
X126633208Y-42839763D01*
X126644431Y-42908726D01*
X126616587Y-42972808D01*
X126609069Y-42981035D01*
X126469889Y-43120215D01*
X126344951Y-43292179D01*
X126248444Y-43481585D01*
X126248443Y-43481587D01*
X126248443Y-43481588D01*
X126229780Y-43539026D01*
X126182753Y-43683760D01*
X126149500Y-43893713D01*
X126149500Y-44106286D01*
X126180181Y-44300001D01*
X126182754Y-44316243D01*
X126228711Y-44457684D01*
X126248444Y-44518414D01*
X126344951Y-44707820D01*
X126469890Y-44879786D01*
X126620209Y-45030105D01*
X126620214Y-45030109D01*
X126784793Y-45149682D01*
X126827459Y-45205011D01*
X126833438Y-45274625D01*
X126800833Y-45336420D01*
X126784793Y-45350318D01*
X126620214Y-45469890D01*
X126620209Y-45469894D01*
X126469890Y-45620213D01*
X126344948Y-45792184D01*
X126344947Y-45792185D01*
X126324765Y-45831795D01*
X126276791Y-45882591D01*
X126214281Y-45899500D01*
X121793707Y-45899500D01*
X121726668Y-45879815D01*
X121688713Y-45841472D01*
X121629815Y-45747737D01*
X121502262Y-45620184D01*
X121349523Y-45524211D01*
X121179254Y-45464631D01*
X121179249Y-45464630D01*
X121000004Y-45444435D01*
X120999996Y-45444435D01*
X120820750Y-45464630D01*
X120820745Y-45464631D01*
X120650476Y-45524211D01*
X120497737Y-45620184D01*
X120370184Y-45747737D01*
X120274211Y-45900476D01*
X120214631Y-46070745D01*
X120214630Y-46070750D01*
X120194435Y-46249996D01*
X117384945Y-46249996D01*
X117382397Y-46234334D01*
X117410240Y-46170252D01*
X117440348Y-46144165D01*
X117443342Y-46142318D01*
X117567315Y-46018345D01*
X117659356Y-45869124D01*
X117659358Y-45869119D01*
X117714505Y-45702697D01*
X117714506Y-45702690D01*
X117724999Y-45599986D01*
X117725000Y-45599973D01*
X117725000Y-45550000D01*
X115275001Y-45550000D01*
X115275001Y-45599986D01*
X115285494Y-45702697D01*
X115340641Y-45869119D01*
X115340643Y-45869124D01*
X115432684Y-46018345D01*
X115556655Y-46142316D01*
X115556659Y-46142319D01*
X115559656Y-46144168D01*
X115561279Y-46145972D01*
X115562323Y-46146798D01*
X115562181Y-46146976D01*
X115606381Y-46196116D01*
X115617602Y-46265079D01*
X115589759Y-46329161D01*
X115559661Y-46355241D01*
X115556349Y-46357283D01*
X115556343Y-46357288D01*
X115432289Y-46481342D01*
X115340187Y-46630663D01*
X115340186Y-46630666D01*
X115285001Y-46797203D01*
X115285001Y-46797204D01*
X115285000Y-46797204D01*
X115274500Y-46899983D01*
X112300500Y-46899983D01*
X112300500Y-45000013D01*
X115275000Y-45000013D01*
X115275000Y-45050000D01*
X116250000Y-45050000D01*
X116750000Y-45050000D01*
X117724999Y-45050000D01*
X117724999Y-45000028D01*
X117724998Y-45000013D01*
X117714505Y-44897302D01*
X117659358Y-44730880D01*
X117659356Y-44730875D01*
X117567315Y-44581654D01*
X117443345Y-44457684D01*
X117294124Y-44365643D01*
X117294119Y-44365641D01*
X117127697Y-44310494D01*
X117127690Y-44310493D01*
X117024986Y-44300000D01*
X116750000Y-44300000D01*
X116750000Y-45050000D01*
X116250000Y-45050000D01*
X116250000Y-44300000D01*
X115975029Y-44300000D01*
X115975012Y-44300001D01*
X115872302Y-44310494D01*
X115705880Y-44365641D01*
X115705875Y-44365643D01*
X115556654Y-44457684D01*
X115432684Y-44581654D01*
X115340643Y-44730875D01*
X115340641Y-44730880D01*
X115285494Y-44897302D01*
X115285493Y-44897309D01*
X115275000Y-45000013D01*
X112300500Y-45000013D01*
X112300500Y-40926077D01*
X112320185Y-40859038D01*
X112372989Y-40813283D01*
X112442147Y-40803339D01*
X112501413Y-40828812D01*
X112506340Y-40832708D01*
X112506344Y-40832712D01*
X112655666Y-40924814D01*
X112822203Y-40979999D01*
X112924991Y-40990500D01*
X113975008Y-40990499D01*
X113975016Y-40990498D01*
X113975019Y-40990498D01*
X114031302Y-40984748D01*
X114077797Y-40979999D01*
X114244334Y-40924814D01*
X114393656Y-40832712D01*
X114517712Y-40708656D01*
X114609814Y-40559334D01*
X114616504Y-40539144D01*
X118499500Y-40539144D01*
X118499500Y-41125855D01*
X118509913Y-41227776D01*
X118564637Y-41392922D01*
X118564642Y-41392933D01*
X118655971Y-41540999D01*
X118655974Y-41541003D01*
X118778996Y-41664025D01*
X118779000Y-41664028D01*
X118779703Y-41664462D01*
X118780083Y-41664885D01*
X118784664Y-41668507D01*
X118784045Y-41669289D01*
X118826428Y-41716410D01*
X118837649Y-41785372D01*
X118809806Y-41849454D01*
X118784544Y-41871342D01*
X118784664Y-41871493D01*
X118781315Y-41874140D01*
X118779703Y-41875538D01*
X118779000Y-41875971D01*
X118778996Y-41875974D01*
X118655974Y-41998996D01*
X118655971Y-41999000D01*
X118564642Y-42147066D01*
X118564637Y-42147077D01*
X118509913Y-42312223D01*
X118499500Y-42414144D01*
X118499500Y-43000855D01*
X118509913Y-43102776D01*
X118564637Y-43267922D01*
X118564642Y-43267933D01*
X118655971Y-43415999D01*
X118655974Y-43416003D01*
X118778996Y-43539025D01*
X118779000Y-43539028D01*
X118927066Y-43630357D01*
X118927069Y-43630358D01*
X118927075Y-43630362D01*
X119092225Y-43685087D01*
X119194152Y-43695500D01*
X119194157Y-43695500D01*
X120205843Y-43695500D01*
X120205848Y-43695500D01*
X120307775Y-43685087D01*
X120472925Y-43630362D01*
X120621003Y-43539026D01*
X120729503Y-43430526D01*
X120790826Y-43397041D01*
X120860518Y-43402025D01*
X120904865Y-43430526D01*
X121031654Y-43557315D01*
X121180875Y-43649356D01*
X121180880Y-43649358D01*
X121347302Y-43704505D01*
X121347309Y-43704506D01*
X121450019Y-43714999D01*
X121699999Y-43714999D01*
X122200000Y-43714999D01*
X122449972Y-43714999D01*
X122449986Y-43714998D01*
X122552697Y-43704505D01*
X122719119Y-43649358D01*
X122719124Y-43649356D01*
X122868345Y-43557315D01*
X122992315Y-43433345D01*
X123084356Y-43284124D01*
X123084358Y-43284119D01*
X123139505Y-43117697D01*
X123139506Y-43117690D01*
X123149999Y-43014986D01*
X123150000Y-43014973D01*
X123150000Y-42952500D01*
X122200000Y-42952500D01*
X122200000Y-43714999D01*
X121699999Y-43714999D01*
X121700000Y-43714998D01*
X121700000Y-42576500D01*
X121719685Y-42509461D01*
X121772489Y-42463706D01*
X121824000Y-42452500D01*
X123149999Y-42452500D01*
X123149999Y-42390028D01*
X123149998Y-42390013D01*
X123139505Y-42287302D01*
X123084358Y-42120880D01*
X123084356Y-42120875D01*
X122992315Y-41971654D01*
X122898695Y-41878034D01*
X122865210Y-41816711D01*
X122870194Y-41747019D01*
X122898691Y-41702676D01*
X122992712Y-41608656D01*
X123084814Y-41459334D01*
X123139999Y-41292797D01*
X123146983Y-41224432D01*
X123173379Y-41159741D01*
X123230559Y-41119590D01*
X123300370Y-41116726D01*
X123335438Y-41131497D01*
X123405657Y-41174809D01*
X123405660Y-41174810D01*
X123405666Y-41174814D01*
X123572203Y-41229999D01*
X123674991Y-41240500D01*
X124725008Y-41240499D01*
X124725016Y-41240498D01*
X124725019Y-41240498D01*
X124781302Y-41234748D01*
X124827797Y-41229999D01*
X124994334Y-41174814D01*
X125143656Y-41082712D01*
X125267712Y-40958656D01*
X125359814Y-40809334D01*
X125414999Y-40642797D01*
X125425500Y-40540009D01*
X125425499Y-39939992D01*
X125424497Y-39930187D01*
X125414999Y-39837203D01*
X125414998Y-39837200D01*
X125359814Y-39670666D01*
X125267712Y-39521344D01*
X125143656Y-39397288D01*
X125140819Y-39395538D01*
X125139283Y-39393830D01*
X125137989Y-39392807D01*
X125138163Y-39392585D01*
X125094096Y-39343594D01*
X125082872Y-39274632D01*
X125110713Y-39210549D01*
X125140817Y-39184462D01*
X125143656Y-39182712D01*
X125267712Y-39058656D01*
X125359814Y-38909334D01*
X125414999Y-38742797D01*
X125425500Y-38640009D01*
X125425499Y-38039992D01*
X125414999Y-37937203D01*
X125359814Y-37770666D01*
X125267712Y-37621344D01*
X125143656Y-37497288D01*
X125143655Y-37497287D01*
X125076851Y-37456082D01*
X125020276Y-37421187D01*
X124973552Y-37369240D01*
X124962329Y-37300278D01*
X124990172Y-37236196D01*
X124997694Y-37227966D01*
X125017316Y-37208344D01*
X125109356Y-37059124D01*
X125109358Y-37059119D01*
X125164505Y-36892697D01*
X125164506Y-36892690D01*
X125174999Y-36789986D01*
X125175000Y-36789973D01*
X125175000Y-36740000D01*
X122725001Y-36740000D01*
X122725001Y-36789986D01*
X122735494Y-36892697D01*
X122790641Y-37059119D01*
X122790643Y-37059124D01*
X122882684Y-37208345D01*
X123006654Y-37332315D01*
X123129648Y-37408179D01*
X123176373Y-37460127D01*
X123187594Y-37529090D01*
X123159751Y-37593172D01*
X123152234Y-37601397D01*
X123132289Y-37621342D01*
X123040187Y-37770663D01*
X123040186Y-37770666D01*
X122985001Y-37937203D01*
X122985001Y-37937204D01*
X122985000Y-37937204D01*
X122974500Y-38039983D01*
X122974500Y-38640001D01*
X122974501Y-38640019D01*
X122985000Y-38742796D01*
X122985001Y-38742799D01*
X123040185Y-38909331D01*
X123040187Y-38909336D01*
X123132289Y-39058657D01*
X123256346Y-39182714D01*
X123259182Y-39184463D01*
X123260717Y-39186170D01*
X123262011Y-39187193D01*
X123261836Y-39187414D01*
X123305905Y-39236411D01*
X123317126Y-39305374D01*
X123289282Y-39369456D01*
X123259182Y-39395537D01*
X123256346Y-39397285D01*
X123132289Y-39521342D01*
X123040187Y-39670663D01*
X123040186Y-39670666D01*
X122985001Y-39837203D01*
X122985001Y-39837204D01*
X122985000Y-39837204D01*
X122980419Y-39882050D01*
X122954022Y-39946741D01*
X122896841Y-39986892D01*
X122827030Y-39989755D01*
X122791967Y-39974986D01*
X122719334Y-39930186D01*
X122552797Y-39875001D01*
X122552795Y-39875000D01*
X122450010Y-39864500D01*
X121449998Y-39864500D01*
X121449980Y-39864501D01*
X121347203Y-39875000D01*
X121347200Y-39875001D01*
X121180668Y-39930185D01*
X121180663Y-39930187D01*
X121031345Y-40022287D01*
X120924509Y-40129123D01*
X120863186Y-40162607D01*
X120793494Y-40157623D01*
X120751471Y-40126765D01*
X120749133Y-40129104D01*
X120621003Y-40000974D01*
X120620999Y-40000971D01*
X120472933Y-39909642D01*
X120472927Y-39909639D01*
X120472925Y-39909638D01*
X120472922Y-39909637D01*
X120307776Y-39854913D01*
X120205855Y-39844500D01*
X120205848Y-39844500D01*
X119194152Y-39844500D01*
X119194144Y-39844500D01*
X119092223Y-39854913D01*
X118927077Y-39909637D01*
X118927066Y-39909642D01*
X118779000Y-40000971D01*
X118778996Y-40000974D01*
X118655974Y-40123996D01*
X118655971Y-40124000D01*
X118564642Y-40272066D01*
X118564637Y-40272077D01*
X118509913Y-40437223D01*
X118499500Y-40539144D01*
X114616504Y-40539144D01*
X114664999Y-40392797D01*
X114675500Y-40290009D01*
X114675499Y-39689992D01*
X114664999Y-39587203D01*
X114609814Y-39420666D01*
X114517712Y-39271344D01*
X114393656Y-39147288D01*
X114390819Y-39145538D01*
X114389283Y-39143830D01*
X114387989Y-39142807D01*
X114388163Y-39142585D01*
X114344096Y-39093594D01*
X114332872Y-39024632D01*
X114360713Y-38960549D01*
X114390817Y-38934462D01*
X114393656Y-38932712D01*
X114517712Y-38808656D01*
X114609814Y-38659334D01*
X114664999Y-38492797D01*
X114675500Y-38390009D01*
X114675499Y-37789992D01*
X114664999Y-37687203D01*
X114609814Y-37520666D01*
X114517712Y-37371344D01*
X114424049Y-37277681D01*
X114390564Y-37216358D01*
X114395548Y-37146666D01*
X114424049Y-37102319D01*
X114467249Y-37059119D01*
X114517712Y-37008656D01*
X114609814Y-36859334D01*
X114664999Y-36692797D01*
X114675500Y-36590009D01*
X114675499Y-35989992D01*
X114664999Y-35887203D01*
X114609814Y-35720666D01*
X114517712Y-35571344D01*
X114393656Y-35447288D01*
X114390819Y-35445538D01*
X114389283Y-35443830D01*
X114387989Y-35442807D01*
X114388163Y-35442585D01*
X114344096Y-35393594D01*
X114332872Y-35324632D01*
X114360713Y-35260549D01*
X114390817Y-35234462D01*
X114393656Y-35232712D01*
X114517712Y-35108656D01*
X114609814Y-34959334D01*
X114664999Y-34792797D01*
X114675500Y-34690009D01*
X114675499Y-34289983D01*
X122724500Y-34289983D01*
X122724500Y-34890001D01*
X122724501Y-34890019D01*
X122735000Y-34992796D01*
X122735001Y-34992799D01*
X122772608Y-35106287D01*
X122790186Y-35159334D01*
X122882288Y-35308656D01*
X123006344Y-35432712D01*
X123009628Y-35434737D01*
X123009653Y-35434753D01*
X123011445Y-35436746D01*
X123012011Y-35437193D01*
X123011934Y-35437289D01*
X123056379Y-35486699D01*
X123067603Y-35555661D01*
X123039761Y-35619744D01*
X123009665Y-35645826D01*
X123006660Y-35647679D01*
X123006655Y-35647683D01*
X122882684Y-35771654D01*
X122790643Y-35920875D01*
X122790641Y-35920880D01*
X122735494Y-36087302D01*
X122735493Y-36087309D01*
X122725000Y-36190013D01*
X122725000Y-36240000D01*
X125174999Y-36240000D01*
X125174999Y-36190028D01*
X125174998Y-36190013D01*
X125164505Y-36087302D01*
X125109358Y-35920880D01*
X125109356Y-35920875D01*
X125017315Y-35771654D01*
X124893344Y-35647683D01*
X124893341Y-35647681D01*
X124890339Y-35645829D01*
X124888713Y-35644021D01*
X124887677Y-35643202D01*
X124887817Y-35643024D01*
X124843617Y-35593880D01*
X124832397Y-35524917D01*
X124860243Y-35460836D01*
X124890344Y-35434754D01*
X124893656Y-35432712D01*
X125017712Y-35308656D01*
X125109814Y-35159334D01*
X125164999Y-34992797D01*
X125175500Y-34890009D01*
X125175499Y-34289992D01*
X125164999Y-34187203D01*
X125109814Y-34020666D01*
X125017712Y-33871344D01*
X124893656Y-33747288D01*
X124793948Y-33685788D01*
X124744336Y-33655187D01*
X124744331Y-33655185D01*
X124727721Y-33649681D01*
X124577797Y-33600001D01*
X124577795Y-33600000D01*
X124475010Y-33589500D01*
X123424998Y-33589500D01*
X123424980Y-33589501D01*
X123322203Y-33600000D01*
X123322200Y-33600001D01*
X123155668Y-33655185D01*
X123155663Y-33655187D01*
X123006342Y-33747289D01*
X122882289Y-33871342D01*
X122790187Y-34020663D01*
X122790186Y-34020666D01*
X122735001Y-34187203D01*
X122735001Y-34187204D01*
X122735000Y-34187204D01*
X122724500Y-34289983D01*
X114675499Y-34289983D01*
X114675499Y-34089992D01*
X114668417Y-34020668D01*
X114664999Y-33987203D01*
X114664998Y-33987200D01*
X114619640Y-33850319D01*
X114609814Y-33820666D01*
X114517712Y-33671344D01*
X114393656Y-33547288D01*
X114244334Y-33455186D01*
X114077797Y-33400001D01*
X114077795Y-33400000D01*
X113975010Y-33389500D01*
X112924998Y-33389500D01*
X112924980Y-33389501D01*
X112822203Y-33400000D01*
X112822200Y-33400001D01*
X112655668Y-33455185D01*
X112655663Y-33455187D01*
X112556741Y-33516203D01*
X112534206Y-33530103D01*
X112506338Y-33547292D01*
X112501407Y-33551191D01*
X112436611Y-33577329D01*
X112367969Y-33564286D01*
X112317276Y-33516203D01*
X112300500Y-33453922D01*
X112300500Y-32959996D01*
X114744435Y-32959996D01*
X114744435Y-32960003D01*
X114764630Y-33139249D01*
X114764631Y-33139254D01*
X114824211Y-33309523D01*
X114874465Y-33389501D01*
X114920184Y-33462262D01*
X115047738Y-33589816D01*
X115138080Y-33646582D01*
X115177485Y-33671342D01*
X115200478Y-33685789D01*
X115313611Y-33725376D01*
X115370745Y-33745368D01*
X115370750Y-33745369D01*
X115549996Y-33765565D01*
X115550000Y-33765565D01*
X115550004Y-33765565D01*
X115729249Y-33745369D01*
X115729252Y-33745368D01*
X115729255Y-33745368D01*
X115899522Y-33685789D01*
X116052262Y-33589816D01*
X116179816Y-33462262D01*
X116275789Y-33309522D01*
X116319870Y-33183546D01*
X116360592Y-33126769D01*
X116425545Y-33101022D01*
X116436912Y-33100500D01*
X126214281Y-33100500D01*
X126281320Y-33120185D01*
X126324765Y-33168205D01*
X126344947Y-33207814D01*
X126344948Y-33207815D01*
X126469890Y-33379786D01*
X126620209Y-33530105D01*
X126620214Y-33530109D01*
X126784793Y-33649682D01*
X126827459Y-33705011D01*
X126833438Y-33774625D01*
X126800833Y-33836420D01*
X126784793Y-33850318D01*
X126620214Y-33969890D01*
X126620209Y-33969894D01*
X126469890Y-34120213D01*
X126344951Y-34292179D01*
X126248444Y-34481585D01*
X126182753Y-34683760D01*
X126150088Y-34890001D01*
X126149500Y-34893713D01*
X126149500Y-35106287D01*
X126157901Y-35159331D01*
X126169800Y-35234459D01*
X126182754Y-35316243D01*
X126229735Y-35460836D01*
X126248444Y-35518414D01*
X126344951Y-35707820D01*
X126469890Y-35879786D01*
X126620213Y-36030109D01*
X126792179Y-36155048D01*
X126792181Y-36155049D01*
X126792184Y-36155051D01*
X126981588Y-36251557D01*
X127183757Y-36317246D01*
X127393713Y-36350500D01*
X127393714Y-36350500D01*
X128106286Y-36350500D01*
X128106287Y-36350500D01*
X128316243Y-36317246D01*
X128518412Y-36251557D01*
X128707816Y-36155051D01*
X128801056Y-36087309D01*
X128879786Y-36030109D01*
X128879788Y-36030106D01*
X128879792Y-36030104D01*
X129030104Y-35879792D01*
X129030106Y-35879788D01*
X129030109Y-35879786D01*
X129155048Y-35707820D01*
X129155047Y-35707820D01*
X129155051Y-35707816D01*
X129251557Y-35518412D01*
X129317246Y-35316243D01*
X129350500Y-35106287D01*
X129350500Y-34893713D01*
X129317246Y-34683757D01*
X129251557Y-34481588D01*
X129155051Y-34292184D01*
X129155049Y-34292181D01*
X129155048Y-34292179D01*
X129030109Y-34120213D01*
X128879792Y-33969896D01*
X128879784Y-33969890D01*
X128715204Y-33850316D01*
X128672540Y-33794989D01*
X128666561Y-33725376D01*
X128699166Y-33663580D01*
X128715199Y-33649686D01*
X128879792Y-33530104D01*
X129030104Y-33379792D01*
X129030106Y-33379788D01*
X129030109Y-33379786D01*
X129155048Y-33207820D01*
X129155047Y-33207820D01*
X129155051Y-33207816D01*
X129251557Y-33018412D01*
X129317246Y-32816243D01*
X129350500Y-32606287D01*
X129350500Y-32393713D01*
X129325275Y-32234451D01*
X129334229Y-32165160D01*
X129379225Y-32111708D01*
X129400292Y-32100495D01*
X129518441Y-32051557D01*
X129666585Y-31952571D01*
X129792571Y-31826585D01*
X129891557Y-31678441D01*
X129959740Y-31513833D01*
X129994500Y-31339085D01*
X129994500Y-31160915D01*
X129994500Y-31160912D01*
X129959741Y-30986172D01*
X129959740Y-30986171D01*
X129959740Y-30986167D01*
X129891557Y-30821559D01*
X129792571Y-30673415D01*
X129792569Y-30673412D01*
X129666587Y-30547430D01*
X129518439Y-30448441D01*
X129400295Y-30399505D01*
X129345892Y-30355664D01*
X129323827Y-30289370D01*
X129325274Y-30265552D01*
X129350500Y-30106287D01*
X129350500Y-29893713D01*
X129317246Y-29683757D01*
X129251557Y-29481588D01*
X129155051Y-29292184D01*
X129155049Y-29292181D01*
X129155048Y-29292179D01*
X129030109Y-29120213D01*
X128890931Y-28981035D01*
X128857446Y-28919712D01*
X128862430Y-28850020D01*
X128904302Y-28794087D01*
X128913516Y-28787815D01*
X129068343Y-28692317D01*
X129192315Y-28568345D01*
X129284356Y-28419124D01*
X129284358Y-28419119D01*
X129339505Y-28252697D01*
X129339506Y-28252690D01*
X129349999Y-28149986D01*
X129350000Y-28149973D01*
X129350000Y-27750000D01*
X128298482Y-27750000D01*
X128309111Y-27731591D01*
X128350000Y-27578991D01*
X128350000Y-27421009D01*
X128309111Y-27268409D01*
X128298482Y-27250000D01*
X129349999Y-27250000D01*
X129349999Y-26850028D01*
X129349998Y-26850013D01*
X129339505Y-26747302D01*
X129284358Y-26580880D01*
X129284356Y-26580875D01*
X129192315Y-26431654D01*
X129068345Y-26307684D01*
X128919124Y-26215643D01*
X128919119Y-26215641D01*
X128752697Y-26160494D01*
X128752690Y-26160493D01*
X128649986Y-26150000D01*
X128000000Y-26150000D01*
X128000000Y-26951517D01*
X127981591Y-26940889D01*
X127828991Y-26900000D01*
X127671009Y-26900000D01*
X127518409Y-26940889D01*
X127500000Y-26951517D01*
X127500000Y-26150000D01*
X126850028Y-26150000D01*
X126850012Y-26150001D01*
X126747302Y-26160494D01*
X126580880Y-26215641D01*
X126580875Y-26215643D01*
X126431654Y-26307684D01*
X126307684Y-26431654D01*
X126215643Y-26580875D01*
X126215641Y-26580880D01*
X126160494Y-26747302D01*
X126160493Y-26747309D01*
X126150000Y-26850013D01*
X126150000Y-27250000D01*
X127201518Y-27250000D01*
X127190889Y-27268409D01*
X127150000Y-27421009D01*
X127150000Y-27578991D01*
X127190889Y-27731591D01*
X127201518Y-27750000D01*
X126150001Y-27750000D01*
X126150001Y-28149986D01*
X126160494Y-28252697D01*
X126215641Y-28419119D01*
X126215643Y-28419124D01*
X126307684Y-28568345D01*
X126431654Y-28692315D01*
X126586484Y-28787815D01*
X126633208Y-28839763D01*
X126644431Y-28908726D01*
X126616587Y-28972808D01*
X126609069Y-28981035D01*
X126469889Y-29120215D01*
X126344951Y-29292179D01*
X126248444Y-29481585D01*
X126182753Y-29683760D01*
X126149500Y-29893713D01*
X126149500Y-30106286D01*
X126178497Y-30289370D01*
X126182754Y-30316243D01*
X126203554Y-30380260D01*
X126248444Y-30518414D01*
X126344951Y-30707820D01*
X126469890Y-30879786D01*
X126620209Y-31030105D01*
X126620214Y-31030109D01*
X126784793Y-31149682D01*
X126827459Y-31205011D01*
X126833438Y-31274625D01*
X126800833Y-31336420D01*
X126784793Y-31350318D01*
X126620214Y-31469890D01*
X126620209Y-31469894D01*
X126469890Y-31620213D01*
X126344948Y-31792184D01*
X126344947Y-31792185D01*
X126324765Y-31831795D01*
X126276791Y-31882591D01*
X126214281Y-31899500D01*
X116089057Y-31899500D01*
X115930942Y-31899500D01*
X115778215Y-31940423D01*
X115778214Y-31940423D01*
X115778212Y-31940424D01*
X115778209Y-31940425D01*
X115728096Y-31969359D01*
X115728095Y-31969360D01*
X115699158Y-31986066D01*
X115641286Y-32019478D01*
X115531465Y-32129299D01*
X115470142Y-32162783D01*
X115457668Y-32164837D01*
X115370750Y-32174630D01*
X115200478Y-32234210D01*
X115047737Y-32330184D01*
X114920184Y-32457737D01*
X114824211Y-32610476D01*
X114764631Y-32780745D01*
X114764630Y-32780750D01*
X114744435Y-32959996D01*
X112300500Y-32959996D01*
X112300500Y-26135010D01*
X119754383Y-26135010D01*
X119754383Y-26364989D01*
X119754384Y-26365005D01*
X119784401Y-26593009D01*
X119784402Y-26593014D01*
X119784403Y-26593020D01*
X119843929Y-26815175D01*
X119843932Y-26815185D01*
X119931940Y-27027654D01*
X119931944Y-27027664D01*
X120046938Y-27226839D01*
X120186947Y-27409303D01*
X120186953Y-27409310D01*
X120349572Y-27571929D01*
X120349579Y-27571935D01*
X120532043Y-27711944D01*
X120731218Y-27826938D01*
X120731219Y-27826938D01*
X120731222Y-27826940D01*
X120943707Y-27914954D01*
X121165863Y-27974480D01*
X121393887Y-28004500D01*
X121393894Y-28004500D01*
X121623872Y-28004500D01*
X121623879Y-28004500D01*
X121851903Y-27974480D01*
X122074059Y-27914954D01*
X122286544Y-27826940D01*
X122485723Y-27711944D01*
X122668188Y-27571934D01*
X122830817Y-27409305D01*
X122970827Y-27226840D01*
X123085823Y-27027661D01*
X123173837Y-26815176D01*
X123233363Y-26593020D01*
X123263383Y-26364996D01*
X123263383Y-26135004D01*
X123233363Y-25906980D01*
X123173837Y-25684824D01*
X123085823Y-25472339D01*
X122970827Y-25273160D01*
X122830817Y-25090695D01*
X122830812Y-25090689D01*
X122668193Y-24928070D01*
X122668186Y-24928064D01*
X122485722Y-24788055D01*
X122286547Y-24673061D01*
X122286537Y-24673057D01*
X122074068Y-24585049D01*
X122074061Y-24585047D01*
X122074059Y-24585046D01*
X121851903Y-24525520D01*
X121851897Y-24525519D01*
X121851892Y-24525518D01*
X121623888Y-24495501D01*
X121623885Y-24495500D01*
X121623879Y-24495500D01*
X121393887Y-24495500D01*
X121393881Y-24495500D01*
X121393877Y-24495501D01*
X121165873Y-24525518D01*
X121165866Y-24525519D01*
X121165863Y-24525520D01*
X120943707Y-24585046D01*
X120943697Y-24585049D01*
X120731228Y-24673057D01*
X120731218Y-24673061D01*
X120532043Y-24788055D01*
X120349579Y-24928064D01*
X120349572Y-24928070D01*
X120186953Y-25090689D01*
X120186947Y-25090696D01*
X120046938Y-25273160D01*
X119931944Y-25472335D01*
X119931940Y-25472345D01*
X119843932Y-25684814D01*
X119843929Y-25684824D01*
X119784404Y-25906977D01*
X119784401Y-25906990D01*
X119754384Y-26134994D01*
X119754383Y-26135010D01*
X112300500Y-26135010D01*
X112300500Y-25506202D01*
X112300780Y-25497874D01*
X112300888Y-25496263D01*
X112317895Y-25243616D01*
X112319788Y-25228836D01*
X112320042Y-25227500D01*
X112366692Y-24981615D01*
X112370345Y-24967169D01*
X112382774Y-24928070D01*
X112446579Y-24727353D01*
X112451932Y-24713469D01*
X112556386Y-24484547D01*
X112563376Y-24471385D01*
X112592469Y-24423757D01*
X112694554Y-24256634D01*
X112703063Y-24244421D01*
X112859061Y-24046968D01*
X112868969Y-24035869D01*
X113047543Y-23858551D01*
X113058702Y-23848729D01*
X113257266Y-23694118D01*
X113269534Y-23685699D01*
X113485198Y-23556043D01*
X113498408Y-23549147D01*
X113575313Y-23514709D01*
X113728069Y-23446306D01*
X113741990Y-23441052D01*
X113982354Y-23366507D01*
X113996796Y-23362964D01*
X114244354Y-23317803D01*
X114259143Y-23316015D01*
X114514078Y-23300661D01*
X114521513Y-23300438D01*
X128437967Y-23300498D01*
G37*
%TD.AperFunction*%
%TD*%
M02*
