%TF.GenerationSoftware,KiCad,Pcbnew,8.0.5*%
%TF.CreationDate,2024-10-30T11:17:57-05:00*%
%TF.ProjectId,DataAcq-EnvBreakoutPCB,44617461-4163-4712-9d45-6e7642726561,rev?*%
%TF.SameCoordinates,Original*%
%TF.FileFunction,Legend,Bot*%
%TF.FilePolarity,Positive*%
%FSLAX46Y46*%
G04 Gerber Fmt 4.6, Leading zero omitted, Abs format (unit mm)*
G04 Created by KiCad (PCBNEW 8.0.5) date 2024-10-30 11:17:57*
%MOMM*%
%LPD*%
G01*
G04 APERTURE LIST*
%ADD10C,0.150000*%
%ADD11C,0.153000*%
%ADD12C,0.120000*%
G04 APERTURE END LIST*
D10*
X116596009Y-25836779D02*
X116596009Y-26170112D01*
X117119819Y-26312969D02*
X117119819Y-25836779D01*
X117119819Y-25836779D02*
X116119819Y-25836779D01*
X116119819Y-25836779D02*
X116119819Y-26312969D01*
X116453152Y-26741541D02*
X117119819Y-26741541D01*
X116548390Y-26741541D02*
X116500771Y-26789160D01*
X116500771Y-26789160D02*
X116453152Y-26884398D01*
X116453152Y-26884398D02*
X116453152Y-27027255D01*
X116453152Y-27027255D02*
X116500771Y-27122493D01*
X116500771Y-27122493D02*
X116596009Y-27170112D01*
X116596009Y-27170112D02*
X117119819Y-27170112D01*
X116453152Y-27551065D02*
X117119819Y-27789160D01*
X117119819Y-27789160D02*
X116453152Y-28027255D01*
X117072200Y-29122494D02*
X117119819Y-29265351D01*
X117119819Y-29265351D02*
X117119819Y-29503446D01*
X117119819Y-29503446D02*
X117072200Y-29598684D01*
X117072200Y-29598684D02*
X117024580Y-29646303D01*
X117024580Y-29646303D02*
X116929342Y-29693922D01*
X116929342Y-29693922D02*
X116834104Y-29693922D01*
X116834104Y-29693922D02*
X116738866Y-29646303D01*
X116738866Y-29646303D02*
X116691247Y-29598684D01*
X116691247Y-29598684D02*
X116643628Y-29503446D01*
X116643628Y-29503446D02*
X116596009Y-29312970D01*
X116596009Y-29312970D02*
X116548390Y-29217732D01*
X116548390Y-29217732D02*
X116500771Y-29170113D01*
X116500771Y-29170113D02*
X116405533Y-29122494D01*
X116405533Y-29122494D02*
X116310295Y-29122494D01*
X116310295Y-29122494D02*
X116215057Y-29170113D01*
X116215057Y-29170113D02*
X116167438Y-29217732D01*
X116167438Y-29217732D02*
X116119819Y-29312970D01*
X116119819Y-29312970D02*
X116119819Y-29551065D01*
X116119819Y-29551065D02*
X116167438Y-29693922D01*
X117072200Y-30503446D02*
X117119819Y-30408208D01*
X117119819Y-30408208D02*
X117119819Y-30217732D01*
X117119819Y-30217732D02*
X117072200Y-30122494D01*
X117072200Y-30122494D02*
X116976961Y-30074875D01*
X116976961Y-30074875D02*
X116596009Y-30074875D01*
X116596009Y-30074875D02*
X116500771Y-30122494D01*
X116500771Y-30122494D02*
X116453152Y-30217732D01*
X116453152Y-30217732D02*
X116453152Y-30408208D01*
X116453152Y-30408208D02*
X116500771Y-30503446D01*
X116500771Y-30503446D02*
X116596009Y-30551065D01*
X116596009Y-30551065D02*
X116691247Y-30551065D01*
X116691247Y-30551065D02*
X116786485Y-30074875D01*
X116453152Y-30979637D02*
X117119819Y-30979637D01*
X116548390Y-30979637D02*
X116500771Y-31027256D01*
X116500771Y-31027256D02*
X116453152Y-31122494D01*
X116453152Y-31122494D02*
X116453152Y-31265351D01*
X116453152Y-31265351D02*
X116500771Y-31360589D01*
X116500771Y-31360589D02*
X116596009Y-31408208D01*
X116596009Y-31408208D02*
X117119819Y-31408208D01*
X117072200Y-31836780D02*
X117119819Y-31932018D01*
X117119819Y-31932018D02*
X117119819Y-32122494D01*
X117119819Y-32122494D02*
X117072200Y-32217732D01*
X117072200Y-32217732D02*
X116976961Y-32265351D01*
X116976961Y-32265351D02*
X116929342Y-32265351D01*
X116929342Y-32265351D02*
X116834104Y-32217732D01*
X116834104Y-32217732D02*
X116786485Y-32122494D01*
X116786485Y-32122494D02*
X116786485Y-31979637D01*
X116786485Y-31979637D02*
X116738866Y-31884399D01*
X116738866Y-31884399D02*
X116643628Y-31836780D01*
X116643628Y-31836780D02*
X116596009Y-31836780D01*
X116596009Y-31836780D02*
X116500771Y-31884399D01*
X116500771Y-31884399D02*
X116453152Y-31979637D01*
X116453152Y-31979637D02*
X116453152Y-32122494D01*
X116453152Y-32122494D02*
X116500771Y-32217732D01*
X117119819Y-32836780D02*
X117072200Y-32741542D01*
X117072200Y-32741542D02*
X117024580Y-32693923D01*
X117024580Y-32693923D02*
X116929342Y-32646304D01*
X116929342Y-32646304D02*
X116643628Y-32646304D01*
X116643628Y-32646304D02*
X116548390Y-32693923D01*
X116548390Y-32693923D02*
X116500771Y-32741542D01*
X116500771Y-32741542D02*
X116453152Y-32836780D01*
X116453152Y-32836780D02*
X116453152Y-32979637D01*
X116453152Y-32979637D02*
X116500771Y-33074875D01*
X116500771Y-33074875D02*
X116548390Y-33122494D01*
X116548390Y-33122494D02*
X116643628Y-33170113D01*
X116643628Y-33170113D02*
X116929342Y-33170113D01*
X116929342Y-33170113D02*
X117024580Y-33122494D01*
X117024580Y-33122494D02*
X117072200Y-33074875D01*
X117072200Y-33074875D02*
X117119819Y-32979637D01*
X117119819Y-32979637D02*
X117119819Y-32836780D01*
X117119819Y-33598685D02*
X116453152Y-33598685D01*
X116643628Y-33598685D02*
X116548390Y-33646304D01*
X116548390Y-33646304D02*
X116500771Y-33693923D01*
X116500771Y-33693923D02*
X116453152Y-33789161D01*
X116453152Y-33789161D02*
X116453152Y-33884399D01*
X116596009Y-35312971D02*
X116643628Y-35455828D01*
X116643628Y-35455828D02*
X116691247Y-35503447D01*
X116691247Y-35503447D02*
X116786485Y-35551066D01*
X116786485Y-35551066D02*
X116929342Y-35551066D01*
X116929342Y-35551066D02*
X117024580Y-35503447D01*
X117024580Y-35503447D02*
X117072200Y-35455828D01*
X117072200Y-35455828D02*
X117119819Y-35360590D01*
X117119819Y-35360590D02*
X117119819Y-34979638D01*
X117119819Y-34979638D02*
X116119819Y-34979638D01*
X116119819Y-34979638D02*
X116119819Y-35312971D01*
X116119819Y-35312971D02*
X116167438Y-35408209D01*
X116167438Y-35408209D02*
X116215057Y-35455828D01*
X116215057Y-35455828D02*
X116310295Y-35503447D01*
X116310295Y-35503447D02*
X116405533Y-35503447D01*
X116405533Y-35503447D02*
X116500771Y-35455828D01*
X116500771Y-35455828D02*
X116548390Y-35408209D01*
X116548390Y-35408209D02*
X116596009Y-35312971D01*
X116596009Y-35312971D02*
X116596009Y-34979638D01*
X117119819Y-35979638D02*
X116453152Y-35979638D01*
X116643628Y-35979638D02*
X116548390Y-36027257D01*
X116548390Y-36027257D02*
X116500771Y-36074876D01*
X116500771Y-36074876D02*
X116453152Y-36170114D01*
X116453152Y-36170114D02*
X116453152Y-36265352D01*
X117072200Y-36979638D02*
X117119819Y-36884400D01*
X117119819Y-36884400D02*
X117119819Y-36693924D01*
X117119819Y-36693924D02*
X117072200Y-36598686D01*
X117072200Y-36598686D02*
X116976961Y-36551067D01*
X116976961Y-36551067D02*
X116596009Y-36551067D01*
X116596009Y-36551067D02*
X116500771Y-36598686D01*
X116500771Y-36598686D02*
X116453152Y-36693924D01*
X116453152Y-36693924D02*
X116453152Y-36884400D01*
X116453152Y-36884400D02*
X116500771Y-36979638D01*
X116500771Y-36979638D02*
X116596009Y-37027257D01*
X116596009Y-37027257D02*
X116691247Y-37027257D01*
X116691247Y-37027257D02*
X116786485Y-36551067D01*
X117119819Y-37884400D02*
X116596009Y-37884400D01*
X116596009Y-37884400D02*
X116500771Y-37836781D01*
X116500771Y-37836781D02*
X116453152Y-37741543D01*
X116453152Y-37741543D02*
X116453152Y-37551067D01*
X116453152Y-37551067D02*
X116500771Y-37455829D01*
X117072200Y-37884400D02*
X117119819Y-37789162D01*
X117119819Y-37789162D02*
X117119819Y-37551067D01*
X117119819Y-37551067D02*
X117072200Y-37455829D01*
X117072200Y-37455829D02*
X116976961Y-37408210D01*
X116976961Y-37408210D02*
X116881723Y-37408210D01*
X116881723Y-37408210D02*
X116786485Y-37455829D01*
X116786485Y-37455829D02*
X116738866Y-37551067D01*
X116738866Y-37551067D02*
X116738866Y-37789162D01*
X116738866Y-37789162D02*
X116691247Y-37884400D01*
X117119819Y-38360591D02*
X116119819Y-38360591D01*
X116738866Y-38455829D02*
X117119819Y-38741543D01*
X116453152Y-38741543D02*
X116834104Y-38360591D01*
X117119819Y-39312972D02*
X117072200Y-39217734D01*
X117072200Y-39217734D02*
X117024580Y-39170115D01*
X117024580Y-39170115D02*
X116929342Y-39122496D01*
X116929342Y-39122496D02*
X116643628Y-39122496D01*
X116643628Y-39122496D02*
X116548390Y-39170115D01*
X116548390Y-39170115D02*
X116500771Y-39217734D01*
X116500771Y-39217734D02*
X116453152Y-39312972D01*
X116453152Y-39312972D02*
X116453152Y-39455829D01*
X116453152Y-39455829D02*
X116500771Y-39551067D01*
X116500771Y-39551067D02*
X116548390Y-39598686D01*
X116548390Y-39598686D02*
X116643628Y-39646305D01*
X116643628Y-39646305D02*
X116929342Y-39646305D01*
X116929342Y-39646305D02*
X117024580Y-39598686D01*
X117024580Y-39598686D02*
X117072200Y-39551067D01*
X117072200Y-39551067D02*
X117119819Y-39455829D01*
X117119819Y-39455829D02*
X117119819Y-39312972D01*
X116453152Y-40503448D02*
X117119819Y-40503448D01*
X116453152Y-40074877D02*
X116976961Y-40074877D01*
X116976961Y-40074877D02*
X117072200Y-40122496D01*
X117072200Y-40122496D02*
X117119819Y-40217734D01*
X117119819Y-40217734D02*
X117119819Y-40360591D01*
X117119819Y-40360591D02*
X117072200Y-40455829D01*
X117072200Y-40455829D02*
X117024580Y-40503448D01*
X116453152Y-40836782D02*
X116453152Y-41217734D01*
X116119819Y-40979639D02*
X116976961Y-40979639D01*
X116976961Y-40979639D02*
X117072200Y-41027258D01*
X117072200Y-41027258D02*
X117119819Y-41122496D01*
X117119819Y-41122496D02*
X117119819Y-41217734D01*
D11*
X129059523Y-24668948D02*
X128583333Y-24668948D01*
X129154761Y-24954663D02*
X128821428Y-23954663D01*
X128821428Y-23954663D02*
X128488095Y-24954663D01*
X128297618Y-24287996D02*
X127916666Y-24287996D01*
X128154761Y-24954663D02*
X128154761Y-24097520D01*
X128154761Y-24097520D02*
X128107142Y-24002282D01*
X128107142Y-24002282D02*
X128011904Y-23954663D01*
X128011904Y-23954663D02*
X127916666Y-23954663D01*
X127440475Y-24954663D02*
X127535713Y-24907044D01*
X127535713Y-24907044D02*
X127583332Y-24811805D01*
X127583332Y-24811805D02*
X127583332Y-23954663D01*
X127154760Y-24287996D02*
X126964284Y-24954663D01*
X126964284Y-24954663D02*
X126773808Y-24478472D01*
X126773808Y-24478472D02*
X126583332Y-24954663D01*
X126583332Y-24954663D02*
X126392856Y-24287996D01*
G36*
X121477604Y-53793163D02*
G01*
X121328422Y-53793163D01*
X121214476Y-53755181D01*
X121140787Y-53681491D01*
X121102474Y-53604865D01*
X121059176Y-53431673D01*
X121059176Y-53307652D01*
X121102474Y-53134460D01*
X121140786Y-53057836D01*
X121214477Y-52984144D01*
X121328422Y-52946163D01*
X121477604Y-52946163D01*
X121477604Y-53793163D01*
G37*
G36*
X122477604Y-53793163D02*
G01*
X122328422Y-53793163D01*
X122214476Y-53755181D01*
X122140787Y-53681491D01*
X122102474Y-53604865D01*
X122059176Y-53431673D01*
X122059176Y-53307652D01*
X122102474Y-53134460D01*
X122140786Y-53057836D01*
X122214477Y-52984144D01*
X122328422Y-52946163D01*
X122477604Y-52946163D01*
X122477604Y-53793163D01*
G37*
G36*
X120495585Y-53507448D02*
G01*
X120231671Y-53507448D01*
X120363628Y-53111576D01*
X120495585Y-53507448D01*
G37*
G36*
X123741114Y-54057274D02*
G01*
X119843285Y-54057274D01*
X119843285Y-53860095D01*
X119954396Y-53860095D01*
X119956512Y-53889869D01*
X119969861Y-53916566D01*
X119992410Y-53936123D01*
X120020727Y-53945562D01*
X120050501Y-53943446D01*
X120077198Y-53930097D01*
X120096755Y-53907548D01*
X120102869Y-53893854D01*
X120180671Y-53660448D01*
X120546585Y-53660448D01*
X120624387Y-53893854D01*
X120630501Y-53907547D01*
X120650058Y-53930097D01*
X120676755Y-53943445D01*
X120706529Y-53945562D01*
X120734846Y-53936123D01*
X120757395Y-53916565D01*
X120770744Y-53889868D01*
X120772860Y-53860094D01*
X120769535Y-53845471D01*
X120587123Y-53298234D01*
X120906176Y-53298234D01*
X120906176Y-53441091D01*
X120906432Y-53443696D01*
X120906267Y-53444810D01*
X120907092Y-53450391D01*
X120907646Y-53456015D01*
X120908077Y-53457056D01*
X120908460Y-53459645D01*
X120956079Y-53650121D01*
X120956472Y-53651223D01*
X120956512Y-53651773D01*
X120958890Y-53657988D01*
X120961125Y-53664243D01*
X120961452Y-53664684D01*
X120961871Y-53665779D01*
X121009490Y-53761017D01*
X121013535Y-53767443D01*
X121014307Y-53769306D01*
X121016028Y-53771403D01*
X121017479Y-53773708D01*
X121019007Y-53775033D01*
X121023820Y-53780898D01*
X121119058Y-53876138D01*
X121130651Y-53885651D01*
X121133190Y-53886702D01*
X121135267Y-53888504D01*
X121148961Y-53894618D01*
X121291817Y-53942237D01*
X121299219Y-53943920D01*
X121301085Y-53944693D01*
X121303790Y-53944959D01*
X121306440Y-53945562D01*
X121308454Y-53945418D01*
X121316009Y-53946163D01*
X121554104Y-53946163D01*
X121569028Y-53944693D01*
X121596605Y-53933270D01*
X121617711Y-53912164D01*
X121629134Y-53884587D01*
X121630604Y-53869663D01*
X121630604Y-53298234D01*
X121906176Y-53298234D01*
X121906176Y-53441091D01*
X121906432Y-53443696D01*
X121906267Y-53444810D01*
X121907092Y-53450391D01*
X121907646Y-53456015D01*
X121908077Y-53457056D01*
X121908460Y-53459645D01*
X121956079Y-53650121D01*
X121956472Y-53651223D01*
X121956512Y-53651773D01*
X121958890Y-53657988D01*
X121961125Y-53664243D01*
X121961452Y-53664684D01*
X121961871Y-53665779D01*
X122009490Y-53761017D01*
X122013535Y-53767443D01*
X122014307Y-53769306D01*
X122016028Y-53771403D01*
X122017479Y-53773708D01*
X122019007Y-53775033D01*
X122023820Y-53780898D01*
X122119058Y-53876138D01*
X122130651Y-53885651D01*
X122133190Y-53886702D01*
X122135267Y-53888504D01*
X122148961Y-53894618D01*
X122291817Y-53942237D01*
X122299219Y-53943920D01*
X122301085Y-53944693D01*
X122303790Y-53944959D01*
X122306440Y-53945562D01*
X122308454Y-53945418D01*
X122316009Y-53946163D01*
X122554104Y-53946163D01*
X122569028Y-53944693D01*
X122596605Y-53933270D01*
X122617711Y-53912164D01*
X122629134Y-53884587D01*
X122630604Y-53869663D01*
X122630604Y-52879231D01*
X122811539Y-52879231D01*
X122814864Y-52893854D01*
X123148197Y-53893854D01*
X123154311Y-53907547D01*
X123157891Y-53911675D01*
X123160337Y-53916566D01*
X123167584Y-53922851D01*
X123173868Y-53930097D01*
X123178755Y-53932540D01*
X123182886Y-53936123D01*
X123191990Y-53939157D01*
X123200565Y-53943445D01*
X123206014Y-53943832D01*
X123211203Y-53945562D01*
X123220773Y-53944881D01*
X123230339Y-53945562D01*
X123235524Y-53943833D01*
X123240977Y-53943446D01*
X123249556Y-53939156D01*
X123258656Y-53936123D01*
X123262785Y-53932541D01*
X123267674Y-53930097D01*
X123273961Y-53922848D01*
X123281205Y-53916565D01*
X123283648Y-53911679D01*
X123287231Y-53907548D01*
X123293345Y-53893854D01*
X123626678Y-52893855D01*
X123630003Y-52879232D01*
X123627887Y-52849458D01*
X123614538Y-52822761D01*
X123591989Y-52803203D01*
X123563672Y-52793764D01*
X123533898Y-52795881D01*
X123507201Y-52809229D01*
X123487644Y-52831779D01*
X123481530Y-52845472D01*
X123220771Y-53627749D01*
X122960012Y-52845472D01*
X122953898Y-52831778D01*
X122934341Y-52809229D01*
X122907644Y-52795880D01*
X122877870Y-52793764D01*
X122849553Y-52803203D01*
X122827004Y-52822760D01*
X122813655Y-52849457D01*
X122811539Y-52879231D01*
X122630604Y-52879231D01*
X122630604Y-52869663D01*
X122629134Y-52854739D01*
X122617711Y-52827162D01*
X122596605Y-52806056D01*
X122569028Y-52794633D01*
X122554104Y-52793163D01*
X122316009Y-52793163D01*
X122308454Y-52793907D01*
X122306440Y-52793764D01*
X122303790Y-52794366D01*
X122301085Y-52794633D01*
X122299219Y-52795405D01*
X122291817Y-52797089D01*
X122148961Y-52844708D01*
X122135267Y-52850822D01*
X122133190Y-52852623D01*
X122130651Y-52853675D01*
X122119058Y-52863188D01*
X122023820Y-52958426D01*
X122019005Y-52964292D01*
X122017479Y-52965617D01*
X122016028Y-52967920D01*
X122014307Y-52970019D01*
X122013535Y-52971881D01*
X122009490Y-52978308D01*
X121961871Y-53073546D01*
X121961452Y-53074640D01*
X121961125Y-53075082D01*
X121958890Y-53081336D01*
X121956512Y-53087552D01*
X121956472Y-53088101D01*
X121956079Y-53089204D01*
X121908460Y-53279680D01*
X121908077Y-53282268D01*
X121907646Y-53283310D01*
X121907092Y-53288933D01*
X121906267Y-53294515D01*
X121906432Y-53295628D01*
X121906176Y-53298234D01*
X121630604Y-53298234D01*
X121630604Y-52869663D01*
X121629134Y-52854739D01*
X121617711Y-52827162D01*
X121596605Y-52806056D01*
X121569028Y-52794633D01*
X121554104Y-52793163D01*
X121316009Y-52793163D01*
X121308454Y-52793907D01*
X121306440Y-52793764D01*
X121303790Y-52794366D01*
X121301085Y-52794633D01*
X121299219Y-52795405D01*
X121291817Y-52797089D01*
X121148961Y-52844708D01*
X121135267Y-52850822D01*
X121133190Y-52852623D01*
X121130651Y-52853675D01*
X121119058Y-52863188D01*
X121023820Y-52958426D01*
X121019005Y-52964292D01*
X121017479Y-52965617D01*
X121016028Y-52967920D01*
X121014307Y-52970019D01*
X121013535Y-52971881D01*
X121009490Y-52978308D01*
X120961871Y-53073546D01*
X120961452Y-53074640D01*
X120961125Y-53075082D01*
X120958890Y-53081336D01*
X120956512Y-53087552D01*
X120956472Y-53088101D01*
X120956079Y-53089204D01*
X120908460Y-53279680D01*
X120908077Y-53282268D01*
X120907646Y-53283310D01*
X120907092Y-53288933D01*
X120906267Y-53294515D01*
X120906432Y-53295628D01*
X120906176Y-53298234D01*
X120587123Y-53298234D01*
X120436202Y-52845472D01*
X120430088Y-52831778D01*
X120426505Y-52827646D01*
X120424062Y-52822761D01*
X120416818Y-52816477D01*
X120410531Y-52809229D01*
X120405642Y-52806784D01*
X120401513Y-52803203D01*
X120392413Y-52800169D01*
X120383834Y-52795880D01*
X120378381Y-52795492D01*
X120373196Y-52793764D01*
X120363630Y-52794444D01*
X120354060Y-52793764D01*
X120348871Y-52795493D01*
X120343422Y-52795881D01*
X120334847Y-52800168D01*
X120325743Y-52803203D01*
X120321612Y-52806785D01*
X120316725Y-52809229D01*
X120310441Y-52816474D01*
X120303194Y-52822760D01*
X120300748Y-52827650D01*
X120297168Y-52831779D01*
X120291054Y-52845472D01*
X119957721Y-53845472D01*
X119954396Y-53860095D01*
X119843285Y-53860095D01*
X119843285Y-52682052D01*
X123741114Y-52682052D01*
X123741114Y-54057274D01*
G37*
G36*
X122392626Y-39597274D02*
G01*
X119019476Y-39597274D01*
X119019476Y-38419231D01*
X119130587Y-38419231D01*
X119133912Y-38433854D01*
X119467245Y-39433854D01*
X119473359Y-39447547D01*
X119476939Y-39451675D01*
X119479385Y-39456566D01*
X119486632Y-39462851D01*
X119492916Y-39470097D01*
X119497803Y-39472540D01*
X119501934Y-39476123D01*
X119511038Y-39479157D01*
X119519613Y-39483445D01*
X119525062Y-39483832D01*
X119530251Y-39485562D01*
X119539821Y-39484881D01*
X119549387Y-39485562D01*
X119554572Y-39483833D01*
X119560025Y-39483446D01*
X119568604Y-39479156D01*
X119577704Y-39476123D01*
X119581833Y-39472541D01*
X119586722Y-39470097D01*
X119593009Y-39462848D01*
X119600253Y-39456565D01*
X119602696Y-39451679D01*
X119606279Y-39447548D01*
X119612393Y-39433854D01*
X119763314Y-38981091D01*
X120082367Y-38981091D01*
X120082367Y-39219186D01*
X120083837Y-39234110D01*
X120084889Y-39236650D01*
X120085084Y-39239392D01*
X120090443Y-39253398D01*
X120138062Y-39348636D01*
X120142104Y-39355058D01*
X120142878Y-39356925D01*
X120144602Y-39359026D01*
X120146051Y-39361327D01*
X120147577Y-39362650D01*
X120152392Y-39368517D01*
X120200011Y-39416137D01*
X120205877Y-39420952D01*
X120207202Y-39422479D01*
X120209503Y-39423927D01*
X120211603Y-39425651D01*
X120213468Y-39426423D01*
X120219893Y-39430468D01*
X120315131Y-39478087D01*
X120329137Y-39483446D01*
X120331878Y-39483640D01*
X120334419Y-39484693D01*
X120349343Y-39486163D01*
X120635057Y-39486163D01*
X120649981Y-39484693D01*
X120652521Y-39483640D01*
X120655263Y-39483446D01*
X120669269Y-39478087D01*
X120764507Y-39430468D01*
X120770931Y-39426423D01*
X120772797Y-39425651D01*
X120774896Y-39423927D01*
X120777198Y-39422479D01*
X120778522Y-39420952D01*
X120784389Y-39416137D01*
X120832008Y-39368517D01*
X120841521Y-39356925D01*
X120845582Y-39347121D01*
X121036217Y-39347121D01*
X121036217Y-39376969D01*
X121047640Y-39404546D01*
X121047644Y-39404550D01*
X121057153Y-39416138D01*
X121104772Y-39463756D01*
X121116364Y-39473270D01*
X121127787Y-39478001D01*
X121143942Y-39484693D01*
X121173790Y-39484693D01*
X121201367Y-39473270D01*
X121212960Y-39463757D01*
X121260578Y-39416138D01*
X121270092Y-39404546D01*
X121281514Y-39376969D01*
X121281514Y-39367161D01*
X121281515Y-39347120D01*
X121270092Y-39319543D01*
X121260579Y-39307951D01*
X121212960Y-39260331D01*
X121201368Y-39250817D01*
X121173791Y-39239394D01*
X121173790Y-39239394D01*
X121143942Y-39239394D01*
X121135865Y-39242739D01*
X121116365Y-39250816D01*
X121116364Y-39250817D01*
X121104772Y-39260331D01*
X121057153Y-39307951D01*
X121047639Y-39319543D01*
X121036217Y-39347121D01*
X120845582Y-39347121D01*
X120852944Y-39329348D01*
X120852943Y-39299499D01*
X120841521Y-39271922D01*
X120820415Y-39250817D01*
X120792837Y-39239394D01*
X120762989Y-39239395D01*
X120735412Y-39250817D01*
X120723820Y-39260331D01*
X120684980Y-39299171D01*
X120616997Y-39333163D01*
X120367403Y-39333163D01*
X120299419Y-39299171D01*
X120269359Y-39269110D01*
X120235367Y-39201126D01*
X120235367Y-38999151D01*
X120244397Y-38981091D01*
X121510938Y-38981091D01*
X121510938Y-39219186D01*
X121512408Y-39234110D01*
X121513460Y-39236650D01*
X121513655Y-39239392D01*
X121519014Y-39253398D01*
X121566633Y-39348636D01*
X121570675Y-39355058D01*
X121571449Y-39356925D01*
X121573173Y-39359026D01*
X121574622Y-39361327D01*
X121576148Y-39362650D01*
X121580963Y-39368517D01*
X121628582Y-39416137D01*
X121634448Y-39420952D01*
X121635773Y-39422479D01*
X121638074Y-39423927D01*
X121640174Y-39425651D01*
X121642039Y-39426423D01*
X121648464Y-39430468D01*
X121743702Y-39478087D01*
X121757708Y-39483446D01*
X121760449Y-39483640D01*
X121762990Y-39484693D01*
X121777914Y-39486163D01*
X122063628Y-39486163D01*
X122078552Y-39484693D01*
X122081092Y-39483640D01*
X122083834Y-39483446D01*
X122097840Y-39478087D01*
X122193078Y-39430468D01*
X122199502Y-39426423D01*
X122201368Y-39425651D01*
X122203467Y-39423927D01*
X122205769Y-39422479D01*
X122207093Y-39420952D01*
X122212960Y-39416137D01*
X122260579Y-39368517D01*
X122270092Y-39356925D01*
X122281515Y-39329348D01*
X122281514Y-39299499D01*
X122270092Y-39271922D01*
X122248986Y-39250817D01*
X122221408Y-39239394D01*
X122191560Y-39239395D01*
X122163983Y-39250817D01*
X122152391Y-39260331D01*
X122113551Y-39299171D01*
X122045568Y-39333163D01*
X121795974Y-39333163D01*
X121727990Y-39299171D01*
X121697930Y-39269110D01*
X121663938Y-39201126D01*
X121663938Y-38999151D01*
X121697929Y-38931168D01*
X121727990Y-38901106D01*
X121795974Y-38867115D01*
X121920771Y-38867115D01*
X121928665Y-38866337D01*
X121930671Y-38866471D01*
X121932052Y-38866003D01*
X121935695Y-38865645D01*
X121947180Y-38860887D01*
X121958947Y-38856908D01*
X121960888Y-38855209D01*
X121963272Y-38854222D01*
X121972058Y-38845435D01*
X121981410Y-38837253D01*
X121982553Y-38834940D01*
X121984378Y-38833116D01*
X121989133Y-38821636D01*
X121994642Y-38810497D01*
X121994813Y-38807922D01*
X121995801Y-38805539D01*
X121995801Y-38793107D01*
X121996627Y-38780715D01*
X121995801Y-38778272D01*
X121995801Y-38775691D01*
X121991043Y-38764205D01*
X121987064Y-38752439D01*
X121984936Y-38749463D01*
X121984378Y-38748114D01*
X121982955Y-38746691D01*
X121978343Y-38740239D01*
X121756027Y-38486163D01*
X122206485Y-38486163D01*
X122221409Y-38484693D01*
X122248986Y-38473270D01*
X122270092Y-38452164D01*
X122281515Y-38424587D01*
X122281515Y-38394739D01*
X122270092Y-38367162D01*
X122248986Y-38346056D01*
X122221409Y-38334633D01*
X122206485Y-38333163D01*
X121587438Y-38333163D01*
X121579543Y-38333940D01*
X121577538Y-38333807D01*
X121576156Y-38334274D01*
X121572514Y-38334633D01*
X121561028Y-38339390D01*
X121549262Y-38343370D01*
X121547320Y-38345068D01*
X121544937Y-38346056D01*
X121536150Y-38354842D01*
X121526799Y-38363025D01*
X121525655Y-38365337D01*
X121523831Y-38367162D01*
X121519075Y-38378641D01*
X121513567Y-38389781D01*
X121513395Y-38392355D01*
X121512408Y-38394739D01*
X121512408Y-38407170D01*
X121511582Y-38419563D01*
X121512408Y-38422005D01*
X121512408Y-38424587D01*
X121517165Y-38436072D01*
X121521145Y-38447839D01*
X121523272Y-38450814D01*
X121523831Y-38452164D01*
X121525253Y-38453586D01*
X121529866Y-38460039D01*
X121755349Y-38717734D01*
X121743702Y-38722191D01*
X121648464Y-38769810D01*
X121642039Y-38773854D01*
X121640174Y-38774627D01*
X121638074Y-38776350D01*
X121635773Y-38777799D01*
X121634448Y-38779325D01*
X121628582Y-38784141D01*
X121580963Y-38831759D01*
X121576148Y-38837625D01*
X121574622Y-38838950D01*
X121573171Y-38841253D01*
X121571450Y-38843352D01*
X121570678Y-38845214D01*
X121566633Y-38851641D01*
X121519014Y-38946879D01*
X121513655Y-38960885D01*
X121513460Y-38963626D01*
X121512408Y-38966167D01*
X121510938Y-38981091D01*
X120244397Y-38981091D01*
X120269358Y-38931168D01*
X120299419Y-38901106D01*
X120367403Y-38867115D01*
X120492200Y-38867115D01*
X120500094Y-38866337D01*
X120502100Y-38866471D01*
X120503481Y-38866003D01*
X120507124Y-38865645D01*
X120518609Y-38860887D01*
X120530376Y-38856908D01*
X120532317Y-38855209D01*
X120534701Y-38854222D01*
X120543487Y-38845435D01*
X120552839Y-38837253D01*
X120553982Y-38834940D01*
X120555807Y-38833116D01*
X120560562Y-38821636D01*
X120566071Y-38810497D01*
X120566242Y-38807922D01*
X120567230Y-38805539D01*
X120567230Y-38793107D01*
X120568056Y-38780715D01*
X120567230Y-38778272D01*
X120567230Y-38775691D01*
X120562472Y-38764205D01*
X120558493Y-38752439D01*
X120556365Y-38749463D01*
X120555807Y-38748114D01*
X120554384Y-38746691D01*
X120549772Y-38740239D01*
X120327456Y-38486163D01*
X120777914Y-38486163D01*
X120792838Y-38484693D01*
X120820415Y-38473270D01*
X120841521Y-38452164D01*
X120852944Y-38424587D01*
X120852944Y-38394739D01*
X120841521Y-38367162D01*
X120820415Y-38346056D01*
X120792838Y-38334633D01*
X120777914Y-38333163D01*
X120158867Y-38333163D01*
X120150972Y-38333940D01*
X120148967Y-38333807D01*
X120147585Y-38334274D01*
X120143943Y-38334633D01*
X120132457Y-38339390D01*
X120120691Y-38343370D01*
X120118749Y-38345068D01*
X120116366Y-38346056D01*
X120107579Y-38354842D01*
X120098228Y-38363025D01*
X120097084Y-38365337D01*
X120095260Y-38367162D01*
X120090504Y-38378641D01*
X120084996Y-38389781D01*
X120084824Y-38392355D01*
X120083837Y-38394739D01*
X120083837Y-38407170D01*
X120083011Y-38419563D01*
X120083837Y-38422005D01*
X120083837Y-38424587D01*
X120088594Y-38436072D01*
X120092574Y-38447839D01*
X120094701Y-38450814D01*
X120095260Y-38452164D01*
X120096682Y-38453586D01*
X120101295Y-38460039D01*
X120326778Y-38717734D01*
X120315131Y-38722191D01*
X120219893Y-38769810D01*
X120213468Y-38773854D01*
X120211603Y-38774627D01*
X120209503Y-38776350D01*
X120207202Y-38777799D01*
X120205877Y-38779325D01*
X120200011Y-38784141D01*
X120152392Y-38831759D01*
X120147577Y-38837625D01*
X120146051Y-38838950D01*
X120144600Y-38841253D01*
X120142879Y-38843352D01*
X120142107Y-38845214D01*
X120138062Y-38851641D01*
X120090443Y-38946879D01*
X120085084Y-38960885D01*
X120084889Y-38963626D01*
X120083837Y-38966167D01*
X120082367Y-38981091D01*
X119763314Y-38981091D01*
X119945726Y-38433855D01*
X119949051Y-38419232D01*
X119946935Y-38389458D01*
X119933586Y-38362761D01*
X119911037Y-38343203D01*
X119882720Y-38333764D01*
X119852946Y-38335881D01*
X119826249Y-38349229D01*
X119806692Y-38371779D01*
X119800578Y-38385472D01*
X119539819Y-39167749D01*
X119279060Y-38385472D01*
X119272946Y-38371778D01*
X119253389Y-38349229D01*
X119226692Y-38335880D01*
X119196918Y-38333764D01*
X119168601Y-38343203D01*
X119146052Y-38362760D01*
X119132703Y-38389457D01*
X119130587Y-38419231D01*
X119019476Y-38419231D01*
X119019476Y-38222052D01*
X122392626Y-38222052D01*
X122392626Y-39597274D01*
G37*
X129821428Y-38704663D02*
X129821428Y-37704663D01*
X129821428Y-38180853D02*
X129250000Y-38180853D01*
X129250000Y-38704663D02*
X129250000Y-37704663D01*
X128773809Y-38704663D02*
X128773809Y-38037996D01*
X128773809Y-38133234D02*
X128726190Y-38085615D01*
X128726190Y-38085615D02*
X128630952Y-38037996D01*
X128630952Y-38037996D02*
X128488095Y-38037996D01*
X128488095Y-38037996D02*
X128392857Y-38085615D01*
X128392857Y-38085615D02*
X128345238Y-38180853D01*
X128345238Y-38180853D02*
X128345238Y-38704663D01*
X128345238Y-38180853D02*
X128297619Y-38085615D01*
X128297619Y-38085615D02*
X128202381Y-38037996D01*
X128202381Y-38037996D02*
X128059524Y-38037996D01*
X128059524Y-38037996D02*
X127964285Y-38085615D01*
X127964285Y-38085615D02*
X127916666Y-38180853D01*
X127916666Y-38180853D02*
X127916666Y-38704663D01*
X127011905Y-38704663D02*
X127011905Y-37704663D01*
X127011905Y-38657044D02*
X127107143Y-38704663D01*
X127107143Y-38704663D02*
X127297619Y-38704663D01*
X127297619Y-38704663D02*
X127392857Y-38657044D01*
X127392857Y-38657044D02*
X127440476Y-38609424D01*
X127440476Y-38609424D02*
X127488095Y-38514186D01*
X127488095Y-38514186D02*
X127488095Y-38228472D01*
X127488095Y-38228472D02*
X127440476Y-38133234D01*
X127440476Y-38133234D02*
X127392857Y-38085615D01*
X127392857Y-38085615D02*
X127297619Y-38037996D01*
X127297619Y-38037996D02*
X127107143Y-38037996D01*
X127107143Y-38037996D02*
X127011905Y-38085615D01*
X126678571Y-38037996D02*
X126297619Y-38037996D01*
X126535714Y-37704663D02*
X126535714Y-38561805D01*
X126535714Y-38561805D02*
X126488095Y-38657044D01*
X126488095Y-38657044D02*
X126392857Y-38704663D01*
X126392857Y-38704663D02*
X126297619Y-38704663D01*
X126059523Y-38037996D02*
X125821428Y-38704663D01*
X125583333Y-38037996D02*
X125821428Y-38704663D01*
X125821428Y-38704663D02*
X125916666Y-38942758D01*
X125916666Y-38942758D02*
X125964285Y-38990377D01*
X125964285Y-38990377D02*
X126059523Y-39037996D01*
X129583332Y-51954663D02*
X129011904Y-51954663D01*
X129297618Y-52954663D02*
X129297618Y-51954663D01*
X128297618Y-52907044D02*
X128392856Y-52954663D01*
X128392856Y-52954663D02*
X128583332Y-52954663D01*
X128583332Y-52954663D02*
X128678570Y-52907044D01*
X128678570Y-52907044D02*
X128726189Y-52811805D01*
X128726189Y-52811805D02*
X128726189Y-52430853D01*
X128726189Y-52430853D02*
X128678570Y-52335615D01*
X128678570Y-52335615D02*
X128583332Y-52287996D01*
X128583332Y-52287996D02*
X128392856Y-52287996D01*
X128392856Y-52287996D02*
X128297618Y-52335615D01*
X128297618Y-52335615D02*
X128249999Y-52430853D01*
X128249999Y-52430853D02*
X128249999Y-52526091D01*
X128249999Y-52526091D02*
X128726189Y-52621329D01*
X127821427Y-52954663D02*
X127821427Y-52287996D01*
X127821427Y-52383234D02*
X127773808Y-52335615D01*
X127773808Y-52335615D02*
X127678570Y-52287996D01*
X127678570Y-52287996D02*
X127535713Y-52287996D01*
X127535713Y-52287996D02*
X127440475Y-52335615D01*
X127440475Y-52335615D02*
X127392856Y-52430853D01*
X127392856Y-52430853D02*
X127392856Y-52954663D01*
X127392856Y-52430853D02*
X127345237Y-52335615D01*
X127345237Y-52335615D02*
X127249999Y-52287996D01*
X127249999Y-52287996D02*
X127107142Y-52287996D01*
X127107142Y-52287996D02*
X127011903Y-52335615D01*
X127011903Y-52335615D02*
X126964284Y-52430853D01*
X126964284Y-52430853D02*
X126964284Y-52954663D01*
X126488094Y-52287996D02*
X126488094Y-53287996D01*
X126488094Y-52335615D02*
X126392856Y-52287996D01*
X126392856Y-52287996D02*
X126202380Y-52287996D01*
X126202380Y-52287996D02*
X126107142Y-52335615D01*
X126107142Y-52335615D02*
X126059523Y-52383234D01*
X126059523Y-52383234D02*
X126011904Y-52478472D01*
X126011904Y-52478472D02*
X126011904Y-52764186D01*
X126011904Y-52764186D02*
X126059523Y-52859424D01*
X126059523Y-52859424D02*
X126107142Y-52907044D01*
X126107142Y-52907044D02*
X126202380Y-52954663D01*
X126202380Y-52954663D02*
X126392856Y-52954663D01*
X126392856Y-52954663D02*
X126488094Y-52907044D01*
D10*
X118759875Y-30658207D02*
X118283684Y-30324874D01*
X118759875Y-30086779D02*
X117759875Y-30086779D01*
X117759875Y-30086779D02*
X117759875Y-30467731D01*
X117759875Y-30467731D02*
X117807494Y-30562969D01*
X117807494Y-30562969D02*
X117855113Y-30610588D01*
X117855113Y-30610588D02*
X117950351Y-30658207D01*
X117950351Y-30658207D02*
X118093208Y-30658207D01*
X118093208Y-30658207D02*
X118188446Y-30610588D01*
X118188446Y-30610588D02*
X118236065Y-30562969D01*
X118236065Y-30562969D02*
X118283684Y-30467731D01*
X118283684Y-30467731D02*
X118283684Y-30086779D01*
X118759875Y-31515350D02*
X118236065Y-31515350D01*
X118236065Y-31515350D02*
X118140827Y-31467731D01*
X118140827Y-31467731D02*
X118093208Y-31372493D01*
X118093208Y-31372493D02*
X118093208Y-31182017D01*
X118093208Y-31182017D02*
X118140827Y-31086779D01*
X118712256Y-31515350D02*
X118759875Y-31420112D01*
X118759875Y-31420112D02*
X118759875Y-31182017D01*
X118759875Y-31182017D02*
X118712256Y-31086779D01*
X118712256Y-31086779D02*
X118617017Y-31039160D01*
X118617017Y-31039160D02*
X118521779Y-31039160D01*
X118521779Y-31039160D02*
X118426541Y-31086779D01*
X118426541Y-31086779D02*
X118378922Y-31182017D01*
X118378922Y-31182017D02*
X118378922Y-31420112D01*
X118378922Y-31420112D02*
X118331303Y-31515350D01*
X118093208Y-31896303D02*
X118759875Y-32134398D01*
X118759875Y-32134398D02*
X118093208Y-32372493D01*
X118759875Y-32753446D02*
X118093208Y-32753446D01*
X117759875Y-32753446D02*
X117807494Y-32705827D01*
X117807494Y-32705827D02*
X117855113Y-32753446D01*
X117855113Y-32753446D02*
X117807494Y-32801065D01*
X117807494Y-32801065D02*
X117759875Y-32753446D01*
X117759875Y-32753446D02*
X117855113Y-32753446D01*
X118712256Y-33943922D02*
X118759875Y-34086779D01*
X118759875Y-34086779D02*
X118759875Y-34324874D01*
X118759875Y-34324874D02*
X118712256Y-34420112D01*
X118712256Y-34420112D02*
X118664636Y-34467731D01*
X118664636Y-34467731D02*
X118569398Y-34515350D01*
X118569398Y-34515350D02*
X118474160Y-34515350D01*
X118474160Y-34515350D02*
X118378922Y-34467731D01*
X118378922Y-34467731D02*
X118331303Y-34420112D01*
X118331303Y-34420112D02*
X118283684Y-34324874D01*
X118283684Y-34324874D02*
X118236065Y-34134398D01*
X118236065Y-34134398D02*
X118188446Y-34039160D01*
X118188446Y-34039160D02*
X118140827Y-33991541D01*
X118140827Y-33991541D02*
X118045589Y-33943922D01*
X118045589Y-33943922D02*
X117950351Y-33943922D01*
X117950351Y-33943922D02*
X117855113Y-33991541D01*
X117855113Y-33991541D02*
X117807494Y-34039160D01*
X117807494Y-34039160D02*
X117759875Y-34134398D01*
X117759875Y-34134398D02*
X117759875Y-34372493D01*
X117759875Y-34372493D02*
X117807494Y-34515350D01*
X118759875Y-34943922D02*
X117759875Y-34943922D01*
X118759875Y-35372493D02*
X118236065Y-35372493D01*
X118236065Y-35372493D02*
X118140827Y-35324874D01*
X118140827Y-35324874D02*
X118093208Y-35229636D01*
X118093208Y-35229636D02*
X118093208Y-35086779D01*
X118093208Y-35086779D02*
X118140827Y-34991541D01*
X118140827Y-34991541D02*
X118188446Y-34943922D01*
X118759875Y-36277255D02*
X118236065Y-36277255D01*
X118236065Y-36277255D02*
X118140827Y-36229636D01*
X118140827Y-36229636D02*
X118093208Y-36134398D01*
X118093208Y-36134398D02*
X118093208Y-35943922D01*
X118093208Y-35943922D02*
X118140827Y-35848684D01*
X118712256Y-36277255D02*
X118759875Y-36182017D01*
X118759875Y-36182017D02*
X118759875Y-35943922D01*
X118759875Y-35943922D02*
X118712256Y-35848684D01*
X118712256Y-35848684D02*
X118617017Y-35801065D01*
X118617017Y-35801065D02*
X118521779Y-35801065D01*
X118521779Y-35801065D02*
X118426541Y-35848684D01*
X118426541Y-35848684D02*
X118378922Y-35943922D01*
X118378922Y-35943922D02*
X118378922Y-36182017D01*
X118378922Y-36182017D02*
X118331303Y-36277255D01*
X118759875Y-36753446D02*
X117759875Y-36753446D01*
X118759875Y-37182017D02*
X118236065Y-37182017D01*
X118236065Y-37182017D02*
X118140827Y-37134398D01*
X118140827Y-37134398D02*
X118093208Y-37039160D01*
X118093208Y-37039160D02*
X118093208Y-36896303D01*
X118093208Y-36896303D02*
X118140827Y-36801065D01*
X118140827Y-36801065D02*
X118188446Y-36753446D01*
X119465057Y-30039160D02*
X119417438Y-30086779D01*
X119417438Y-30086779D02*
X119369819Y-30182017D01*
X119369819Y-30182017D02*
X119369819Y-30420112D01*
X119369819Y-30420112D02*
X119417438Y-30515350D01*
X119417438Y-30515350D02*
X119465057Y-30562969D01*
X119465057Y-30562969D02*
X119560295Y-30610588D01*
X119560295Y-30610588D02*
X119655533Y-30610588D01*
X119655533Y-30610588D02*
X119798390Y-30562969D01*
X119798390Y-30562969D02*
X120369819Y-29991541D01*
X120369819Y-29991541D02*
X120369819Y-30610588D01*
X119369819Y-31229636D02*
X119369819Y-31324874D01*
X119369819Y-31324874D02*
X119417438Y-31420112D01*
X119417438Y-31420112D02*
X119465057Y-31467731D01*
X119465057Y-31467731D02*
X119560295Y-31515350D01*
X119560295Y-31515350D02*
X119750771Y-31562969D01*
X119750771Y-31562969D02*
X119988866Y-31562969D01*
X119988866Y-31562969D02*
X120179342Y-31515350D01*
X120179342Y-31515350D02*
X120274580Y-31467731D01*
X120274580Y-31467731D02*
X120322200Y-31420112D01*
X120322200Y-31420112D02*
X120369819Y-31324874D01*
X120369819Y-31324874D02*
X120369819Y-31229636D01*
X120369819Y-31229636D02*
X120322200Y-31134398D01*
X120322200Y-31134398D02*
X120274580Y-31086779D01*
X120274580Y-31086779D02*
X120179342Y-31039160D01*
X120179342Y-31039160D02*
X119988866Y-30991541D01*
X119988866Y-30991541D02*
X119750771Y-30991541D01*
X119750771Y-30991541D02*
X119560295Y-31039160D01*
X119560295Y-31039160D02*
X119465057Y-31086779D01*
X119465057Y-31086779D02*
X119417438Y-31134398D01*
X119417438Y-31134398D02*
X119369819Y-31229636D01*
X119465057Y-31943922D02*
X119417438Y-31991541D01*
X119417438Y-31991541D02*
X119369819Y-32086779D01*
X119369819Y-32086779D02*
X119369819Y-32324874D01*
X119369819Y-32324874D02*
X119417438Y-32420112D01*
X119417438Y-32420112D02*
X119465057Y-32467731D01*
X119465057Y-32467731D02*
X119560295Y-32515350D01*
X119560295Y-32515350D02*
X119655533Y-32515350D01*
X119655533Y-32515350D02*
X119798390Y-32467731D01*
X119798390Y-32467731D02*
X120369819Y-31896303D01*
X120369819Y-31896303D02*
X120369819Y-32515350D01*
X119703152Y-33372493D02*
X120369819Y-33372493D01*
X119322200Y-33134398D02*
X120036485Y-32896303D01*
X120036485Y-32896303D02*
X120036485Y-33515350D01*
X124366666Y-42149580D02*
X124414285Y-42197200D01*
X124414285Y-42197200D02*
X124557142Y-42244819D01*
X124557142Y-42244819D02*
X124652380Y-42244819D01*
X124652380Y-42244819D02*
X124795237Y-42197200D01*
X124795237Y-42197200D02*
X124890475Y-42101961D01*
X124890475Y-42101961D02*
X124938094Y-42006723D01*
X124938094Y-42006723D02*
X124985713Y-41816247D01*
X124985713Y-41816247D02*
X124985713Y-41673390D01*
X124985713Y-41673390D02*
X124938094Y-41482914D01*
X124938094Y-41482914D02*
X124890475Y-41387676D01*
X124890475Y-41387676D02*
X124795237Y-41292438D01*
X124795237Y-41292438D02*
X124652380Y-41244819D01*
X124652380Y-41244819D02*
X124557142Y-41244819D01*
X124557142Y-41244819D02*
X124414285Y-41292438D01*
X124414285Y-41292438D02*
X124366666Y-41340057D01*
X123985713Y-41340057D02*
X123938094Y-41292438D01*
X123938094Y-41292438D02*
X123842856Y-41244819D01*
X123842856Y-41244819D02*
X123604761Y-41244819D01*
X123604761Y-41244819D02*
X123509523Y-41292438D01*
X123509523Y-41292438D02*
X123461904Y-41340057D01*
X123461904Y-41340057D02*
X123414285Y-41435295D01*
X123414285Y-41435295D02*
X123414285Y-41530533D01*
X123414285Y-41530533D02*
X123461904Y-41673390D01*
X123461904Y-41673390D02*
X124033332Y-42244819D01*
X124033332Y-42244819D02*
X123414285Y-42244819D01*
X124833333Y-25704819D02*
X124833333Y-26419104D01*
X124833333Y-26419104D02*
X124880952Y-26561961D01*
X124880952Y-26561961D02*
X124976190Y-26657200D01*
X124976190Y-26657200D02*
X125119047Y-26704819D01*
X125119047Y-26704819D02*
X125214285Y-26704819D01*
X123833333Y-26704819D02*
X124404761Y-26704819D01*
X124119047Y-26704819D02*
X124119047Y-25704819D01*
X124119047Y-25704819D02*
X124214285Y-25847676D01*
X124214285Y-25847676D02*
X124309523Y-25942914D01*
X124309523Y-25942914D02*
X124404761Y-25990533D01*
X124116666Y-33399580D02*
X124164285Y-33447200D01*
X124164285Y-33447200D02*
X124307142Y-33494819D01*
X124307142Y-33494819D02*
X124402380Y-33494819D01*
X124402380Y-33494819D02*
X124545237Y-33447200D01*
X124545237Y-33447200D02*
X124640475Y-33351961D01*
X124640475Y-33351961D02*
X124688094Y-33256723D01*
X124688094Y-33256723D02*
X124735713Y-33066247D01*
X124735713Y-33066247D02*
X124735713Y-32923390D01*
X124735713Y-32923390D02*
X124688094Y-32732914D01*
X124688094Y-32732914D02*
X124640475Y-32637676D01*
X124640475Y-32637676D02*
X124545237Y-32542438D01*
X124545237Y-32542438D02*
X124402380Y-32494819D01*
X124402380Y-32494819D02*
X124307142Y-32494819D01*
X124307142Y-32494819D02*
X124164285Y-32542438D01*
X124164285Y-32542438D02*
X124116666Y-32590057D01*
X123164285Y-33494819D02*
X123735713Y-33494819D01*
X123449999Y-33494819D02*
X123449999Y-32494819D01*
X123449999Y-32494819D02*
X123545237Y-32637676D01*
X123545237Y-32637676D02*
X123640475Y-32732914D01*
X123640475Y-32732914D02*
X123735713Y-32780533D01*
X122116666Y-44807319D02*
X122449999Y-44331128D01*
X122688094Y-44807319D02*
X122688094Y-43807319D01*
X122688094Y-43807319D02*
X122307142Y-43807319D01*
X122307142Y-43807319D02*
X122211904Y-43854938D01*
X122211904Y-43854938D02*
X122164285Y-43902557D01*
X122164285Y-43902557D02*
X122116666Y-43997795D01*
X122116666Y-43997795D02*
X122116666Y-44140652D01*
X122116666Y-44140652D02*
X122164285Y-44235890D01*
X122164285Y-44235890D02*
X122211904Y-44283509D01*
X122211904Y-44283509D02*
X122307142Y-44331128D01*
X122307142Y-44331128D02*
X122688094Y-44331128D01*
X121783332Y-43807319D02*
X121164285Y-43807319D01*
X121164285Y-43807319D02*
X121497618Y-44188271D01*
X121497618Y-44188271D02*
X121354761Y-44188271D01*
X121354761Y-44188271D02*
X121259523Y-44235890D01*
X121259523Y-44235890D02*
X121211904Y-44283509D01*
X121211904Y-44283509D02*
X121164285Y-44378747D01*
X121164285Y-44378747D02*
X121164285Y-44616842D01*
X121164285Y-44616842D02*
X121211904Y-44712080D01*
X121211904Y-44712080D02*
X121259523Y-44759700D01*
X121259523Y-44759700D02*
X121354761Y-44807319D01*
X121354761Y-44807319D02*
X121640475Y-44807319D01*
X121640475Y-44807319D02*
X121735713Y-44759700D01*
X121735713Y-44759700D02*
X121783332Y-44712080D01*
X124833333Y-44704819D02*
X124833333Y-45419104D01*
X124833333Y-45419104D02*
X124880952Y-45561961D01*
X124880952Y-45561961D02*
X124976190Y-45657200D01*
X124976190Y-45657200D02*
X125119047Y-45704819D01*
X125119047Y-45704819D02*
X125214285Y-45704819D01*
X124452380Y-44704819D02*
X123833333Y-44704819D01*
X123833333Y-44704819D02*
X124166666Y-45085771D01*
X124166666Y-45085771D02*
X124023809Y-45085771D01*
X124023809Y-45085771D02*
X123928571Y-45133390D01*
X123928571Y-45133390D02*
X123880952Y-45181009D01*
X123880952Y-45181009D02*
X123833333Y-45276247D01*
X123833333Y-45276247D02*
X123833333Y-45514342D01*
X123833333Y-45514342D02*
X123880952Y-45609580D01*
X123880952Y-45609580D02*
X123928571Y-45657200D01*
X123928571Y-45657200D02*
X124023809Y-45704819D01*
X124023809Y-45704819D02*
X124309523Y-45704819D01*
X124309523Y-45704819D02*
X124404761Y-45657200D01*
X124404761Y-45657200D02*
X124452380Y-45609580D01*
X125204819Y-55261905D02*
X124204819Y-55261905D01*
X124204819Y-55261905D02*
X124204819Y-55500000D01*
X124204819Y-55500000D02*
X124252438Y-55642857D01*
X124252438Y-55642857D02*
X124347676Y-55738095D01*
X124347676Y-55738095D02*
X124442914Y-55785714D01*
X124442914Y-55785714D02*
X124633390Y-55833333D01*
X124633390Y-55833333D02*
X124776247Y-55833333D01*
X124776247Y-55833333D02*
X124966723Y-55785714D01*
X124966723Y-55785714D02*
X125061961Y-55738095D01*
X125061961Y-55738095D02*
X125157200Y-55642857D01*
X125157200Y-55642857D02*
X125204819Y-55500000D01*
X125204819Y-55500000D02*
X125204819Y-55261905D01*
X125204819Y-56785714D02*
X125204819Y-56214286D01*
X125204819Y-56500000D02*
X124204819Y-56500000D01*
X124204819Y-56500000D02*
X124347676Y-56404762D01*
X124347676Y-56404762D02*
X124442914Y-56309524D01*
X124442914Y-56309524D02*
X124490533Y-56214286D01*
X124833333Y-61454819D02*
X124833333Y-62169104D01*
X124833333Y-62169104D02*
X124880952Y-62311961D01*
X124880952Y-62311961D02*
X124976190Y-62407200D01*
X124976190Y-62407200D02*
X125119047Y-62454819D01*
X125119047Y-62454819D02*
X125214285Y-62454819D01*
X124404761Y-61550057D02*
X124357142Y-61502438D01*
X124357142Y-61502438D02*
X124261904Y-61454819D01*
X124261904Y-61454819D02*
X124023809Y-61454819D01*
X124023809Y-61454819D02*
X123928571Y-61502438D01*
X123928571Y-61502438D02*
X123880952Y-61550057D01*
X123880952Y-61550057D02*
X123833333Y-61645295D01*
X123833333Y-61645295D02*
X123833333Y-61740533D01*
X123833333Y-61740533D02*
X123880952Y-61883390D01*
X123880952Y-61883390D02*
X124452380Y-62454819D01*
X124452380Y-62454819D02*
X123833333Y-62454819D01*
X113706666Y-33199580D02*
X113754285Y-33247200D01*
X113754285Y-33247200D02*
X113897142Y-33294819D01*
X113897142Y-33294819D02*
X113992380Y-33294819D01*
X113992380Y-33294819D02*
X114135237Y-33247200D01*
X114135237Y-33247200D02*
X114230475Y-33151961D01*
X114230475Y-33151961D02*
X114278094Y-33056723D01*
X114278094Y-33056723D02*
X114325713Y-32866247D01*
X114325713Y-32866247D02*
X114325713Y-32723390D01*
X114325713Y-32723390D02*
X114278094Y-32532914D01*
X114278094Y-32532914D02*
X114230475Y-32437676D01*
X114230475Y-32437676D02*
X114135237Y-32342438D01*
X114135237Y-32342438D02*
X113992380Y-32294819D01*
X113992380Y-32294819D02*
X113897142Y-32294819D01*
X113897142Y-32294819D02*
X113754285Y-32342438D01*
X113754285Y-32342438D02*
X113706666Y-32390057D01*
X112849523Y-32628152D02*
X112849523Y-33294819D01*
X113087618Y-32247200D02*
X113325713Y-32961485D01*
X113325713Y-32961485D02*
X112706666Y-32961485D01*
X113706666Y-41899580D02*
X113754285Y-41947200D01*
X113754285Y-41947200D02*
X113897142Y-41994819D01*
X113897142Y-41994819D02*
X113992380Y-41994819D01*
X113992380Y-41994819D02*
X114135237Y-41947200D01*
X114135237Y-41947200D02*
X114230475Y-41851961D01*
X114230475Y-41851961D02*
X114278094Y-41756723D01*
X114278094Y-41756723D02*
X114325713Y-41566247D01*
X114325713Y-41566247D02*
X114325713Y-41423390D01*
X114325713Y-41423390D02*
X114278094Y-41232914D01*
X114278094Y-41232914D02*
X114230475Y-41137676D01*
X114230475Y-41137676D02*
X114135237Y-41042438D01*
X114135237Y-41042438D02*
X113992380Y-40994819D01*
X113992380Y-40994819D02*
X113897142Y-40994819D01*
X113897142Y-40994819D02*
X113754285Y-41042438D01*
X113754285Y-41042438D02*
X113706666Y-41090057D01*
X113373332Y-40994819D02*
X112754285Y-40994819D01*
X112754285Y-40994819D02*
X113087618Y-41375771D01*
X113087618Y-41375771D02*
X112944761Y-41375771D01*
X112944761Y-41375771D02*
X112849523Y-41423390D01*
X112849523Y-41423390D02*
X112801904Y-41471009D01*
X112801904Y-41471009D02*
X112754285Y-41566247D01*
X112754285Y-41566247D02*
X112754285Y-41804342D01*
X112754285Y-41804342D02*
X112801904Y-41899580D01*
X112801904Y-41899580D02*
X112849523Y-41947200D01*
X112849523Y-41947200D02*
X112944761Y-41994819D01*
X112944761Y-41994819D02*
X113230475Y-41994819D01*
X113230475Y-41994819D02*
X113325713Y-41947200D01*
X113325713Y-41947200D02*
X113373332Y-41899580D01*
X115109580Y-46083333D02*
X115157200Y-46035714D01*
X115157200Y-46035714D02*
X115204819Y-45892857D01*
X115204819Y-45892857D02*
X115204819Y-45797619D01*
X115204819Y-45797619D02*
X115157200Y-45654762D01*
X115157200Y-45654762D02*
X115061961Y-45559524D01*
X115061961Y-45559524D02*
X114966723Y-45511905D01*
X114966723Y-45511905D02*
X114776247Y-45464286D01*
X114776247Y-45464286D02*
X114633390Y-45464286D01*
X114633390Y-45464286D02*
X114442914Y-45511905D01*
X114442914Y-45511905D02*
X114347676Y-45559524D01*
X114347676Y-45559524D02*
X114252438Y-45654762D01*
X114252438Y-45654762D02*
X114204819Y-45797619D01*
X114204819Y-45797619D02*
X114204819Y-45892857D01*
X114204819Y-45892857D02*
X114252438Y-46035714D01*
X114252438Y-46035714D02*
X114300057Y-46083333D01*
X114204819Y-46416667D02*
X114204819Y-47083333D01*
X114204819Y-47083333D02*
X115204819Y-46654762D01*
X119454819Y-55833333D02*
X118978628Y-55500000D01*
X119454819Y-55261905D02*
X118454819Y-55261905D01*
X118454819Y-55261905D02*
X118454819Y-55642857D01*
X118454819Y-55642857D02*
X118502438Y-55738095D01*
X118502438Y-55738095D02*
X118550057Y-55785714D01*
X118550057Y-55785714D02*
X118645295Y-55833333D01*
X118645295Y-55833333D02*
X118788152Y-55833333D01*
X118788152Y-55833333D02*
X118883390Y-55785714D01*
X118883390Y-55785714D02*
X118931009Y-55738095D01*
X118931009Y-55738095D02*
X118978628Y-55642857D01*
X118978628Y-55642857D02*
X118978628Y-55261905D01*
X118550057Y-56214286D02*
X118502438Y-56261905D01*
X118502438Y-56261905D02*
X118454819Y-56357143D01*
X118454819Y-56357143D02*
X118454819Y-56595238D01*
X118454819Y-56595238D02*
X118502438Y-56690476D01*
X118502438Y-56690476D02*
X118550057Y-56738095D01*
X118550057Y-56738095D02*
X118645295Y-56785714D01*
X118645295Y-56785714D02*
X118740533Y-56785714D01*
X118740533Y-56785714D02*
X118883390Y-56738095D01*
X118883390Y-56738095D02*
X119454819Y-56166667D01*
X119454819Y-56166667D02*
X119454819Y-56785714D01*
X120438094Y-44912319D02*
X120438094Y-43912319D01*
X120438094Y-43912319D02*
X120199999Y-43912319D01*
X120199999Y-43912319D02*
X120057142Y-43959938D01*
X120057142Y-43959938D02*
X119961904Y-44055176D01*
X119961904Y-44055176D02*
X119914285Y-44150414D01*
X119914285Y-44150414D02*
X119866666Y-44340890D01*
X119866666Y-44340890D02*
X119866666Y-44483747D01*
X119866666Y-44483747D02*
X119914285Y-44674223D01*
X119914285Y-44674223D02*
X119961904Y-44769461D01*
X119961904Y-44769461D02*
X120057142Y-44864700D01*
X120057142Y-44864700D02*
X120199999Y-44912319D01*
X120199999Y-44912319D02*
X120438094Y-44912319D01*
X119485713Y-44007557D02*
X119438094Y-43959938D01*
X119438094Y-43959938D02*
X119342856Y-43912319D01*
X119342856Y-43912319D02*
X119104761Y-43912319D01*
X119104761Y-43912319D02*
X119009523Y-43959938D01*
X119009523Y-43959938D02*
X118961904Y-44007557D01*
X118961904Y-44007557D02*
X118914285Y-44102795D01*
X118914285Y-44102795D02*
X118914285Y-44198033D01*
X118914285Y-44198033D02*
X118961904Y-44340890D01*
X118961904Y-44340890D02*
X119533332Y-44912319D01*
X119533332Y-44912319D02*
X118914285Y-44912319D01*
D12*
%TO.C,C2*%
X123465000Y-39551252D02*
X123465000Y-39028748D01*
X124935000Y-39551252D02*
X124935000Y-39028748D01*
%TO.C,J1*%
X125900000Y-25670000D02*
X125900000Y-31250000D01*
X125900000Y-36830000D02*
X125900000Y-31250000D01*
X129600000Y-25670000D02*
X125900000Y-25670000D01*
X129600000Y-28540000D02*
X129600000Y-25670000D01*
X129600000Y-33960000D02*
X129600000Y-36830000D01*
X129600000Y-36830000D02*
X125900000Y-36830000D01*
X129900000Y-25370000D02*
X127750000Y-25370000D01*
X129900000Y-27500000D02*
X129900000Y-25370000D01*
X132460000Y-28540000D02*
X129600000Y-28540000D01*
X132460000Y-31250000D02*
X132460000Y-28540000D01*
X132460000Y-31250000D02*
X132460000Y-33960000D01*
X132460000Y-33960000D02*
X129600000Y-33960000D01*
%TO.C,C1*%
X123215000Y-35278748D02*
X123215000Y-35801252D01*
X124685000Y-35278748D02*
X124685000Y-35801252D01*
%TO.C,R3*%
X121215000Y-41562936D02*
X121215000Y-42017064D01*
X122685000Y-41562936D02*
X122685000Y-42017064D01*
%TO.C,J3*%
X125900000Y-39670000D02*
X125900000Y-45250000D01*
X125900000Y-50830000D02*
X125900000Y-45250000D01*
X129600000Y-39670000D02*
X125900000Y-39670000D01*
X129600000Y-42540000D02*
X129600000Y-39670000D01*
X129600000Y-47960000D02*
X129600000Y-50830000D01*
X129600000Y-50830000D02*
X125900000Y-50830000D01*
X129900000Y-39370000D02*
X127750000Y-39370000D01*
X129900000Y-41500000D02*
X129900000Y-39370000D01*
X132460000Y-42540000D02*
X129600000Y-42540000D01*
X132460000Y-45250000D02*
X132460000Y-42540000D01*
X132460000Y-45250000D02*
X132460000Y-47960000D01*
X132460000Y-47960000D02*
X129600000Y-47960000D01*
%TO.C,D1*%
X122040000Y-54315000D02*
X122040000Y-57000000D01*
X123960000Y-54315000D02*
X122040000Y-54315000D01*
X123960000Y-57000000D02*
X123960000Y-54315000D01*
%TO.C,J2*%
X125900000Y-53920000D02*
X125900000Y-58250000D01*
X125900000Y-62580000D02*
X125900000Y-58250000D01*
X129600000Y-53920000D02*
X125900000Y-53920000D01*
X129600000Y-55540000D02*
X129600000Y-53920000D01*
X129600000Y-60960000D02*
X129600000Y-62580000D01*
X129600000Y-62580000D02*
X125900000Y-62580000D01*
X129900000Y-53620000D02*
X127750000Y-53620000D01*
X129900000Y-55540000D02*
X129900000Y-53620000D01*
X132460000Y-55540000D02*
X129600000Y-55540000D01*
X132460000Y-58250000D02*
X132460000Y-55540000D01*
X132460000Y-58250000D02*
X132460000Y-60960000D01*
X132460000Y-60960000D02*
X129600000Y-60960000D01*
%TO.C,C4*%
X112715000Y-35601252D02*
X112715000Y-35078748D01*
X114185000Y-35601252D02*
X114185000Y-35078748D01*
%TO.C,C3*%
X112715000Y-39301252D02*
X112715000Y-38778748D01*
X114185000Y-39301252D02*
X114185000Y-38778748D01*
%TO.C,C7*%
X115765000Y-46511252D02*
X115765000Y-45988748D01*
X117235000Y-46511252D02*
X117235000Y-45988748D01*
%TO.C,R2*%
X120015000Y-56227064D02*
X120015000Y-55772936D01*
X121485000Y-56227064D02*
X121485000Y-55772936D01*
%TO.C,D2*%
X118740000Y-40770000D02*
X118740000Y-43455000D01*
X118740000Y-43455000D02*
X120660000Y-43455000D01*
X120660000Y-43455000D02*
X120660000Y-40770000D01*
%TD*%
M02*
