M48
; DRILL file {KiCad 8.0.5} date 2024-10-30T11:18:25-0500
; FORMAT={-:-/ absolute / inch / decimal}
; #@! TF.CreationDate,2024-10-30T11:18:25-05:00
; #@! TF.GenerationSoftware,Kicad,Pcbnew,8.0.5
; #@! TF.FileFunction,Plated,1,2,PTH
FMAT,2
INCH
; #@! TA.AperFunction,Plated,PTH,ViaDrill
T1C0.0118
; #@! TA.AperFunction,Plated,PTH,ComponentDrill
T2C0.0472
%
G90
G05
T1
X4.4665Y-1.3539
X4.4665Y-1.4287
X4.4665Y-1.4996
X4.4665Y-1.5744
X4.5492Y-1.2976
X4.5866Y-1.8583
X4.6063Y-2.0591
X4.7126Y-1.6814
X4.7539Y-2.1688
X4.7638Y-1.8209
X4.8012Y-1.4476
X4.8425Y-2.1678
X4.8799Y-1.3618
X4.8898Y-1.5094
X4.8898Y-1.5843
T2
X5.0295Y-1.0827
X5.0295Y-1.1811
X5.0295Y-1.2795
X5.0295Y-1.378
X5.0295Y-1.6339
X5.0295Y-1.7323
X5.0295Y-1.8307
X5.0295Y-1.9291
X5.0295Y-2.1949
X5.0295Y-2.2933
X5.0295Y-2.3917
M30
